<?xml version="1.0" encoding="UTF-8"?>
<svg id="Layer_2" data-name="Layer 2" xmlns="http://www.w3.org/2000/svg" viewBox="0 0 1919.82 297.44">
  <defs>
    <style>
      .cls-1 {
        fill: #5a2324;
      }

      .cls-1, .cls-2, .cls-3, .cls-4 {
        stroke-width: 0px;
      }

      .cls-2 {
        fill: #8e362b;
      }

      .cls-3 {
        fill: #b84134;
      }

      .cls-4 {
        fill: #76322a;
      }
    </style>
  </defs>
  <g id="Layer_1-2" data-name="Layer 1">
    <g>
      <path class="cls-1" d="M1919.81,183.19c.01,22.63.01,45.26,0,67.9-2.92-2.59-11.59,5.35-28.12,14.09-252.26,56.04-520.92,23.84-779.91,15.37q.47-1.28.94-2.56c124.99-5.31,249.89-9.79,374.95-14.09v-2.56c-48.31,1.45-231.42-10.64-263.41-19.22-1.13-4.75,3.67-4.84,3.75-5.12,61.04-.26,124.39,9.71,182.79-6.41,14.77-8.53-68.92.35-70.3-6.41,194.8,3.25,388.67-14.72,579.31-40.99Z"/>
      <path class="cls-3" d="M178.15,58.93q25.31,96.08,50.62,192.16c-.76.31-4.45,3.81-6.56,3.84-6.29.1-88.78-35.21-105.92-46.12-1.61-1.02-2.36-1.61-3.75-2.56-.63-.43-3.93-7.28-9.37-10.25-15.69-22.87-11.92-12.77-16.87,2.56C60.67,223.7,36.79,250.55.05,269.02,0,187.89-.02,106.75.05,25.62c28.26,2.52,168.49,33.71,178.1,33.31Z"/>
      <path class="cls-3" d="M824.95,101.2c18.09,16.27,34.63,33.26,54.37,48.68,20.32,15.88,34.11,28.19,64.68,35.87,41.48,10.42,209.01,28.02,261.53,32.03.28,11.85,1.67,19.76,18.75,24.34,31.99,8.58,215.09,20.66,263.41,19.22v2.56c-125.07,4.3-249.97,8.78-374.95,14.09q-.47,1.28-.94,2.56c-111.49-6.86-269.35-20.28-374.95-42.27,8.64-50.6,5.85-101.6,3.75-152.45,28.35,3.17,55.46,13.48,84.36,15.37Z"/>
      <g>
        <path class="cls-3" d="M515.61,66.61c10.63,5.1,98.91,41.99,104.99,42.27-8.51,11.13-3.78,31.98-12.19,32.03-7.58-3.65-84.97-38.41-87.18-35.23,47.85,24.93,26.1,18.83,24.37,38.43-3.02,34.34,13.48,82.18,13.12,104.41-.12,7.47-2.99,13.42-5.62,20.5-72.45-17.62-159.64-48.61-202.48-93.52-3.4-7.24-5.27-5-5.62-5.76-1.82-3.96,1.89-5.47,1.87-5.76C345.26,125.04,359.62,43.17,365.63,0c3.9-.05,70.74,15.25,74.05,16.65,5.72,2.43,38.16,31.83,75.93,49.96Z"/>
        <path class="cls-1" d="M346.88,163.98c-7.36-6.59-8.89-15.22-13.12-8.97-13.05,19.02-68.22,71.58-71.24,75.58-10.42,5.42-23.01,16.1-33.75,20.5q-25.31-96.08-50.62-192.16C188.45,58.5,353.61.14,365.63,0c-6,43.17-20.37,125.04-18.75,163.98Z"/>
      </g>
      <path class="cls-1" d="M740.58,85.83c2.1,50.84,4.89,101.84-3.75,152.45-30.33-6.32-64.23-12.32-86.24-29.46-3.67-2.86-19.56-21.36-24.37-26.9-2.97-3.42-5.85-7.66-7.5-11.53-8.5-9.56-29.96,47.32-48.74,60.85-1.14,5.34-4.6,16.13-11.25,17.29.36-22.23-16.14-70.07-13.12-104.41,1.72-19.6,23.48-13.5-24.37-38.43,2.2-3.18,79.6,31.58,87.18,35.23,8.4-.05,3.68-20.9,12.19-32.03,7.1.33,102.05-25.42,111.55-25.62,6.46-.14,7.98,2.51,8.44,2.56Z"/>
      <path class="cls-4" d="M1340.51,224.18c1.38,6.76,85.07-2.13,70.3,6.41-58.4,16.12-121.75,6.14-182.79,6.41,3.05-10.37.51-14.44-9.37-17.93,43.43,3.06,78.27,4.4,121.86,5.12Z"/>
      <path class="cls-2" d="M1218.65,219.06c9.88,3.49,12.42,7.56,9.37,17.93-.08.28-4.88.37-3.75,5.12-17.08-4.58-18.46-12.49-18.75-24.34,4.27.33,8.63.96,13.12,1.28Z"/>
    </g>
  </g>
</svg>