<?xml version="1.0" encoding="UTF-8"?>
<svg id="Layer_2" data-name="Layer 2" xmlns="http://www.w3.org/2000/svg" viewBox="0 0 1919.78 209.7">
  <defs>
    <style>
      .cls-1 {
        fill: #ebba92;
      }

      .cls-1, .cls-2, .cls-3, .cls-4, .cls-5 {
        stroke-width: 0px;
      }

      .cls-2 {
        fill: #02747d;
      }

      .cls-3 {
        fill: #a9cdbb;
      }

      .cls-4 {
        fill: #8a7953;
      }

      .cls-5 {
        fill: #084d54;
      }
    </style>
  </defs>
  <g id="Layer_1-2" data-name="Layer 1">
    <g>
      <path class="cls-2" d="M1919.78,98.25c-.02,35.87.03,71.74,0,107.61-134.31-1.05-268.79,1.96-403.08-1.28-85.59-2.07-54.94-.21,4.69-8.97,70.91-10.41,234.67-34.3,292.46-51.24,27.44-8.04,54.2-19.55,77.8-32.03,16.53-8.74,25.2-16.69,28.12-14.09Z"/>
      <g>
        <g>
          <path class="cls-2" d="M346.84,11.13c.01.3-3.69,1.81-1.87,5.76.35.77,2.22-1.47,5.62,5.76,26.51,56.35,102.6,111.03,183.73,132.59-61.96-5.14-123.37-12.95-183.73-23.7-8.67-42.84-7.04-87.23-16.87-129.39,4.24-6.26,5.77,2.37,13.12,8.97Z"/>
          <path class="cls-5" d="M350.59,131.55c-34.13-6.08-67.74-12.36-100.3-21.78-2.68-2.78,9.01-27.82,12.19-32.03,3.02-4,58.19-56.56,71.24-75.58,9.83,42.16,8.2,86.55,16.87,129.39Z"/>
        </g>
        <g>
          <path class="cls-2" d="M618.68,17.54c1.65,3.87,4.53,8.11,7.5,11.53-4.83,3.06,15.53,22.22,24.37,30.75,49.55,47.8,113.57,73.31,193.1,92.88-73.1-2.24-144.68-10.8-215.6-22.42.02-37.05-10.43-73.97-13.12-110.81-.16-2.14.96-2.14,3.75-1.92Z"/>
          <path class="cls-5" d="M618.68,17.54c-2.79-.22-3.91-.22-3.75,1.92,2.69,36.84,13.14,73.76,13.12,110.81-26.04-4.27-49.59-7.91-74.99-14.09,2.63-7.08,5.5-13.03,5.62-20.5,6.65-1.16,10.11-11.95,11.25-17.29,18.79-13.53,40.25-70.41,48.74-60.85Z"/>
          <path class="cls-3" d="M650.55,55.97v3.84c-8.84-8.53-29.2-27.68-24.37-30.75,4.81,5.54,20.71,24.05,24.37,26.9Z"/>
        </g>
        <g>
          <path class="cls-1" d="M553.07,116.18c25.4,6.18,48.95,9.82,74.99,14.09,70.92,11.62,142.5,20.17,215.6,22.42-79.53-19.57-143.55-45.07-193.1-92.88v-3.84c22.01,17.14,55.91,23.15,86.24,29.46,105.6,22,263.47,35.42,374.95,42.27,258.99,8.46,527.64,40.67,779.91-15.37-23.6,12.48-50.36,23.98-77.8,32.03-57.8,16.94-221.56,40.83-292.46,51.24-59.63,8.76-90.28,6.9-4.69,8.97l-6.56,5.12L0,208.42C-.02,177.67.03,146.93,0,116.18c36.75-18.47,60.62-45.32,86.24-70.46-9.34,28.9-14.95,55.1-41.25,80.07,81.4,27.49,172.48,42.61,262.47,51.88,6.58.68,11.66,1.73,1.87-1.28-93.62-28.78-145.57-55.78-193.1-120.42,17.14,10.91,99.63,46.22,105.92,46.12,2.11-.03,5.8-3.53,6.56-3.84,10.74-4.4,23.32-15.07,33.75-20.5-3.18,4.21-14.86,29.25-12.19,32.03,32.56,9.42,66.17,15.7,100.3,21.78,60.35,10.75,121.76,18.56,183.73,23.7-81.13-21.56-157.22-76.24-183.73-132.59,42.83,44.9,130.03,75.9,202.48,93.52Z"/>
          <path class="cls-4" d="M307.47,177.67l1.87-1.28c9.78,3.01,4.7,1.96-1.87,1.28Z"/>
        </g>
        <g>
          <path class="cls-5" d="M103.12,43.16c-.41-.22-8.44-3.99-9.37-3.2.56,15.98-9.11,88.14-5.62,94.8,4.21,8.04,167.72,36.55,191.23,35.87-80.34-26.95-130.07-64.73-172.48-117.86l5.62.64c1.39.95,2.14,1.54,3.75,2.56,47.54,64.64,99.48,91.64,193.1,120.42l-1.87,1.28c-89.99-9.27-181.07-24.39-262.47-51.88,26.29-24.97,31.91-51.16,41.25-80.07,4.96-15.34,1.19-25.43,16.87-2.56Z"/>
          <path class="cls-2" d="M103.12,43.16c5.45,2.97,8.75,9.82,9.37,10.25l-5.62-.64c42.41,53.13,92.14,90.91,172.48,117.86-23.51.68-187.02-27.83-191.23-35.87-3.48-6.66,6.19-78.82,5.62-94.8.94-.78,8.96,2.98,9.37,3.2Z"/>
        </g>
      </g>
    </g>
  </g>
</svg>