<?xml version="1.0" encoding="UTF-8"?>
<svg id="Layer_2" data-name="Layer 2" xmlns="http://www.w3.org/2000/svg" xmlns:xlink="http://www.w3.org/1999/xlink" viewBox="0 0 1920 538.17">
  <defs>
    <style>
      .cls-1 {
        fill: #dd9245;
      }

      .cls-1, .cls-2, .cls-3, .cls-4, .cls-5, .cls-6, .cls-7, .cls-8, .cls-9, .cls-10, .cls-11, .cls-12, .cls-13, .cls-14, .cls-15, .cls-16, .cls-17, .cls-18, .cls-19, .cls-20, .cls-21, .cls-22, .cls-23, .cls-24, .cls-25, .cls-26, .cls-27, .cls-28, .cls-29, .cls-30, .cls-31, .cls-32, .cls-33, .cls-34, .cls-35, .cls-36, .cls-37, .cls-38 {
        stroke-width: 0px;
      }

      .cls-2 {
        fill: url(#linear-gradient-12);
      }

      .cls-3 {
        fill: url(#linear-gradient);
      }

      .cls-4 {
        fill: url(#linear-gradient-6);
      }

      .cls-5 {
        fill: #2c5a50;
      }

      .cls-6 {
        fill: #3c4543;
      }

      .cls-7 {
        fill: #b27752;
      }

      .cls-8 {
        fill: #78684d;
      }

      .cls-9 {
        fill: #745434;
      }

      .cls-10 {
        fill: #89846f;
      }

      .cls-11 {
        fill: #27413c;
      }

      .cls-12 {
        fill: #a27c4d;
      }

      .cls-13 {
        fill: url(#linear-gradient-11);
      }

      .cls-14 {
        fill: #152f3a;
      }

      .cls-15 {
        fill: #4b5b4d;
      }

      .cls-16 {
        fill: url(#linear-gradient-5);
      }

      .cls-17 {
        fill: #976034;
      }

      .cls-18 {
        fill: #48230d;
      }

      .cls-19 {
        fill: url(#linear-gradient-13);
      }

      .cls-20 {
        fill: #8e7255;
      }

      .cls-21 {
        fill: url(#linear-gradient-2);
      }

      .cls-22 {
        fill: #69674e;
      }

      .cls-23 {
        fill: #173b3e;
      }

      .cls-24 {
        fill: url(#linear-gradient-7);
      }

      .cls-25 {
        fill: url(#linear-gradient-3);
      }

      .cls-26 {
        fill: url(#linear-gradient-9);
      }

      .cls-27 {
        fill: url(#linear-gradient-8);
      }

      .cls-28 {
        fill: #bc864d;
      }

      .cls-29 {
        fill: #866d41;
      }

      .cls-30 {
        fill: #634220;
      }

      .cls-31 {
        fill: #2b3b3e;
      }

      .cls-32 {
        fill: #586149;
      }

      .cls-33 {
        fill: url(#linear-gradient-10);
      }

      .cls-34 {
        fill: #57574a;
      }

      .cls-35 {
        fill: url(#linear-gradient-4);
      }

      .cls-36 {
        fill: #615039;
      }

      .cls-37 {
        fill: #3b4c43;
      }

      .cls-38 {
        fill: #8a7953;
      }
    </style>
    <linearGradient id="linear-gradient" x1="289.62" y1="261.76" x2="201.05" y2="414.42" gradientUnits="userSpaceOnUse">
      <stop offset="0" stop-color="#8a7552"/>
      <stop offset=".78" stop-color="#152f3b"/>
    </linearGradient>
    <linearGradient id="linear-gradient-2" x1="1020.62" y1="444.29" x2="1095.19" y2="570.91" gradientUnits="userSpaceOnUse">
      <stop offset="0" stop-color="#8c7153"/>
      <stop offset=".82" stop-color="#142e3b"/>
    </linearGradient>
    <linearGradient id="linear-gradient-3" x1="1269.86" y1="451.1" x2="1372.62" y2="577.98" gradientUnits="userSpaceOnUse">
      <stop offset="0" stop-color="#977755"/>
      <stop offset=".82" stop-color="#142e3b"/>
    </linearGradient>
    <linearGradient id="linear-gradient-4" x1="69.67" y1="431.68" x2="49.04" y2="534.41" gradientUnits="userSpaceOnUse">
      <stop offset="0" stop-color="#977856"/>
      <stop offset="1" stop-color="#143139"/>
    </linearGradient>
    <linearGradient id="linear-gradient-5" x1="1584.07" y1="466.61" x2="1625.79" y2="565.42" gradientUnits="userSpaceOnUse">
      <stop offset="0" stop-color="#846e56"/>
      <stop offset="1" stop-color="#10303a"/>
    </linearGradient>
    <linearGradient id="linear-gradient-6" x1="1446.62" y1="324.38" x2="1490.24" y2="441.91" gradientUnits="userSpaceOnUse">
      <stop offset="0" stop-color="#585c4c"/>
      <stop offset="1" stop-color="#13303b"/>
    </linearGradient>
    <linearGradient id="linear-gradient-7" x1="637.63" y1="312.13" x2="645.65" y2="338.51" gradientUnits="userSpaceOnUse">
      <stop offset="0" stop-color="#635c4b"/>
      <stop offset="1" stop-color="#30413e"/>
    </linearGradient>
    <linearGradient id="linear-gradient-8" x1="530.16" y1="295.56" x2="583.07" y2="343.66" gradientUnits="userSpaceOnUse">
      <stop offset="0" stop-color="#374443"/>
      <stop offset="1" stop-color="#122f39"/>
    </linearGradient>
    <linearGradient id="linear-gradient-9" x1="140.25" y1="145.47" x2="158.2" y2="210.6" gradientUnits="userSpaceOnUse">
      <stop offset="0" stop-color="#706950"/>
      <stop offset="1" stop-color="#183c3e"/>
    </linearGradient>
    <linearGradient id="linear-gradient-10" x1="282.38" y1="390.48" x2="234.34" y2="461.32" gradientUnits="userSpaceOnUse">
      <stop offset="0" stop-color="#786c4c"/>
      <stop offset="1" stop-color="#11333b"/>
    </linearGradient>
    <linearGradient id="linear-gradient-11" x1="1574.17" y1="208.56" x2="1610.98" y2="293.63" gradientUnits="userSpaceOnUse">
      <stop offset="0" stop-color="#645f4e"/>
      <stop offset="1" stop-color="#12303a"/>
    </linearGradient>
    <linearGradient id="linear-gradient-12" x1="1615.68" y1="279.19" x2="1659.68" y2="353.65" gradientUnits="userSpaceOnUse">
      <stop offset="0" stop-color="#5a5b4e"/>
      <stop offset="1" stop-color="#13343f"/>
    </linearGradient>
    <linearGradient id="linear-gradient-13" x1="851.28" y1="218.53" x2="869.5" y2="254.33" gradientUnits="userSpaceOnUse">
      <stop offset="0" stop-color="#5c5f4e"/>
      <stop offset="1" stop-color="#133a3d"/>
    </linearGradient>
  </defs>
  <g id="Layer_1-2" data-name="Layer 1">
    <g>
      <path class="cls-1" d="M367.52,430.43c-15.11-12.61-28.03-28.68-47.81-38.43-48.25-23.78-182.71-28.12-203.41-5.12-9.36,10.4-4.5,19.56,8.44,28.18,7.44,4.96,158.43,66.59,176.23,71.74,83.63,24.2,205.94,36.54,295.28,51.24-113.11-.05-226.22.17-339.33,0-13.05-8.5-63.18-15.47-80.62-12.81-11.57,1.76-15.6,4.51-18.75,12.81-25-.07-50,.13-74.99,0,84.36-55.14,40.69-66.8-8.44-122.98-13.52,6.57-52.75,4.05-74.05,5.12-.18-34.16.07-68.32,0-102.48,35.17-21.29,103.07-27.19,147.17-19.22,14.52,2.63,33.63,11.69,46.87,15.37,9.82,2.73,28.65,4.94,37.5,7.69,36.97,11.49,123.05,81.54,135.92,108.89Z"/>
      <path class="cls-3" d="M450.01,416.34c-4.3,6.37-5.92,9.67-7.5,16.65-.79,3.48-1.4,7.94-1.87,11.53-.45,3.37.35,6.87,0,10.25-1.32,12.89.87,36.71,0,43.56-2.57,20.14-4.95,12.54-63.74,1.28.8-23.16,1.05-47.02-9.37-69.18-12.87-27.35-98.95-97.4-135.92-108.89-8.85-2.75-27.67-4.96-37.5-7.69-13.24-3.68-32.35-12.75-46.87-15.37-44.1-7.98-112-2.08-147.17,19.22-.05-21.35.04-42.7,0-64.05,105.66,23.49,216.09,27.43,325.27,38.43,88.75,16.03,143.32,43.84,180.92,101.84,3.39,8.26-45.13,9.97-51.56,13.45-4.54,2.46-4,7.96-4.69,8.97Z"/>
      <path class="cls-21" d="M1179.3,495.77c10.17,13.06,13.65,27.69,15,42.27-82.49.03-164.98.02-247.47,0-.55-25.94,4.01-54.55-15-78.14q.47-1.92.94-3.84c68.21,23.62,69.52,5.66,118.11,3.84,44.37-1.66,105.67,6.66,128.42,35.87Z"/>
      <path class="cls-25" d="M1438.02,480.4c16.92,12.59,23.11,40.93,24.37,57.65-89.36.06-178.73-.03-268.09,0-1.35-14.58-4.82-29.21-15-42.27-2.89-13.28,28.83-.59,49.68-3.84,5.88-.92,75.36-29.14,89.99-30.75,31.81-3.5,96.01,2.07,119.05,19.22Z"/>
      <path class="cls-35" d="M82.56,538.04c-27.49-.14-55,.1-82.49,0-.16-39.28.21-78.57,0-117.86,21.3-1.07,60.54,1.45,74.05-5.12,49.12,56.19,92.8,67.84,8.44,122.98Z"/>
      <path class="cls-16" d="M1766.11,538.04c-101.23.31-202.48-.06-303.71,0-1.27-16.72-7.46-45.06-24.37-57.65,17.77,2.93,45.21,17.65,62.8,19.22,34.9,3.12,184.88-36.15,265.28,38.43Z"/>
      <path class="cls-23" d="M30.06,149.88c3.53,7,3.81,14.79,8.44,16.65,5.66,2.28,25.34-1.13,36.56,10.25-22.61-9.47-49.7-7.86-74.99-11.53-.02-15.8.01-31.6,0-47.4,23.25,4.02,23.61,19.38,30,32.03Z"/>
      <path class="cls-23" d="M1919.84,133.23c0,6.83,0,13.66,0,20.5-20.49-.69-41.43.94-61.87,0,4.55-6.24,23.32-5.39,16.87-14.09,14.68-2.58,30.12-4.33,44.99-6.41Z"/>
      <path class="cls-14" d="M256.91,538.04c-17.5-.03-35,.03-52.49,0q-14.06-6.41-28.12-12.81c17.43-2.66,67.56,4.31,80.62,12.81Z"/>
      <path class="cls-15" d="M176.3,525.23q14.06,6.41,28.12,12.81c-15.62-.03-31.25.05-46.87,0,3.15-8.3,7.18-11.05,18.75-12.81Z"/>
      <path class="cls-4" d="M1618,359.98c3.22,2.64,10.37,22.15,13.12,28.18,2.76,6.06,4.53,21.41,9.37,25.62-2.39,2.14-1.22,4.44,1.87,5.76-2.22,2.98-83.21-18.2-92.8-19.86-91.09-15.71-216.24-8.67-226.85-11.53-5.61-1.51-20.32-42.64-32.81-52.52,13.82-.34,41.74,16.21,55.31,17.93,19.94,2.53,106.17-11.98,168.73-10.25,17.86.5,93.36,7.89,104.05,16.65Z"/>
      <path class="cls-23" d="M643.11,157.57c-5.72,22.19,21.75,4.9,3.75,0,7.73-11.59,99.32-3.72,107.8,0,5.98,2.62,7.59,10.3,11.25,11.53,11.58,3.9,62.83-1.08,73.12,0,2.32.24,8.53,7.77,44.99,6.41,3.35-.13,15.66-3.77,16.87-3.84,48.97-2.8,37.98,5.07,0,7.69-62.95,4.34-126.78-9.18-133.11-7.69-6.61,1.56,4.94,5.95-13.12,6.41-10.18.26-101.2-7.04-119.05-8.97q1.41-4.48,2.81-8.97c-10.65,1.01-52.68-3.72-27.18,6.41.1.8-2.21,2.47-2.81,2.56-8.01,1.21-97.17-3.3-123.74-1.28,3.09-12.91-24.22-13.77-24.37,0-62.54-3.53-125.62-7.53-188.41-7.69-9.4-6.51-18.89-10.45-28.12-15.37,6.62.23,15.15.55,21.56,1.28,13.14,1.49,54.06,12.4,65.62,12.81,16.27.58,90.06-10.66,119.99-7.69,1.19.12,6.18,4.93,7.5,5.12,25.33,3.71,26.11-5.77,28.12-6.41,30.29-9.61,83.98,4.63,116.24,7.69,11.06,1.05,31.39-1.19,40.31,0Z"/>
      <path class="cls-24" d="M718.11,317.7c-.04,4.39,1.49,11.3,9.37,11.53-43.35,7.66-109.14,37.29-153.73,51.24,9.15-24.47,39.99-64.06,48.74-83.27,26.77,15.34,61.86,19.29,95.61,20.5Z"/>
      <g>
        <path class="cls-27" d="M622.49,297.2c-8.75,19.21-39.59,58.8-48.74,83.27-16.35,5.12-31.83,11.34-49.68,14.09-12.47-12.49-6.99-24.45-6.56-38.43.84-27,6.54-53.81,9.37-80.71,28.95-8.33,97.28-8.09,101.24,5.76.97,3.38-3.77,11.95-5.62,16.01Z"/>
        <path class="cls-22" d="M526.88,275.43c-2.84,26.9-8.54,53.71-9.37,80.71-6.72-1.23-2.74,10.74-3.75,22.42q-3.75-2.24-7.5-4.48c-17.41-28.18-29.24-84.3,20.62-98.64Z"/>
      </g>
      <g>
        <path class="cls-14" d="M986.2,310.02c-2.45,3.1-12.37-1.16-13.12,4.48,23.05,48.47,172.33,54.11,204.35,3.84q-12.19-1.6-24.37-3.2c38.53.66,108.57-1.9,136.86,20.5,12.49,9.89,27.2,51.01,32.81,52.52,10.61,2.85,135.76-4.18,226.85,11.53,9.59,1.65,90.59,22.84,92.8,19.86-3.09-1.33-4.26-3.63-1.87-5.76,7.68,6.68,111.1,19.82,120.92,16.65,4.48-1.44,1.73-5.59,3.75-6.41,3.14-1.27,12.3-2.33,15-3.84,14.72-8.25,36.05-31.37,34.68-44.84,41.29,1.88,83.4,12.9,104.99,38.43-.09,19.21.22,38.43,0,57.65-89.78-14.86-179.77-29.87-269.03-46.12-45.66-8.31-90.19-22.73-136.86-28.18-69.49-8.11-180.95-4.11-202.48-6.41-5.28-.56-56.15-15.78-74.99-19.22-90.53-16.52-186.04-9.95-275.59-17.93-55.1-4.91-167.95-29.17-215.6-24.34-56.39,5.72-160.06,56.32-221.22,69.18-1.94-.31-15.89-21.23-17.81-24.34q3.75,2.24,7.5,4.48c1.01-11.67-2.97-23.65,3.75-22.42-.43,13.98-5.91,25.94,6.56,38.43,17.85-2.75,33.33-8.98,49.68-14.09,44.59-13.96,110.38-43.58,153.73-51.24,55.87-9.87,81.28,11.1,89.99-14.73l-3.75-1.92c34.38-2.59,59.79-8.92,111.55-7.69,19.95.48,40.93,4.06,60.93,5.12Z"/>
        <path class="cls-23" d="M1012.45,312.58l-5.62,3.2c26.23,19.29,114.75,24.3,133.11-.64,4.37.08,8.75-.08,13.12,0q12.19,1.6,24.37,3.2c-32.02,50.26-181.3,44.62-204.35-3.84.76-5.64,10.68-1.38,13.12-4.48,8.66.46,17.39,2.1,26.25,2.56Z"/>
        <path class="cls-34" d="M1139.93,315.14c-18.36,24.94-106.88,19.93-133.11.64l5.62-3.2c45.7,2.4,82.56,1.74,127.48,2.56Z"/>
      </g>
      <g>
        <path class="cls-23" d="M1814.85,375.35c1.36,13.47-19.97,36.58-34.68,44.84-2.7,1.51-11.86,2.57-15,3.84-2.02.82.73,4.96-3.75,6.41-9.82,3.16-113.24-9.98-120.92-16.65-4.85-4.21-6.61-19.56-9.37-25.62,57.58,22.96,116.56,29.85,161.23-9.61-.39-2.09-15.46-2.84-18.75-3.2,13.67.46,27.61-.62,41.25,0Z"/>
        <path class="cls-34" d="M1623.62,358.7c1.2,9.09,63.31,24.75,75.93,25.62,12.82.88,61.95.94,59.06-10.25,4.79.32,10.29.76,15,1.28,3.29.36,18.35,1.11,18.75,3.2-44.67,39.46-103.65,32.57-161.23,9.61-2.75-6.04-9.9-25.54-13.12-28.18,2.03-.32,2.18-1.51,5.62-1.28Z"/>
        <path class="cls-20" d="M1758.61,374.07c2.89,11.19-46.24,11.13-59.06,10.25-12.62-.87-74.73-16.53-75.93-25.62,11.93.79,58.17,10.93,75.93,12.81,23.52,2.49,42,1.43,59.06,2.56Z"/>
      </g>
      <path class="cls-15" d="M813.72,312.58l3.75,1.92c-8.71,25.83-34.12,4.86-89.99,14.73-7.88-.23-9.41-7.14-9.37-11.53,34.26,1.23,63.28-2.69,95.61-5.12Z"/>
      <g>
        <path class="cls-26" d="M228.79,161.41c-58.92.68-67.15-5.56-74.99,10.25-2.03,4.1-13.44,45.61-13.12,48.04.14,1.06,3.7.51,3.75.64.67,1.6-1.2,5.44.94,6.41,45.66-1.36,37.25-6.26,39.37-6.41,20.59-1.37,94.8,12.28,81.55-5.12,29.75,19.99-51.84,8.09-79.68,8.97-.47.01-2.12,3.69-7.5,3.84-11.52.32-88.11,4.38-91.86,2.56-6.19-3,1.09-40.34-12.19-53.8-11.22-11.37-30.9-7.96-36.56-10.25-4.63-1.87-4.9-9.66-8.44-16.65,64.42,6.8,129.41-4.84,193.1-5.12-1.28,4.64-38.62,5.27-33.75,9.61,2.79,2.48,39.97-2.98,39.37,7.05Z"/>
        <path class="cls-38" d="M243.79,144.76c9.23,4.92,18.73,8.86,28.12,15.37-13.89-.04-28.96,1.12-43.12,1.28.6-10.03-36.58-4.56-39.37-7.05-4.88-4.34,32.47-4.97,33.75-9.61,6.82-.03,13.82-.24,20.62,0Z"/>
      </g>
      <path class="cls-22" d="M1857.97,153.73c-57.44-2.64-8.43-9.65,16.87-14.09,6.45,8.7-12.33,7.85-16.87,14.09Z"/>
      <g>
        <path class="cls-14" d="M376.9,499.61c58.79,11.26,61.17,18.86,63.74-1.28,77.56,10.18,114.38-29.23,140.61-72.38q-9.37-.32-18.75-.64c35.5-2.25,71.25-5.23,106.86-6.41-8.9,23.64,98.7,56.57,135.92,47.4,13.91-3.43,30.1-29.04,30.93-39.07q-6.56-2.88-13.12-5.76c37.96,4.16,88.83,13.72,108.74,38.43,19.01,23.6,14.45,52.21,15,78.14-116.86-.03-233.72.05-350.58,0-89.33-14.7-211.65-27.04-295.28-51.24-17.8-5.15-168.79-66.78-176.23-71.74-12.94-8.62-17.8-17.79-8.44-28.18-3.81,7.32-2.1,14.73,3.75,21.14,6.06,6.63,161.19,70.54,180.92,76.22,23.77,6.85,51.08,10.61,75.93,15.37Z"/>
        <path class="cls-31" d="M562.5,425.31q9.37.32,18.75.64c-26.22,43.15-63.05,82.56-140.61,72.38.87-6.84-1.32-30.67,0-43.56,35.72,3.94,85.98-3.17,101.24-26.9,6.47-.43,14.07-2.15,20.62-2.56Z"/>
        <path class="cls-14" d="M821.22,421.47c.61.06,1.27-.07,1.87,0q6.56,2.88,13.12,5.76c-.84,10.03-17.03,35.65-30.93,39.07-37.22,9.17-144.82-23.76-135.92-47.4.62-.02,1.25.02,1.87,0,26.63.07,21.78,8.54,36.56,15.37,32.06,14.84,104.14,23.02,113.42-12.81Z"/>
        <path class="cls-6" d="M821.22,421.47c-9.29,35.83-81.36,27.65-113.42,12.81-14.77-6.84-9.92-15.3-36.56-15.37,49.96-1.56,100.36-2.61,149.98,2.56Z"/>
        <path class="cls-6" d="M541.88,427.87c-15.26,23.73-65.51,30.84-101.24,26.9.35-3.38-.45-6.88,0-10.25,24.02.7,75.73-.82,73.12-15.37,9.28-.58,18.91-.67,28.12-1.28Z"/>
        <path class="cls-34" d="M513.76,429.15c2.61,14.56-49.09,16.07-73.12,15.37.48-3.59,1.09-8.04,1.87-11.53,12.99-.57,26.45-1.99,39.37-2.56,10.79-.48,20.99-.6,31.87-1.28Z"/>
        <path class="cls-8" d="M481.88,430.43c-12.92.57-26.38,1.99-39.37,2.56,1.58-6.98,3.2-10.29,7.5-16.65q15.94,7.05,31.87,14.09Z"/>
      </g>
      <path class="cls-28" d="M635.62,169.1c-10.56-1.14-14.6,1.32-24.37-2.56-25.5-10.12,16.53-5.4,27.18-6.41q-1.41,4.48-2.81,8.97Z"/>
      <g>
        <path class="cls-23" d="M266.29,215.22c13.25,17.4-60.96,3.75-81.55,5.12-2.12.14,6.29,5.05-39.37,6.41-2.13-.97-.27-4.81-.94-6.41q6.56-23.06,13.12-46.12c4.72,1.42,32.3,5.73,33.75,8.33.93,1.67-12.73,29.66-8.44,35.23q41.71-1.28,83.43-2.56Z"/>
        <path class="cls-38" d="M157.55,174.22q-6.56,23.06-13.12,46.12c-.05-.13-3.61.42-3.75-.64-.32-2.43,11.09-43.94,13.12-48.04,2.77.11.73,1.66,3.75,2.56Z"/>
      </g>
      <path class="cls-38" d="M646.86,157.57c18,4.9-9.47,22.19-3.75,0,1.24.17,3.02-.2,3.75,0Z"/>
      <path class="cls-33" d="M367.52,430.43c10.43,22.16,10.17,46.01,9.37,69.18-24.85-4.76-52.16-8.52-75.93-15.37-19.72-5.68-174.86-69.59-180.92-76.22-5.85-6.41-7.56-13.82-3.75-21.14,20.7-23,155.16-18.66,203.41,5.12,19.78,9.75,32.69,25.82,47.81,38.43Z"/>
      <g>
        <path class="cls-1" d="M1919.84,1.28c-.03,43.98.05,87.97,0,131.95-14.87,2.08-30.32,3.83-44.99,6.41-25.3,4.44-74.31,11.45-16.87,14.09,20.44.94,41.37-.69,61.87,0-.1,86.68.41,173.37,0,260.05-21.59-25.53-63.69-36.55-104.99-38.43-13.63-.62-27.58.46-41.25,0-4.71-.52-10.21-.96-15-1.28-17.05-1.13-35.53-.07-59.06-2.56-17.76-1.88-64-12.02-75.93-12.81-3.45-.23-3.59.96-5.62,1.28-10.69-8.77-86.19-16.16-104.05-16.65-62.56-1.74-148.79,12.78-168.73,10.25-13.57-1.72-41.49-18.28-55.31-17.93-28.28-22.39-98.33-19.83-136.86-20.5-4.37-.08-8.75.08-13.12,0-44.92-.82-81.78-.16-127.48-2.56-8.86-.47-17.59-2.1-26.25-2.56-20-1.06-40.98-4.65-60.93-5.12-51.76-1.24-77.17,5.1-111.55,7.69-32.33,2.44-61.36,6.35-95.61,5.12-33.75-1.21-68.84-5.16-95.61-20.5,1.85-4.07,6.59-12.63,5.62-16.01-3.96-13.86-72.28-14.09-101.24-5.76-49.86,14.34-38.03,70.46-20.62,98.64,1.92,3.11,15.87,24.03,17.81,24.34,61.16-12.86,164.83-63.46,221.22-69.18,47.65-4.83,160.5,19.43,215.6,24.34,89.55,7.98,185.06,1.42,275.59,17.93,18.84,3.44,69.72,18.65,74.99,19.22,21.53,2.3,132.99-1.71,202.48,6.41,46.67,5.45,91.2,19.87,136.86,28.18,89.26,16.24,179.25,31.26,269.03,46.12-.25,22.2.19,44.41,0,66.61-51.24.12-102.49-.16-153.73,0-80.4-74.58-230.38-35.32-265.28-38.43-17.59-1.57-45.04-16.29-62.8-19.22-23.04-17.15-87.24-22.71-119.05-19.22-14.63,1.61-84.11,29.83-89.99,30.75-20.86,3.26-52.57-9.43-49.68,3.84-22.75-29.21-84.05-37.53-128.42-35.87-48.59,1.81-49.9,19.77-118.11-3.84q-.47,1.92-.94,3.84c-19.91-24.71-70.77-34.27-108.74-38.43-.61-.07-1.26.06-1.87,0-49.62-5.17-100.02-4.12-149.98-2.56-.62.02-1.25-.02-1.87,0-35.61,1.17-71.36,4.15-106.86,6.41-6.55.42-14.15,2.13-20.62,2.56-9.21.61-18.84.7-28.12,1.28-10.88.68-21.08.81-31.87,1.28q-15.94-7.05-31.87-14.09c.68-1.01.15-6.51,4.69-8.97,6.43-3.48,54.94-5.2,51.56-13.45-37.59-58.01-92.17-85.81-180.92-101.84-109.18-11-219.62-14.95-325.27-38.43-.02-9.39.01-18.79,0-28.18,20.81-1.33,57.79-.89,74.99-2.56,10.51-1.02,10.45-1.86,0-2.56-25.21-1.7-50.08-3.05-74.99-6.41-.02-16.23.02-32.45,0-48.68,25.29,3.67,52.38,2.06,74.99,11.53,13.28,13.47,5.99,50.81,12.19,53.8,3.75,1.82,80.34-2.24,91.86-2.56,5.38-.15,7.03-3.83,7.5-3.84,27.84-.88,109.42,11.02,79.68-8.97q-41.71,1.28-83.43,2.56c-4.29-5.57,9.37-33.56,8.44-35.23-1.45-2.6-29.03-6.91-33.75-8.33-3.02-.91-.98-2.45-3.75-2.56,7.84-15.81,16.07-9.57,74.99-10.25,14.16-.16,29.23-1.32,43.12-1.28,62.79.16,125.87,4.15,188.41,7.69.15-13.77,27.47-12.91,24.37,0,26.56-2.02,115.73,2.49,123.74,1.28.6-.09,2.91-1.76,2.81-2.56,9.77,3.88,13.82,1.42,24.37,2.56,17.84,1.93,108.86,9.22,119.05,8.97,18.06-.45,6.51-4.85,13.12-6.41,6.33-1.49,70.16,12.03,133.11,7.69,37.98-2.62,48.97-10.48,0-7.69-1.21.07-13.52,3.72-16.87,3.84-36.47,1.36-42.67-6.16-44.99-6.41-10.28-1.08-61.53,3.9-73.12,0-3.66-1.23-5.27-8.91-11.25-11.53-8.48-3.72-100.07-11.59-107.8,0-.73-.2-2.51.17-3.75,0-8.91-1.19-29.24,1.05-40.31,0-32.26-3.06-85.95-17.29-116.24-7.69-2.01.64-2.79,10.12-28.12,6.41-1.32-.19-6.31-5.01-7.5-5.12-29.93-2.98-103.72,8.27-119.99,7.69-11.55-.41-52.47-11.32-65.62-12.81-6.41-.73-14.94-1.05-21.56-1.28-6.8-.24-13.8-.03-20.62,0-63.69.29-128.68,11.93-193.1,5.12-6.38-12.65-6.74-28-30-32.03C.03,79.85.09,41.85.07,3.84l1510.13,1.28,6.56-5.12c134.28,3.24,268.76.23,403.08,1.28Z"/>
        <g>
          <g>
            <path class="cls-23" d="M1541.13,199.84c-1.88,14.27,2.52,30.12,0,44.2-.77,4.33-5.47,10.32-5.62,10.89-1.97-6.15-22.19-27.91-27.18-29.46-8.26-2.56-89.86-5.96-104.99-6.41-24.43-.72-113.75,2.61-126.55-2.56-8.46-3.42-24.92-24.29-31.87-30.75-.93-5.89-14.48-30.38-21.56-33.31-5.66-2.34-48.78-8.04-59.06-8.97q-.94-10.25-1.87-20.5c45.85.95,148.7-12.07,125.61,37.79,26.94,17.18,68.38,6.92,102.18,10.89,7.02.82,34.36,9.13,50.62,11.53,22.61,3.34,55.07,5.23,74.99,8.97,8.18,1.54,17.39,6.09,25.31,7.69Z"/>
            <path class="cls-13" d="M1689.24,252.37c-11.04,3.38-48.12-.49-50.62,1.92-2.78,2.68.66,45.51-6.56,48.04-5.05,1.77-99.24.21-113.42,0,5.14-15,10.56-29.71,15-44.84.35-1.19,1.56-1.38,1.87-2.56.15-.57,4.85-6.56,5.62-10.89,2.52-14.08-1.88-29.93,0-44.2,50.38,10.17,48.56,14.11,124.67,11.53,21.8,17.7-38.45,1.28-27.18,40.35,1.46,1.41,43.8.56,50.62.64Z"/>
          </g>
          <path class="cls-2" d="M1421.15,270.3c-12.02,4.36-25.82,1.15-28.12,13.45,60.14,22.19,68.98,17.72,125.61,18.58,14.18.21,108.38,1.77,113.42,0,7.22-2.53,3.79-45.36,6.56-48.04,2.5-2.41,39.58,1.45,50.62-1.92,21.2.26,169.45-5.95,149.98,24.98-5.89,4.49-13.3,8.7-21.56,10.89-6.05,1.6-121.02,16.25-127.48,16.65-18.57,1.15-224.56,1.28-236.22,0-6.79-.74-50.87-14.83-64.68-18.58,3.96-17.97,21.22-14.45,31.87-16.01Z"/>
          <path class="cls-37" d="M1533.63,257.49c-4.44,15.13-9.86,29.84-15,44.84-56.63-.85-65.47,3.62-125.61-18.58,2.3-12.3,16.1-9.1,28.12-13.45,37.04-5.43,75.49-6.97,112.49-12.81Z"/>
          <path class="cls-23" d="M1036.82,122.98c.87,3.32.55,10.82-1.87,14.09-16.63-1.36-38.66-1.76-40.31-2.56-5.28-2.56,7-47.34-7.5-1.28q-46.87-1.92-93.74-3.84c-4.95-7.91,2.26-22.18,15-24.34,3.82-.65,73.74-.56,78.74,0,2.13.24,3.44,4.83,5.62,5.12,14.53,1.93,40.32-1.47,44.06,12.81Z"/>
          <path class="cls-11" d="M844.65,106.33c25.88-.02,50.91.72,39.37,23.06-31.75,1.59-51.58-4.96-54.37-5.12-8.85-.54-6.4,2.64-7.5,2.56-9.59-.64-81.65-6.98-83.43-9.61-11.83-17.48,78.25-7.18,90.93-7.05.8,0,9.46-3.84,15-3.84Z"/>
          <path class="cls-37" d="M1518.63,99.92q.94.64,1.87,1.28c-2.42,1.77-1.38,4.74-2.81,5.12-50-3.23-154-2.68-193.1-6.41-7.34-.7-13.39-4.47-11.25-8.97,9.73,2.93,10.55-3.32,18.75-3.84,2.43-.15,33.91,2.66,48.74,1.28,15.09,15.14,31.94,7.35,37.5,7.69,1.93.12,5.16,3.81,37.5,3.84,28.5.03,28.25-7.22,62.8,0Z"/>
          <path class="cls-23" d="M1117.43,122.98c3.06,2.05,7.33,16.2,8.44,16.65,3.15,1.3,26.27-.87,25.31,3.84-33.6-2.74-67.68-2.75-101.24-5.12q2.81-7.69,5.62-15.37c.23-.02,1.37-2.48,2.81-2.56,20.05-1.17,39.45,2.33,59.06,2.56Z"/>
          <g>
            <path class="cls-19" d="M916.83,216.5c34.37-.2-3.15,37.7-6.56,38.43-7.75,1.66-95.82-1.24-118.11,0-5.47-20.33,6.01-30.42,6.56-32.03,31.5,1.61,95.24-7.05,118.11-6.41Z"/>
            <g>
              <path class="cls-14" d="M798.72,222.9c-.55,1.61-12.04,11.69-6.56,32.03,22.29-1.24,110.36,1.66,118.11,0,3.41-.73,40.93-38.63,6.56-38.43,10.07.29,21.58,1.56,20.62,10.89-.17,1.7-21.11,29.48-23.43,30.1-10.13,2.72-207.68-.6-217.47-3.84-4.07-1.35-2.45-4.78-2.81-5.12l7.5,1.92c-2.11-20.46,12.77-49.43,5.62-64.69,19.26-2.63,98.43,15.54,99.36,19.86.19.89-6.4,14.06-7.5,17.29Z"/>
              <path class="cls-15" d="M706.86,185.75c7.15,15.26-7.74,44.23-5.62,64.69l-7.5-1.92c-14.79-13.79-22.21-57.94,13.12-62.77Z"/>
            </g>
          </g>
          <path class="cls-22" d="M1162.43,122.98q.94,10.25,1.87,20.5c-4.2-.38-8.9.34-13.12,0,.96-4.72-22.16-2.54-25.31-3.84-1.1-.46-5.38-14.6-8.44-16.65,14.98.18,30.03-.31,44.99,0Z"/>
          <path class="cls-23" d="M1213.98,88.39c7.42-.22,24.82,7.6,26.25,7.69,6.28.38,37.35-9.26,64.68-1.92l-2.81,4.48q-74.99-.64-149.98-1.28v-2.56c31.57,1.75,58.7-6.31,61.87-6.41Z"/>
          <path class="cls-22" d="M1276.79,216.5c-58.04,4.47-27.62-3.68-31.87-30.75,6.95,6.45,23.42,27.33,31.87,30.75Z"/>
          <path class="cls-15" d="M1602.06,62.77q10.31,1.28,20.62,2.56c7.38,10.99-6.61,3.81-7.5,3.84-77.36,2.54-121.62-3.88-13.12-6.41Z"/>
          <path class="cls-37" d="M565.31,52.52c27.82-1.65,83.2,4.28,48.74,6.41-16.31,1.01-34.77-5.62-52.49-3.84-5.25.53-15,5.7-22.5,6.41-19.31,1.8-60.88-3.19-26.25-5.12,11.35-.63,24.05,2.07,35.62,1.28,1.59-.11,12.17-4.85,16.87-5.12Z"/>
          <path class="cls-36" d="M820.28,62.77c13.08-.65,21.94,2.38,31.87,2.56,25.94.47,56.39-2.37,81.55,1.92-42.9,1.22-85.91,2.8-128.42-1.92,1.64-.95,13.66-2.5,15-2.56Z"/>
          <g>
            <path class="cls-23" d="M1633,166.54q-3.75-13.45-7.5-26.9c51.44,4.69,109.05-3.69,91.86,32.67-2.77,12.36-68.77,5.67-72.18,4.48-4.72-1.64-2.49-7.48-12.19-10.25Z"/>
            <path class="cls-23" d="M1608.62,138.35q3.75,12.81,7.5,25.62c-46.8-7.91-99.21-8.39-146.23-16.01,18.18-13.47,94.21-18.31,117.17-16.01,12.91,1.29,17.52,6.04,21.56,6.41Z"/>
            <path class="cls-12" d="M1625.5,139.63q3.75,13.45,7.5,26.9c-.8-.23-13.18-1.94-16.87-2.56q-3.75-12.81-7.5-25.62c5.61.51,11.12.76,16.87,1.28Z"/>
          </g>
          <g>
            <path class="cls-22" d="M1760.48,221.62c-4.03-1.06-12.81-.06-13.12-4.48,4.14-10.39,6.01-9.8,18.75-13.45,30.16,10.53,10.44,11.3,9.37,12.17-1.21.99,8.88,6.45-15,5.76Z"/>
            <path class="cls-23" d="M1760.48,221.62c23.87.69,13.79-4.78,15-5.76,1.07-.87,20.79-1.64-9.37-12.17,4.78-1.37,38.23-8.33,37.5-4.48-28.13,22.16-20.12,28.46-43.12,22.42Z"/>
          </g>
          <g>
            <path class="cls-23" d="M997.45,248.52c-4.7-5.96-1.43-9.48,0-15.37q.94,3.52,1.87,7.05c22.68-15.82,61.14-24.68,35.62-27.54,32.37-2.03,95.09,0,123.74,10.89-.01,4.13-77.51,9.8-92.8,12.17-23.41,3.63-43.94,9.85-68.43,12.81Z"/>
            <path class="cls-37" d="M1034.94,212.66c25.52,2.87-12.94,11.72-35.62,27.54q-.94-3.52-1.87-7.05c1.32-5.42,3.72-11.7,7.5-16.65,4.73-1.13,24.33-3.49,30-3.84Z"/>
            <path class="cls-32" d="M997.45,233.15c-1.43,5.89-4.7,9.41,0,15.37-1.74.21-3.8,2.14-11.25,2.56q.94-13.45,1.87-26.9c5.3-3.8,9.58-5.94,16.87-7.69-3.78,4.96-6.18,11.23-7.5,16.65Z"/>
            <path class="cls-12" d="M986.2,251.09c-13.22.75-20.74,2.89-18.75-1.92,8.68-8.74,9.47-16.99,20.62-24.98q-.94,13.45-1.87,26.9Z"/>
          </g>
          <path class="cls-12" d="M1055.57,122.98q-2.81,7.69-5.62,15.37c-4.97-.35-10-.87-15-1.28,2.42-3.27,2.74-10.77,1.87-14.09,4.08-2.03,9.63.77,18.75,0Z"/>
          <path class="cls-17" d="M1782.98,53.8v1.28c-122.26,2.75-119.74-2.31,0-1.28Z"/>
          <path class="cls-30" d="M729.35,62.77v2.56c-27.43-1.16-55.17-4.9-82.49-7.05.02-3.4,63.31,3.81,82.49,4.48Z"/>
          <path class="cls-30" d="M390.96,53.8c92.77.76,96.01,5.71,0,2.56v-2.56Z"/>
          <path class="cls-37" d="M1534.57,102.48c49.6.52,42.61,4.58-3.75,5.12l3.75-5.12Z"/>
          <path class="cls-36" d="M1403.34,66.61c50.07-1.64,41.87,6.62-22.5,2.56,6.42-1.12,16.1-2.35,22.5-2.56Z"/>
          <path class="cls-17" d="M1647.06,67.9c69.13,3.2,69.72,8.66,18.75,5.12-8.39-.58-31.83-4.31-18.75-5.12Z"/>
          <path class="cls-30" d="M1697.68,93.52q29.53.96,59.06,1.92c-19.27.25-41.31,3.01-59.06-1.92Z"/>
          <path class="cls-9" d="M1633.93,55.09c7.6-.82,38.43.61,38.43,1.92-12.64,4.26-64.36.88-38.43-1.92Z"/>
          <path class="cls-31" d="M729.35,65.33v-2.56c5.75.2,11.68-1.98,21.56-1.28,25.17,1.78,9.1,5.14-21.56,3.84Z"/>
          <path class="cls-30" d="M173.48,60.21c11.85-1.32,32.3,2.07,45.93,1.92-38.01,2.89-75.28,1.35-45.93-1.92Z"/>
          <path class="cls-37" d="M1647.06,92.24c29.41-3.8,44.65,6.19,5.62,3.84-6.19-.37-18.76-2.14-5.62-3.84Z"/>
          <path class="cls-28" d="M242.85,56.37c5.55.09,8.92,3.2,21.56,3.2-14.53,3.85-49.98-3.66-21.56-3.2Z"/>
          <path class="cls-18" d="M1782.98,55.09v-1.28c40.27.35,36.75.45,0,1.28Z"/>
          <g>
            <path class="cls-5" d="M75.06,220.34v2.56c-17.2,1.67-54.18,1.23-74.99,2.56,0-3.84,0-7.69,0-11.53,24.91,3.36,49.78,4.7,74.99,6.41Z"/>
            <path class="cls-29" d="M75.06,222.9v-2.56c10.45.71,10.51,1.54,0,2.56Z"/>
          </g>
          <path class="cls-17" d="M1520.51,101.2q-.94-.64-1.87-1.28c4.5.94,7-2.08,7.5-.64,1.04,3.03-5.1,1.54-5.62,1.92Z"/>
          <g>
            <path class="cls-23" d="M731.23,112.73c-8.79-3.03-8.07-1.18-3.75,3.84-46.96,2.7-161.87-12.22-223.1-10.89,13.73-.85,51.86-6.08,59.06-5.76,2.34.1,31.92,9.55,44.99,6.41.99-.24-11.33-2.45,13.12-3.84.8-.05,2.92-2.5,3.75-2.56.47-.03,6.05,3.93,7.5,3.84,1.85-.11,1.8-4.65,35.62-3.84,28.08.67,37.37,6.05,39.37,6.41,8.73,1.55,34.07.65,23.43,6.41Z"/>
            <path class="cls-7" d="M731.23,112.73c11.72,4.94-.61,3.66-3.75,3.84-4.32-5.02-5.04-6.87,3.75-3.84Z"/>
            <path class="cls-10" d="M632.8,107.61l.94.64v1.28l-.94.64h-1.87l-.94-.64.94-.64.94-.64.94-.64Z"/>
          </g>
        </g>
      </g>
    </g>
  </g>
</svg>