<?xml version="1.0" encoding="UTF-8"?>
<svg id="Layer_2" data-name="Layer 2" xmlns="http://www.w3.org/2000/svg" xmlns:xlink="http://www.w3.org/1999/xlink" viewBox="0 0 726.55 409.41">
  <defs>
    <style>
      .cls-1 {
        fill: url(#radial-gradient-35);
      }

      .cls-1, .cls-2, .cls-3, .cls-4, .cls-5, .cls-6, .cls-7, .cls-8, .cls-9, .cls-10, .cls-11, .cls-12, .cls-13, .cls-14, .cls-15, .cls-16, .cls-17, .cls-18, .cls-19, .cls-20, .cls-21, .cls-22, .cls-23, .cls-24, .cls-25, .cls-26, .cls-27, .cls-28, .cls-29, .cls-30, .cls-31, .cls-32, .cls-33, .cls-34, .cls-35, .cls-36, .cls-37, .cls-38, .cls-39, .cls-40, .cls-41, .cls-42, .cls-43 {
        stroke-width: 0px;
      }

      .cls-1, .cls-2, .cls-3, .cls-4, .cls-5, .cls-6, .cls-7, .cls-8, .cls-9, .cls-10, .cls-11, .cls-12, .cls-13, .cls-14, .cls-15, .cls-16, .cls-17, .cls-18, .cls-19, .cls-20, .cls-21, .cls-22, .cls-23, .cls-24, .cls-25, .cls-26, .cls-27, .cls-28, .cls-29, .cls-30, .cls-31, .cls-32, .cls-33, .cls-34, .cls-35, .cls-36, .cls-37, .cls-38, .cls-40, .cls-41, .cls-42, .cls-43 {
        opacity: .5;
      }

      .cls-2 {
        fill: url(#radial-gradient-5);
      }

      .cls-3 {
        fill: url(#radial-gradient-23);
      }

      .cls-4 {
        fill: url(#radial-gradient-22);
      }

      .cls-5 {
        fill: url(#radial-gradient-3);
      }

      .cls-6 {
        fill: url(#radial-gradient);
      }

      .cls-7 {
        fill: url(#radial-gradient-39);
      }

      .cls-8 {
        fill: url(#radial-gradient-27);
      }

      .cls-9 {
        fill: url(#radial-gradient-16);
      }

      .cls-10 {
        fill: url(#radial-gradient-4);
      }

      .cls-11 {
        fill: url(#radial-gradient-41);
      }

      .cls-12 {
        fill: url(#radial-gradient-42);
      }

      .cls-13 {
        fill: url(#radial-gradient-32);
      }

      .cls-14 {
        fill: url(#radial-gradient-37);
      }

      .cls-15 {
        fill: url(#radial-gradient-20);
      }

      .cls-16 {
        fill: url(#radial-gradient-18);
      }

      .cls-17 {
        fill: url(#radial-gradient-12);
      }

      .cls-18 {
        fill: url(#radial-gradient-28);
      }

      .cls-19 {
        fill: url(#radial-gradient-21);
      }

      .cls-20 {
        fill: url(#radial-gradient-7);
      }

      .cls-21 {
        fill: url(#radial-gradient-9);
      }

      .cls-22 {
        fill: url(#radial-gradient-31);
      }

      .cls-23 {
        fill: url(#radial-gradient-36);
      }

      .cls-24 {
        fill: url(#radial-gradient-38);
      }

      .cls-25 {
        fill: url(#radial-gradient-19);
      }

      .cls-26 {
        fill: url(#radial-gradient-40);
      }

      .cls-27 {
        fill: url(#radial-gradient-15);
      }

      .cls-28 {
        fill: url(#radial-gradient-13);
      }

      .cls-29 {
        fill: url(#radial-gradient-8);
      }

      .cls-30 {
        fill: url(#radial-gradient-6);
      }

      .cls-31 {
        fill: url(#radial-gradient-30);
      }

      .cls-32 {
        fill: url(#radial-gradient-17);
      }

      .cls-33 {
        fill: url(#radial-gradient-26);
      }

      .cls-34 {
        fill: url(#radial-gradient-11);
      }

      .cls-35 {
        fill: url(#radial-gradient-2);
      }

      .cls-36 {
        fill: url(#radial-gradient-24);
      }

      .cls-37 {
        fill: url(#radial-gradient-14);
      }

      .cls-38 {
        fill: url(#radial-gradient-34);
      }

      .cls-39 {
        fill: #fffaef;
      }

      .cls-40 {
        fill: url(#radial-gradient-25);
      }

      .cls-41 {
        fill: url(#radial-gradient-33);
      }

      .cls-42 {
        fill: url(#radial-gradient-29);
      }

      .cls-43 {
        fill: url(#radial-gradient-10);
      }
    </style>
    <radialGradient id="radial-gradient" cx="240.68" cy="78.11" fx="240.68" fy="78.11" r="5.75" gradientUnits="userSpaceOnUse">
      <stop offset="0" stop-color="#fff"/>
      <stop offset=".05" stop-color="rgba(255, 255, 255, .88)" stop-opacity=".88"/>
      <stop offset=".15" stop-color="rgba(255, 255, 255, .68)" stop-opacity=".68"/>
      <stop offset=".26" stop-color="rgba(255, 255, 255, .5)" stop-opacity=".5"/>
      <stop offset=".37" stop-color="rgba(255, 255, 255, .34)" stop-opacity=".34"/>
      <stop offset=".48" stop-color="rgba(255, 255, 255, .22)" stop-opacity=".22"/>
      <stop offset=".6" stop-color="rgba(255, 255, 255, .12)" stop-opacity=".12"/>
      <stop offset=".72" stop-color="rgba(255, 255, 255, .05)" stop-opacity=".05"/>
      <stop offset=".85" stop-color="rgba(255, 255, 255, .01)" stop-opacity=".01"/>
      <stop offset="1" stop-color="#fff" stop-opacity="0"/>
      <stop offset="1" stop-color="#272525" stop-opacity="0"/>
    </radialGradient>
    <radialGradient id="radial-gradient-2" cx="27.44" cy="126.86" fx="27.44" fy="126.86" r="5.75" xlink:href="#radial-gradient"/>
    <radialGradient id="radial-gradient-3" cx="60.38" cy="54.07" fx="60.38" fy="54.07" r="5.75" xlink:href="#radial-gradient"/>
    <radialGradient id="radial-gradient-4" cx="588.06" cy="11.56" fx="588.06" fy="11.56" r="5.75" xlink:href="#radial-gradient"/>
    <radialGradient id="radial-gradient-5" cx="718.21" cy="99.49" fx="718.21" fy="99.49" r="5.75" xlink:href="#radial-gradient"/>
    <radialGradient id="radial-gradient-6" cx="131.41" cy="308.1" fx="131.41" fy="308.1" r="5.75" xlink:href="#radial-gradient"/>
    <radialGradient id="radial-gradient-7" cx="252.98" cy="302.42" fx="252.98" fy="302.42" r="5.75" xlink:href="#radial-gradient"/>
    <radialGradient id="radial-gradient-8" cx="232.38" cy="320" fx="232.38" fy="320" r="5.75" xlink:href="#radial-gradient"/>
    <radialGradient id="radial-gradient-9" cx="589.42" cy="78.66" fx="589.42" fy="78.66" r="5.75" xlink:href="#radial-gradient"/>
    <radialGradient id="radial-gradient-10" cx="211.61" cy="90.55" fx="211.61" fy="90.55" r="5.75" xlink:href="#radial-gradient"/>
    <radialGradient id="radial-gradient-11" cx="536.23" cy="237.43" fx="536.23" fy="237.43" r="2.89" xlink:href="#radial-gradient"/>
    <radialGradient id="radial-gradient-12" cx="488.31" cy="148.49" fx="488.31" fy="148.49" r="2.89" xlink:href="#radial-gradient"/>
    <radialGradient id="radial-gradient-13" cx="397.41" cy="207.02" fx="397.41" fy="207.02" r="2.89" xlink:href="#radial-gradient"/>
    <radialGradient id="radial-gradient-14" cx="403.53" cy="280.21" fx="403.53" fy="280.21" r="2.89" xlink:href="#radial-gradient"/>
    <radialGradient id="radial-gradient-15" cx="293.98" cy="10.97" fx="293.98" fy="10.97" r="2.89" xlink:href="#radial-gradient"/>
    <radialGradient id="radial-gradient-16" cx="131.99" cy="6.81" fx="131.99" fy="6.81" r="2.89" xlink:href="#radial-gradient"/>
    <radialGradient id="radial-gradient-17" cx="419.24" cy="10.7" fx="419.24" fy="10.7" r="2.89" xlink:href="#radial-gradient"/>
    <radialGradient id="radial-gradient-18" cx="231.86" cy="62.19" fx="231.86" fy="62.19" r="2.89" xlink:href="#radial-gradient"/>
    <radialGradient id="radial-gradient-19" cx="573.91" cy="58.03" fx="573.91" fy="58.03" r="2.89" xlink:href="#radial-gradient"/>
    <radialGradient id="radial-gradient-20" cx="596.99" cy="200.58" fx="596.99" fy="200.58" r="2.89" xlink:href="#radial-gradient"/>
    <radialGradient id="radial-gradient-21" cx="693.59" cy="255.83" fx="693.59" fy="255.83" r="2.89" xlink:href="#radial-gradient"/>
    <radialGradient id="radial-gradient-22" cx="642.77" cy="118.49" fx="642.77" fy="118.49" r="2.89" xlink:href="#radial-gradient"/>
    <radialGradient id="radial-gradient-23" cx="718.51" cy="4.2" fx="718.51" fy="4.2" r="2.89" xlink:href="#radial-gradient"/>
    <radialGradient id="radial-gradient-24" cx="164.01" cy="188.12" fx="164.01" fy="188.12" r="2.89" xlink:href="#radial-gradient"/>
    <radialGradient id="radial-gradient-25" cx="125.63" cy="266.95" fx="125.63" fy="266.95" r="2.89" xlink:href="#radial-gradient"/>
    <radialGradient id="radial-gradient-26" cx="166.87" cy="43.48" fx="166.87" fy="43.48" r="2.89" xlink:href="#radial-gradient"/>
    <radialGradient id="radial-gradient-27" cx="349.1" cy="79.18" fx="349.1" fy="79.18" r="2.89" xlink:href="#radial-gradient"/>
    <radialGradient id="radial-gradient-28" cx="52.11" cy="64.81" fx="52.11" fy="64.81" r="2.89" xlink:href="#radial-gradient"/>
    <radialGradient id="radial-gradient-29" cx="56.27" cy="255.83" fx="56.27" fy="255.83" r="2.89" xlink:href="#radial-gradient"/>
    <radialGradient id="radial-gradient-30" cx="4.14" cy="320.98" fx="4.14" fy="320.98" r="2.89" xlink:href="#radial-gradient"/>
    <radialGradient id="radial-gradient-31" cx="509.05" cy="43.2" fx="509.05" fy="43.2" r="2.89" xlink:href="#radial-gradient"/>
    <radialGradient id="radial-gradient-32" cx="429.18" cy="75.02" fx="429.18" fy="75.02" r="2.89" xlink:href="#radial-gradient"/>
    <radialGradient id="radial-gradient-33" cx="243.75" cy="229.11" fx="243.75" fy="229.11" r="2.89" xlink:href="#radial-gradient"/>
    <radialGradient id="radial-gradient-34" cx="317.3" cy="391.85" fx="317.3" fy="391.85" r="2.89" xlink:href="#radial-gradient"/>
    <radialGradient id="radial-gradient-35" cx="575.99" cy="34.03" fx="575.99" fy="34.03" r="2.89" xlink:href="#radial-gradient"/>
    <radialGradient id="radial-gradient-36" cx="399.9" cy="373.77" fx="399.9" fy="373.77" r="2.89" xlink:href="#radial-gradient"/>
    <radialGradient id="radial-gradient-37" cx="588.36" cy="291.86" fx="588.36" fy="291.86" r="2.89" xlink:href="#radial-gradient"/>
    <radialGradient id="radial-gradient-38" cx="439.99" cy="405.28" fx="439.99" fy="405.28" r="2.89" xlink:href="#radial-gradient"/>
    <radialGradient id="radial-gradient-39" cx="387.78" cy="192.32" fx="387.78" fy="192.32" r="5.75" xlink:href="#radial-gradient"/>
    <radialGradient id="radial-gradient-40" cx="540.35" cy="319.99" fx="540.35" fy="319.99" r="5.75" xlink:href="#radial-gradient"/>
    <radialGradient id="radial-gradient-41" cx="706.02" cy="349.03" fx="706.02" fy="349.03" r="5.75" xlink:href="#radial-gradient"/>
    <radialGradient id="radial-gradient-42" cx="706.58" cy="237.74" fx="706.58" fy="237.74" r="5.75" xlink:href="#radial-gradient"/>
  </defs>
  <g id="BACKGROUND_2" data-name="BACKGROUND 2">
    <g>
      <g>
        <path class="cls-6" d="M246.43,78.11c0,3.18-2.58,5.75-5.75,5.75s-5.75-2.58-5.75-5.75,2.58-5.75,5.75-5.75,5.75,2.58,5.75,5.75Z"/>
        <g>
          <polygon class="cls-39" points="240.76 69.74 241.28 78.04 240.18 78.04 240.76 69.74"/>
          <polygon class="cls-39" points="240.71 86.33 240.18 78.04 241.28 78.04 240.71 86.33"/>
          <polygon class="cls-39" points="249.03 78.06 240.73 78.59 240.73 77.49 249.03 78.06"/>
          <polygon class="cls-39" points="232.44 78.01 240.73 77.49 240.73 78.59 232.44 78.01"/>
        </g>
      </g>
      <g>
        <circle class="cls-35" cx="27.44" cy="126.86" r="5.75"/>
        <g>
          <polygon class="cls-39" points="27.52 118.49 28.04 126.79 26.94 126.79 27.52 118.49"/>
          <polygon class="cls-39" points="27.46 135.08 26.94 126.79 28.04 126.79 27.46 135.08"/>
          <polygon class="cls-39" points="35.79 126.81 27.49 127.34 27.49 126.24 35.79 126.81"/>
          <polygon class="cls-39" points="19.2 126.76 27.49 126.24 27.49 127.34 19.2 126.76"/>
        </g>
      </g>
      <g>
        <circle class="cls-5" cx="60.38" cy="54.07" r="5.75"/>
        <g>
          <polygon class="cls-39" points="60.46 45.7 60.98 54 59.88 54 60.46 45.7"/>
          <polygon class="cls-39" points="60.41 62.29 59.88 54 60.98 54 60.41 62.29"/>
          <polygon class="cls-39" points="68.73 54.03 60.43 54.55 60.43 53.45 68.73 54.03"/>
          <polygon class="cls-39" points="52.14 53.97 60.43 53.45 60.43 54.55 52.14 53.97"/>
        </g>
      </g>
      <g>
        <path class="cls-10" d="M593.82,11.56c0,3.18-2.58,5.75-5.75,5.75s-5.75-2.58-5.75-5.75,2.58-5.75,5.75-5.75,5.75,2.58,5.75,5.75Z"/>
        <g>
          <polygon class="cls-39" points="588.14 3.19 588.66 11.49 587.56 11.49 588.14 3.19"/>
          <polygon class="cls-39" points="588.09 19.79 587.56 11.49 588.66 11.49 588.09 19.79"/>
          <polygon class="cls-39" points="596.41 11.52 588.11 12.04 588.11 10.94 596.41 11.52"/>
          <polygon class="cls-39" points="579.82 11.46 588.11 10.94 588.11 12.04 579.82 11.46"/>
        </g>
      </g>
      <g>
        <path class="cls-2" d="M723.96,99.49c0,3.18-2.58,5.75-5.75,5.75s-5.75-2.58-5.75-5.75,2.58-5.75,5.75-5.75,5.75,2.58,5.75,5.75Z"/>
        <g>
          <polygon class="cls-39" points="718.28 91.12 718.81 99.42 717.71 99.42 718.28 91.12"/>
          <polygon class="cls-39" points="718.23 107.71 717.71 99.42 718.81 99.42 718.23 107.71"/>
          <polygon class="cls-39" points="726.55 99.44 718.26 99.97 718.26 98.87 726.55 99.44"/>
          <polygon class="cls-39" points="709.96 99.39 718.26 98.87 718.26 99.97 709.96 99.39"/>
        </g>
      </g>
      <g>
        <path class="cls-30" d="M137.17,308.1c0,3.18-2.58,5.75-5.76,5.75s-5.75-2.58-5.75-5.75,2.58-5.75,5.75-5.75,5.76,2.58,5.76,5.75Z"/>
        <g>
          <polygon class="cls-39" points="131.49 299.74 132.01 308.03 130.91 308.03 131.49 299.74"/>
          <polygon class="cls-39" points="131.44 316.33 130.91 308.03 132.01 308.03 131.44 316.33"/>
          <polygon class="cls-39" points="139.76 308.06 131.46 308.58 131.46 307.48 139.76 308.06"/>
          <polygon class="cls-39" points="123.17 308 131.46 307.48 131.46 308.58 123.17 308"/>
        </g>
      </g>
      <g>
        <path class="cls-20" d="M258.74,302.42c0,3.18-2.58,5.75-5.75,5.75s-5.75-2.58-5.75-5.75,2.58-5.75,5.75-5.75,5.75,2.58,5.75,5.75Z"/>
        <g>
          <polygon class="cls-39" points="253.06 294.05 253.58 302.35 252.48 302.35 253.06 294.05"/>
          <polygon class="cls-39" points="253.01 310.64 252.48 302.35 253.58 302.35 253.01 310.64"/>
          <polygon class="cls-39" points="261.33 302.37 253.03 302.9 253.03 301.8 261.33 302.37"/>
          <polygon class="cls-39" points="244.74 302.32 253.03 301.8 253.03 302.9 244.74 302.32"/>
        </g>
      </g>
      <g>
        <path class="cls-29" d="M238.14,319.99c0,3.18-2.58,5.76-5.75,5.76s-5.75-2.58-5.75-5.76,2.58-5.75,5.75-5.75,5.75,2.58,5.75,5.75Z"/>
        <g>
          <polygon class="cls-39" points="232.46 311.63 232.99 319.92 231.88 319.92 232.46 311.63"/>
          <polygon class="cls-39" points="232.41 328.22 231.88 319.92 232.99 319.92 232.41 328.22"/>
          <polygon class="cls-39" points="240.73 319.95 232.43 320.48 232.43 319.37 240.73 319.95"/>
          <polygon class="cls-39" points="224.14 319.9 232.43 319.37 232.43 320.48 224.14 319.9"/>
        </g>
      </g>
      <g>
        <path class="cls-21" d="M595.17,78.66c0,3.18-2.58,5.76-5.75,5.76s-5.75-2.58-5.75-5.76,2.58-5.75,5.75-5.75,5.75,2.58,5.75,5.75Z"/>
        <g>
          <polygon class="cls-39" points="589.49 70.3 590.02 78.59 588.92 78.59 589.49 70.3"/>
          <polygon class="cls-39" points="589.44 86.89 588.92 78.59 590.02 78.59 589.44 86.89"/>
          <polygon class="cls-39" points="597.76 78.62 589.47 79.14 589.47 78.04 597.76 78.62"/>
          <polygon class="cls-39" points="581.17 78.56 589.47 78.04 589.47 79.14 581.17 78.56"/>
        </g>
      </g>
      <g>
        <path class="cls-43" d="M217.36,90.55c0,3.18-2.58,5.76-5.75,5.76s-5.75-2.58-5.75-5.76,2.58-5.75,5.75-5.75,5.75,2.58,5.75,5.75Z"/>
        <g>
          <polygon class="cls-39" points="211.68 82.19 212.21 90.48 211.11 90.48 211.68 82.19"/>
          <polygon class="cls-39" points="211.63 98.78 211.11 90.48 212.21 90.48 211.63 98.78"/>
          <polygon class="cls-39" points="219.95 90.51 211.66 91.03 211.66 89.93 219.95 90.51"/>
          <polygon class="cls-39" points="203.36 90.45 211.66 89.93 211.66 91.03 203.36 90.45"/>
        </g>
      </g>
      <g>
        <path class="cls-34" d="M539.11,237.43c0,1.59-1.29,2.89-2.89,2.89s-2.89-1.29-2.89-2.89,1.29-2.89,2.89-2.89,2.89,1.29,2.89,2.89Z"/>
        <g>
          <polygon class="cls-39" points="536.26 233.23 536.53 237.4 535.98 237.4 536.26 233.23"/>
          <polygon class="cls-39" points="536.24 241.56 535.98 237.4 536.53 237.4 536.24 241.56"/>
          <polygon class="cls-39" points="540.41 237.41 536.25 237.67 536.25 237.12 540.41 237.41"/>
          <polygon class="cls-39" points="532.09 237.38 536.25 237.12 536.25 237.67 532.09 237.38"/>
        </g>
      </g>
      <g>
        <path class="cls-17" d="M491.2,148.49c0,1.59-1.29,2.89-2.89,2.89s-2.89-1.29-2.89-2.89,1.29-2.89,2.89-2.89,2.89,1.29,2.89,2.89Z"/>
        <g>
          <polygon class="cls-39" points="488.35 144.29 488.62 148.45 488.06 148.45 488.35 144.29"/>
          <polygon class="cls-39" points="488.33 152.61 488.06 148.45 488.62 148.45 488.33 152.61"/>
          <polygon class="cls-39" points="492.5 148.47 488.34 148.73 488.34 148.18 492.5 148.47"/>
          <polygon class="cls-39" points="484.18 148.44 488.34 148.18 488.34 148.73 484.18 148.44"/>
        </g>
      </g>
      <g>
        <path class="cls-28" d="M400.3,207.02c0,1.59-1.29,2.89-2.89,2.89s-2.89-1.29-2.89-2.89,1.29-2.89,2.89-2.89,2.89,1.29,2.89,2.89Z"/>
        <g>
          <polygon class="cls-39" points="397.45 202.82 397.71 206.98 397.16 206.98 397.45 202.82"/>
          <polygon class="cls-39" points="397.42 211.14 397.16 206.98 397.71 206.98 397.42 211.14"/>
          <polygon class="cls-39" points="401.6 207 397.43 207.26 397.43 206.71 401.6 207"/>
          <polygon class="cls-39" points="393.27 206.97 397.43 206.71 397.43 207.26 393.27 206.97"/>
        </g>
      </g>
      <g>
        <path class="cls-37" d="M406.41,280.21c0,1.59-1.29,2.89-2.89,2.89s-2.89-1.29-2.89-2.89,1.29-2.89,2.89-2.89,2.89,1.29,2.89,2.89Z"/>
        <g>
          <polygon class="cls-39" points="403.57 276.01 403.83 280.17 403.28 280.17 403.57 276.01"/>
          <polygon class="cls-39" points="403.54 284.33 403.28 280.17 403.83 280.17 403.54 284.33"/>
          <polygon class="cls-39" points="407.71 280.19 403.55 280.45 403.55 279.9 407.71 280.19"/>
          <polygon class="cls-39" points="399.39 280.16 403.55 279.9 403.55 280.45 399.39 280.16"/>
        </g>
      </g>
      <g>
        <path class="cls-27" d="M296.87,10.97c0,1.59-1.29,2.89-2.89,2.89s-2.89-1.29-2.89-2.89,1.29-2.89,2.89-2.89,2.89,1.29,2.89,2.89Z"/>
        <g>
          <polygon class="cls-39" points="294.02 6.78 294.28 10.94 293.73 10.94 294.02 6.78"/>
          <polygon class="cls-39" points="293.99 15.1 293.73 10.94 294.28 10.94 293.99 15.1"/>
          <polygon class="cls-39" points="298.17 10.95 294 11.22 294 10.66 298.17 10.95"/>
          <polygon class="cls-39" points="289.84 10.92 294 10.66 294 11.22 289.84 10.92"/>
        </g>
      </g>
      <g>
        <path class="cls-9" d="M134.88,6.81c0,1.59-1.29,2.89-2.89,2.89s-2.89-1.29-2.89-2.89,1.29-2.89,2.89-2.89,2.89,1.29,2.89,2.89Z"/>
        <g>
          <polygon class="cls-39" points="132.03 2.62 132.29 6.78 131.74 6.78 132.03 2.62"/>
          <polygon class="cls-39" points="132 10.94 131.74 6.78 132.29 6.78 132 10.94"/>
          <polygon class="cls-39" points="136.18 6.79 132.02 7.05 132.02 6.5 136.18 6.79"/>
          <polygon class="cls-39" points="127.85 6.76 132.02 6.5 132.02 7.05 127.85 6.76"/>
        </g>
      </g>
      <g>
        <path class="cls-32" d="M422.13,10.7c0,1.59-1.29,2.89-2.89,2.89s-2.89-1.29-2.89-2.89,1.29-2.89,2.89-2.89,2.89,1.29,2.89,2.89Z"/>
        <g>
          <polygon class="cls-39" points="419.28 6.5 419.54 10.66 418.99 10.66 419.28 6.5"/>
          <polygon class="cls-39" points="419.25 14.82 418.99 10.66 419.54 10.66 419.25 14.82"/>
          <polygon class="cls-39" points="423.43 10.68 419.27 10.94 419.27 10.39 423.43 10.68"/>
          <polygon class="cls-39" points="415.1 10.65 419.27 10.39 419.27 10.94 415.1 10.65"/>
        </g>
      </g>
      <g>
        <path class="cls-16" d="M234.75,62.19c0,1.59-1.29,2.89-2.89,2.89s-2.89-1.29-2.89-2.89,1.29-2.89,2.89-2.89,2.89,1.29,2.89,2.89Z"/>
        <g>
          <polygon class="cls-39" points="231.9 57.99 232.16 62.15 231.61 62.15 231.9 57.99"/>
          <polygon class="cls-39" points="231.87 66.31 231.61 62.15 232.16 62.15 231.87 66.31"/>
          <polygon class="cls-39" points="236.05 62.17 231.88 62.43 231.88 61.88 236.05 62.17"/>
          <polygon class="cls-39" points="227.72 62.14 231.88 61.88 231.88 62.43 227.72 62.14"/>
        </g>
      </g>
      <g>
        <path class="cls-25" d="M576.8,58.03c0,1.59-1.29,2.89-2.89,2.89s-2.89-1.29-2.89-2.89,1.29-2.89,2.89-2.89,2.89,1.29,2.89,2.89Z"/>
        <g>
          <polygon class="cls-39" points="573.95 53.83 574.21 57.99 573.66 57.99 573.95 53.83"/>
          <polygon class="cls-39" points="573.92 62.15 573.66 57.99 574.21 57.99 573.92 62.15"/>
          <polygon class="cls-39" points="578.1 58.01 573.93 58.27 573.93 57.72 578.1 58.01"/>
          <polygon class="cls-39" points="569.77 57.98 573.93 57.72 573.93 58.27 569.77 57.98"/>
        </g>
      </g>
      <g>
        <path class="cls-15" d="M599.88,200.58c0,1.59-1.29,2.89-2.89,2.89s-2.89-1.29-2.89-2.89,1.29-2.89,2.89-2.89,2.89,1.29,2.89,2.89Z"/>
        <g>
          <polygon class="cls-39" points="597.03 196.38 597.3 200.55 596.74 200.55 597.03 196.38"/>
          <polygon class="cls-39" points="597.01 204.71 596.74 200.55 597.3 200.55 597.01 204.71"/>
          <polygon class="cls-39" points="601.18 200.56 597.02 200.82 597.02 200.27 601.18 200.56"/>
          <polygon class="cls-39" points="592.86 200.53 597.02 200.27 597.02 200.82 592.86 200.53"/>
        </g>
      </g>
      <g>
        <path class="cls-19" d="M696.48,255.83c0,1.59-1.29,2.89-2.89,2.89s-2.89-1.29-2.89-2.89,1.29-2.89,2.89-2.89,2.89,1.29,2.89,2.89Z"/>
        <g>
          <polygon class="cls-39" points="693.63 251.63 693.89 255.8 693.34 255.8 693.63 251.63"/>
          <polygon class="cls-39" points="693.6 259.96 693.34 255.8 693.89 255.8 693.6 259.96"/>
          <polygon class="cls-39" points="697.78 255.81 693.62 256.07 693.62 255.52 697.78 255.81"/>
          <polygon class="cls-39" points="689.45 255.78 693.62 255.52 693.62 256.07 689.45 255.78"/>
        </g>
      </g>
      <g>
        <path class="cls-4" d="M645.66,118.49c0,1.59-1.29,2.89-2.89,2.89s-2.89-1.29-2.89-2.89,1.29-2.89,2.89-2.89,2.89,1.29,2.89,2.89Z"/>
        <g>
          <polygon class="cls-39" points="642.81 114.29 643.08 118.45 642.52 118.45 642.81 114.29"/>
          <polygon class="cls-39" points="642.79 122.61 642.52 118.45 643.08 118.45 642.79 122.61"/>
          <polygon class="cls-39" points="646.96 118.47 642.8 118.73 642.8 118.18 646.96 118.47"/>
          <polygon class="cls-39" points="638.64 118.44 642.8 118.18 642.8 118.73 638.64 118.44"/>
        </g>
      </g>
      <g>
        <path class="cls-3" d="M721.39,4.2c0,1.59-1.29,2.89-2.89,2.89s-2.89-1.29-2.89-2.89,1.29-2.89,2.89-2.89,2.89,1.29,2.89,2.89Z"/>
        <g>
          <polygon class="cls-39" points="718.55 0 718.81 4.16 718.26 4.16 718.55 0"/>
          <polygon class="cls-39" points="718.52 8.32 718.26 4.16 718.81 4.16 718.52 8.32"/>
          <polygon class="cls-39" points="722.69 4.17 718.53 4.44 718.53 3.88 722.69 4.17"/>
          <polygon class="cls-39" points="714.37 4.15 718.53 3.88 718.53 4.44 714.37 4.15"/>
        </g>
      </g>
      <g>
        <path class="cls-36" d="M166.9,188.12c0,1.59-1.29,2.89-2.89,2.89s-2.89-1.29-2.89-2.89,1.29-2.89,2.89-2.89,2.89,1.29,2.89,2.89Z"/>
        <g>
          <polygon class="cls-39" points="164.05 183.93 164.31 188.09 163.76 188.09 164.05 183.93"/>
          <polygon class="cls-39" points="164.02 192.25 163.76 188.09 164.31 188.09 164.02 192.25"/>
          <polygon class="cls-39" points="168.2 188.1 164.03 188.37 164.03 187.81 168.2 188.1"/>
          <polygon class="cls-39" points="159.87 188.08 164.03 187.81 164.03 188.37 159.87 188.08"/>
        </g>
      </g>
      <g>
        <path class="cls-40" d="M128.52,266.95c0,1.59-1.29,2.89-2.89,2.89s-2.89-1.29-2.89-2.89,1.29-2.89,2.89-2.89,2.89,1.29,2.89,2.89Z"/>
        <g>
          <polygon class="cls-39" points="125.67 262.75 125.94 266.92 125.38 266.92 125.67 262.75"/>
          <polygon class="cls-39" points="125.65 271.08 125.38 266.92 125.94 266.92 125.65 271.08"/>
          <polygon class="cls-39" points="129.82 266.93 125.66 267.19 125.66 266.64 129.82 266.93"/>
          <polygon class="cls-39" points="121.5 266.9 125.66 266.64 125.66 267.19 121.5 266.9"/>
        </g>
      </g>
      <g>
        <path class="cls-33" d="M169.76,43.47c0,1.59-1.29,2.89-2.89,2.89s-2.89-1.29-2.89-2.89,1.29-2.89,2.89-2.89,2.89,1.29,2.89,2.89Z"/>
        <g>
          <polygon class="cls-39" points="166.91 39.28 167.17 43.44 166.62 43.44 166.91 39.28"/>
          <polygon class="cls-39" points="166.88 47.6 166.62 43.44 167.17 43.44 166.88 47.6"/>
          <polygon class="cls-39" points="171.06 43.45 166.9 43.72 166.9 43.16 171.06 43.45"/>
          <polygon class="cls-39" points="162.73 43.43 166.9 43.16 166.9 43.72 162.73 43.43"/>
        </g>
      </g>
      <g>
        <path class="cls-8" d="M351.99,79.18c0,1.59-1.29,2.89-2.89,2.89s-2.89-1.29-2.89-2.89,1.29-2.89,2.89-2.89,2.89,1.29,2.89,2.89Z"/>
        <g>
          <polygon class="cls-39" points="349.14 74.98 349.4 79.14 348.85 79.14 349.14 74.98"/>
          <polygon class="cls-39" points="349.11 83.3 348.85 79.14 349.4 79.14 349.11 83.3"/>
          <polygon class="cls-39" points="353.29 79.16 349.12 79.42 349.12 78.87 353.29 79.16"/>
          <polygon class="cls-39" points="344.96 79.13 349.12 78.87 349.12 79.42 344.96 79.13"/>
        </g>
      </g>
      <g>
        <path class="cls-18" d="M55,64.81c0,1.59-1.29,2.89-2.89,2.89s-2.89-1.29-2.89-2.89,1.29-2.89,2.89-2.89,2.89,1.29,2.89,2.89Z"/>
        <g>
          <polygon class="cls-39" points="52.15 60.61 52.41 64.77 51.86 64.77 52.15 60.61"/>
          <polygon class="cls-39" points="52.12 68.93 51.86 64.77 52.41 64.77 52.12 68.93"/>
          <polygon class="cls-39" points="56.3 64.79 52.14 65.05 52.14 64.5 56.3 64.79"/>
          <polygon class="cls-39" points="47.98 64.76 52.14 64.5 52.14 65.05 47.98 64.76"/>
        </g>
      </g>
      <g>
        <path class="cls-42" d="M59.16,255.83c0,1.59-1.29,2.89-2.89,2.89s-2.89-1.29-2.89-2.89,1.29-2.89,2.89-2.89,2.89,1.29,2.89,2.89Z"/>
        <g>
          <polygon class="cls-39" points="56.31 251.63 56.58 255.8 56.02 255.8 56.31 251.63"/>
          <polygon class="cls-39" points="56.29 259.96 56.02 255.8 56.58 255.8 56.29 259.96"/>
          <polygon class="cls-39" points="60.46 255.81 56.3 256.07 56.3 255.52 60.46 255.81"/>
          <polygon class="cls-39" points="52.14 255.78 56.3 255.52 56.3 256.07 52.14 255.78"/>
        </g>
      </g>
      <g>
        <path class="cls-31" d="M7.02,320.98c0,1.59-1.29,2.89-2.89,2.89s-2.89-1.29-2.89-2.89,1.29-2.89,2.89-2.89,2.89,1.29,2.89,2.89Z"/>
        <g>
          <polygon class="cls-39" points="4.18 316.79 4.44 320.95 3.89 320.95 4.18 316.79"/>
          <polygon class="cls-39" points="4.15 325.11 3.89 320.95 4.44 320.95 4.15 325.11"/>
          <polygon class="cls-39" points="8.32 320.96 4.16 321.23 4.16 320.67 8.32 320.96"/>
          <polygon class="cls-39" points="0 320.93 4.16 320.67 4.16 321.23 0 320.93"/>
        </g>
      </g>
      <g>
        <path class="cls-22" d="M511.93,43.2c0,1.59-1.29,2.89-2.89,2.89s-2.89-1.29-2.89-2.89,1.29-2.89,2.89-2.89,2.89,1.29,2.89,2.89Z"/>
        <g>
          <polygon class="cls-39" points="509.08 39 509.35 43.16 508.79 43.16 509.08 39"/>
          <polygon class="cls-39" points="509.06 47.32 508.79 43.16 509.35 43.16 509.06 47.32"/>
          <polygon class="cls-39" points="513.23 43.18 509.07 43.44 509.07 42.89 513.23 43.18"/>
          <polygon class="cls-39" points="504.91 43.15 509.07 42.89 509.07 43.44 504.91 43.15"/>
        </g>
      </g>
      <g>
        <path class="cls-13" d="M432.07,75.02c0,1.59-1.29,2.89-2.89,2.89s-2.89-1.29-2.89-2.89,1.29-2.89,2.89-2.89,2.89,1.29,2.89,2.89Z"/>
        <g>
          <polygon class="cls-39" points="429.22 70.82 429.48 74.98 428.93 74.98 429.22 70.82"/>
          <polygon class="cls-39" points="429.19 79.14 428.93 74.98 429.48 74.98 429.19 79.14"/>
          <polygon class="cls-39" points="433.37 75 429.2 75.26 429.2 74.71 433.37 75"/>
          <polygon class="cls-39" points="425.04 74.97 429.2 74.71 429.2 75.26 425.04 74.97"/>
        </g>
      </g>
      <g>
        <path class="cls-41" d="M246.64,229.11c0,1.59-1.29,2.89-2.89,2.89s-2.89-1.29-2.89-2.89,1.29-2.89,2.89-2.89,2.89,1.29,2.89,2.89Z"/>
        <g>
          <polygon class="cls-39" points="243.79 224.91 244.05 229.07 243.5 229.07 243.79 224.91"/>
          <polygon class="cls-39" points="243.76 233.23 243.5 229.07 244.05 229.07 243.76 233.23"/>
          <polygon class="cls-39" points="247.93 229.09 243.77 229.35 243.77 228.8 247.93 229.09"/>
          <polygon class="cls-39" points="239.61 229.06 243.77 228.8 243.77 229.35 239.61 229.06"/>
        </g>
      </g>
      <g>
        <path class="cls-38" d="M320.18,391.85c0,1.59-1.29,2.89-2.89,2.89s-2.89-1.29-2.89-2.89,1.29-2.89,2.89-2.89,2.89,1.29,2.89,2.89Z"/>
        <g>
          <polygon class="cls-39" points="317.33 387.66 317.6 391.82 317.04 391.82 317.33 387.66"/>
          <polygon class="cls-39" points="317.31 395.98 317.04 391.82 317.6 391.82 317.31 395.98"/>
          <polygon class="cls-39" points="321.48 391.83 317.32 392.1 317.32 391.54 321.48 391.83"/>
          <polygon class="cls-39" points="313.16 391.8 317.32 391.54 317.32 392.1 313.16 391.8"/>
        </g>
      </g>
      <g>
        <path class="cls-1" d="M578.88,34.03c0,1.59-1.29,2.89-2.89,2.89s-2.89-1.29-2.89-2.89,1.29-2.89,2.89-2.89,2.89,1.29,2.89,2.89Z"/>
        <g>
          <polygon class="cls-39" points="576.03 29.83 576.29 33.99 575.74 33.99 576.03 29.83"/>
          <polygon class="cls-39" points="576 38.15 575.74 33.99 576.29 33.99 576 38.15"/>
          <polygon class="cls-39" points="580.18 34.01 576.02 34.27 576.02 33.72 580.18 34.01"/>
          <polygon class="cls-39" points="571.85 33.98 576.02 33.72 576.02 34.27 571.85 33.98"/>
        </g>
      </g>
      <g>
        <path class="cls-23" d="M402.79,373.76c0,1.59-1.29,2.89-2.89,2.89s-2.89-1.29-2.89-2.89,1.29-2.89,2.89-2.89,2.89,1.29,2.89,2.89Z"/>
        <g>
          <polygon class="cls-39" points="399.94 369.57 400.21 373.73 399.65 373.73 399.94 369.57"/>
          <polygon class="cls-39" points="399.91 377.89 399.65 373.73 400.21 373.73 399.91 377.89"/>
          <polygon class="cls-39" points="404.09 373.74 399.93 374.01 399.93 373.45 404.09 373.74"/>
          <polygon class="cls-39" points="395.77 373.72 399.93 373.45 399.93 374.01 395.77 373.72"/>
        </g>
      </g>
      <g>
        <path class="cls-14" d="M591.25,291.86c0,1.59-1.29,2.89-2.89,2.89s-2.89-1.29-2.89-2.89,1.29-2.89,2.89-2.89,2.89,1.29,2.89,2.89Z"/>
        <g>
          <polygon class="cls-39" points="588.4 287.66 588.67 291.82 588.11 291.82 588.4 287.66"/>
          <polygon class="cls-39" points="588.38 295.98 588.11 291.82 588.67 291.82 588.38 295.98"/>
          <polygon class="cls-39" points="592.55 291.84 588.39 292.1 588.39 291.55 592.55 291.84"/>
          <polygon class="cls-39" points="584.23 291.81 588.39 291.55 588.39 292.1 584.23 291.81"/>
        </g>
      </g>
      <g>
        <path class="cls-24" d="M442.88,405.28c0,1.59-1.29,2.89-2.89,2.89s-2.89-1.29-2.89-2.89,1.29-2.89,2.89-2.89,2.89,1.29,2.89,2.89Z"/>
        <g>
          <polygon class="cls-39" points="440.03 401.08 440.3 405.25 439.74 405.25 440.03 401.08"/>
          <polygon class="cls-39" points="440.01 409.41 439.74 405.25 440.3 405.25 440.01 409.41"/>
          <polygon class="cls-39" points="444.18 405.26 440.02 405.52 440.02 404.97 444.18 405.26"/>
          <polygon class="cls-39" points="435.86 405.23 440.02 404.97 440.02 405.52 435.86 405.23"/>
        </g>
      </g>
      <g>
        <path class="cls-7" d="M393.53,192.32c0,3.18-2.58,5.75-5.75,5.75s-5.75-2.58-5.75-5.75,2.58-5.75,5.75-5.75,5.75,2.58,5.75,5.75Z"/>
        <g>
          <polygon class="cls-39" points="387.85 183.95 388.38 192.25 387.28 192.25 387.85 183.95"/>
          <polygon class="cls-39" points="387.8 200.55 387.28 192.25 388.38 192.25 387.8 200.55"/>
          <polygon class="cls-39" points="396.12 192.28 387.83 192.8 387.83 191.7 396.12 192.28"/>
          <polygon class="cls-39" points="379.53 192.22 387.83 191.7 387.83 192.8 379.53 192.22"/>
        </g>
      </g>
      <g>
        <path class="cls-26" d="M546.1,319.99c0,3.18-2.58,5.75-5.75,5.75s-5.75-2.58-5.75-5.75,2.58-5.75,5.75-5.75,5.75,2.58,5.75,5.75Z"/>
        <g>
          <polygon class="cls-39" points="540.43 311.63 540.95 319.92 539.85 319.92 540.43 311.63"/>
          <polygon class="cls-39" points="540.37 328.22 539.85 319.92 540.95 319.92 540.37 328.22"/>
          <polygon class="cls-39" points="548.7 319.95 540.4 320.48 540.4 319.37 548.7 319.95"/>
          <polygon class="cls-39" points="532.1 319.9 540.4 319.37 540.4 320.48 532.1 319.9"/>
        </g>
      </g>
      <g>
        <path class="cls-11" d="M711.78,349.03c0,3.18-2.58,5.75-5.75,5.75s-5.75-2.58-5.75-5.75,2.58-5.75,5.75-5.75,5.75,2.58,5.75,5.75Z"/>
        <g>
          <polygon class="cls-39" points="706.1 340.66 706.63 348.95 705.52 348.95 706.1 340.66"/>
          <polygon class="cls-39" points="706.05 357.25 705.52 348.95 706.63 348.95 706.05 357.25"/>
          <polygon class="cls-39" points="714.37 348.98 706.07 349.51 706.07 348.4 714.37 348.98"/>
          <polygon class="cls-39" points="697.78 348.93 706.07 348.4 706.07 349.51 697.78 348.93"/>
        </g>
      </g>
      <g>
        <path class="cls-12" d="M712.33,237.74c0,3.18-2.58,5.75-5.75,5.75s-5.75-2.58-5.75-5.75,2.58-5.75,5.75-5.75,5.75,2.58,5.75,5.75Z"/>
        <g>
          <polygon class="cls-39" points="706.65 229.38 707.18 237.67 706.08 237.67 706.65 229.38"/>
          <polygon class="cls-39" points="706.6 245.97 706.08 237.67 707.18 237.67 706.6 245.97"/>
          <polygon class="cls-39" points="714.92 237.7 706.63 238.22 706.63 237.12 714.92 237.7"/>
          <polygon class="cls-39" points="698.33 237.65 706.63 237.12 706.63 238.22 698.33 237.65"/>
        </g>
      </g>
    </g>
  </g>
</svg>