<?xml version="1.0" encoding="UTF-8"?>
<svg id="Layer_2" data-name="Layer 2" xmlns="http://www.w3.org/2000/svg" viewBox="0 0 486.7 379.17">
  <defs>
    <style>
      .cls-1 {
        fill: #fffaef;
        stroke-width: 0px;
      }
    </style>
  </defs>
  <g id="BACKGROUND_2" data-name="BACKGROUND 2">
    <g>
      <path class="cls-1" d="M383.68,144.83c0,.06-.05.12-.12.12s-.12-.05-.12-.12.05-.12.12-.12.12.05.12.12Z"/>
      <path class="cls-1" d="M452.87,118.84c0,.06-.05.12-.12.12s-.12-.05-.12-.12.05-.12.12-.12.12.05.12.12Z"/>
      <path class="cls-1" d="M451.79,96.74c0,.06-.05.12-.12.12s-.12-.05-.12-.12.05-.12.12-.12.12.05.12.12Z"/>
      <path class="cls-1" d="M479.71,81.87c0,.06-.05.12-.12.12s-.12-.05-.12-.12.05-.12.12-.12.12.05.12.12Z"/>
      <path class="cls-1" d="M480.79,67.14c0,.07-.05.12-.12.12s-.12-.05-.12-.12.05-.12.12-.12.12.05.12.12Z"/>
      <path class="cls-1" d="M408.23,13.55c0,.07-.05.12-.12.12s-.12-.05-.12-.12.05-.12.12-.12.12.05.12.12Z"/>
      <path class="cls-1" d="M392.39.12c0,.06-.05.12-.12.12s-.12-.05-.12-.12.05-.12.12-.12.12.05.12.12Z"/>
      <path class="cls-1" d="M480.91,26.52c0,.06-.05.12-.12.12s-.12-.05-.12-.12.05-.12.12-.12.12.05.12.12Z"/>
      <path class="cls-1" d="M353.24,121.74c0,.06-.05.12-.12.12s-.12-.05-.12-.12.05-.12.12-.12.12.05.12.12Z"/>
      <path class="cls-1" d="M375.48,106.33c0,.07-.05.12-.12.12s-.12-.05-.12-.12.05-.12.12-.12.12.05.12.12Z"/>
      <path class="cls-1" d="M358.96,138.89c0,.06-.05.12-.12.12s-.12-.05-.12-.12.05-.12.12-.12.12.05.12.12Z"/>
      <path class="cls-1" d="M378.72,135.22c0,.06-.05.12-.12.12s-.12-.05-.12-.12.05-.12.12-.12.12.05.12.12Z"/>
      <path class="cls-1" d="M486.28,34.8c0,.06-.05.12-.12.12s-.12-.05-.12-.12.05-.12.12-.12.12.05.12.12Z"/>
      <path class="cls-1" d="M483.51,117.06c0,.06-.05.12-.12.12s-.12-.05-.12-.12.05-.12.12-.12.12.05.12.12Z"/>
      <path class="cls-1" d="M483.98,102.98c0,.07-.05.12-.12.12s-.12-.05-.12-.12.05-.12.12-.12.12.05.12.12Z"/>
      <path class="cls-1" d="M467.76,139c0,.06-.05.12-.12.12s-.12-.05-.12-.12.05-.12.12-.12.12.05.12.12Z"/>
      <path class="cls-1" d="M441.35,132.46c0,.06-.05.12-.12.12s-.12-.05-.12-.12.05-.12.12-.12.12.05.12.12Z"/>
      <path class="cls-1" d="M439.67,144.94c0,.06-.05.12-.12.12s-.12-.05-.12-.12.05-.12.12-.12.12.05.12.12Z"/>
      <path class="cls-1" d="M423.15,141.92c0,.06-.05.12-.12.12s-.12-.05-.12-.12.05-.12.12-.12.12.05.12.12Z"/>
      <path class="cls-1" d="M408.34,154.17c0,.06-.05.12-.12.12s-.12-.05-.12-.12.05-.12.12-.12.12.05.12.12Z"/>
      <path class="cls-1" d="M414.92,145.9c0,.06-.05.12-.12.12s-.12-.05-.12-.12.05-.12.12-.12.12.05.12.12Z"/>
      <path class="cls-1" d="M423.39,171.75c0,.06-.05.12-.12.12s-.12-.05-.12-.12.05-.12.12-.12.12.05.12.12Z"/>
      <path class="cls-1" d="M429.04,164.02c0,.07-.05.12-.12.12s-.12-.05-.12-.12.05-.12.12-.12.12.05.12.12Z"/>
      <path class="cls-1" d="M464.78,164.14c0,.06-.05.12-.12.12s-.12-.05-.12-.12.05-.12.12-.12.12.05.12.12Z"/>
      <path class="cls-1" d="M471.8,154.17c0,.06-.05.12-.12.12s-.12-.05-.12-.12.05-.12.12-.12.12.05.12.12Z"/>
      <path class="cls-1" d="M473.89,172.36c0,.07-.05.12-.12.12s-.12-.05-.12-.12.05-.12.12-.12.12.05.12.12Z"/>
      <path class="cls-1" d="M469.21,227.68c0,.06-.05.12-.12.12s-.12-.05-.12-.12.05-.12.12-.12.12.05.12.12Z"/>
      <path class="cls-1" d="M446.88,220.53c0,.06-.05.12-.12.12s-.12-.05-.12-.12.05-.12.12-.12.12.05.12.12Z"/>
      <path class="cls-1" d="M435.66,234.04c0,.06-.05.12-.12.12s-.12-.05-.12-.12.05-.12.12-.12.12.05.12.12Z"/>
      <path class="cls-1" d="M423.63,218.09c0,.06-.05.12-.12.12s-.12-.05-.12-.12.05-.12.12-.12.12.05.12.12Z"/>
      <path class="cls-1" d="M416.96,238.32c0,.07-.05.12-.12.12s-.12-.05-.12-.12.05-.12.12-.12.12.05.12.12Z"/>
      <path class="cls-1" d="M404.53,246.93c0,.06-.05.12-.12.12s-.12-.05-.12-.12.05-.12.12-.12.12.05.12.12Z"/>
      <path class="cls-1" d="M397.6,227.45c0,.06-.05.12-.12.12s-.12-.05-.12-.12.05-.12.12-.12.12.05.12.12Z"/>
      <path class="cls-1" d="M377.25,248.98c0,.06-.05.12-.12.12s-.12-.05-.12-.12.05-.12.12-.12.12.05.12.12Z"/>
      <path class="cls-1" d="M440.87,246.46c0,.06-.05.12-.12.12s-.12-.05-.12-.12.05-.12.12-.12.12.05.12.12Z"/>
      <path class="cls-1" d="M425.81,265.12c0,.06-.05.12-.12.12s-.12-.05-.12-.12.05-.12.12-.12.12.05.12.12Z"/>
      <path class="cls-1" d="M423.03,248.86c0,.06-.05.12-.12.12s-.12-.05-.12-.12.05-.12.12-.12.12.05.12.12Z"/>
      <path class="cls-1" d="M404.53,217.85c0,.06-.05.12-.12.12s-.12-.05-.12-.12.05-.12.12-.12.12.05.12.12Z"/>
      <path class="cls-1" d="M486.7,290.67c0,.06-.05.12-.12.12s-.12-.05-.12-.12.05-.12.12-.12.12.05.12.12Z"/>
      <path class="cls-1" d="M462.86,297.52c0,.06-.05.12-.12.12s-.12-.05-.12-.12.05-.12.12-.12.12.05.12.12Z"/>
      <path class="cls-1" d="M465.8,319.26c0,.06-.05.12-.12.12s-.12-.05-.12-.12.05-.12.12-.12.12.05.12.12Z"/>
      <path class="cls-1" d="M452.88,331.63c0,.06-.05.12-.12.12s-.12-.05-.12-.12.05-.12.12-.12.12.05.12.12Z"/>
      <path class="cls-1" d="M465.92,337.7c0,.06-.05.12-.12.12s-.12-.05-.12-.12.05-.12.12-.12.12.05.12.12Z"/>
      <path class="cls-1" d="M351.59,367.86c0,.06-.05.12-.12.12s-.12-.05-.12-.12.05-.12.12-.12.12.05.12.12Z"/>
      <path class="cls-1" d="M366.22,340.9c0,.06-.05.12-.12.12s-.12-.05-.12-.12.05-.12.12-.12.12.05.12.12Z"/>
      <path class="cls-1" d="M483.15,379.05c0,.06-.05.12-.12.12s-.12-.05-.12-.12.05-.12.12-.12.12.05.12.12Z"/>
      <path class="cls-1" d="M413.06,373.17c0,.06-.05.12-.12.12s-.12-.05-.12-.12.05-.12.12-.12.12.05.12.12Z"/>
      <path class="cls-1" d="M400.56,359.06c0,.06-.05.12-.12.12s-.12-.05-.12-.12.05-.12.12-.12.12.05.12.12Z"/>
      <path class="cls-1" d="M474.01,255.74c0,.06-.05.12-.12.12s-.12-.05-.12-.12.05-.12.12-.12.12.05.12.12Z"/>
      <path class="cls-1" d="M479.59,248.86c0,.06-.05.12-.12.12s-.12-.05-.12-.12.05-.12.12-.12.12.05.12.12Z"/>
      <path class="cls-1" d="M304.61,41.16c0,.06-.05.12-.12.12s-.12-.05-.12-.12.05-.12.12-.12.12.05.12.12Z"/>
      <path class="cls-1" d="M278.27,11.09c0,.06-.05.12-.12.12s-.12-.05-.12-.12.05-.12.12-.12.12.05.12.12Z"/>
      <path class="cls-1" d="M221.72,32.06c0,.13-.11.24-.24.24s-.24-.11-.24-.24.11-.24.24-.24.24.11.24.24Z"/>
      <path class="cls-1" d="M194.7,38.84c0,.13-.11.24-.24.24s-.24-.11-.24-.24.11-.24.24-.24.24.11.24.24Z"/>
      <path class="cls-1" d="M190.54,15.75c0,.13-.11.24-.24.24s-.24-.11-.24-.24.11-.24.24-.24.24.11.24.24Z"/>
      <path class="cls-1" d="M148.37,8.81c0,.13-.11.24-.24.24s-.24-.11-.24-.24.11-.24.24-.24.24.11.24.24Z"/>
      <path class="cls-1" d="M339.19,51.32c0,.13-.11.24-.24.24s-.24-.11-.24-.24.11-.24.24-.24.24.11.24.24Z"/>
      <path class="cls-1" d="M357.06,108.49c0,.13-.11.24-.24.24s-.24-.11-.24-.24.11-.24.24-.24.24.11.24.24Z"/>
      <path class="cls-1" d="M343.38,135.46c0,.13-.11.24-.24.24s-.24-.11-.24-.24.11-.24.24-.24.24.11.24.24Z"/>
      <path class="cls-1" d="M278.63,125.21c0,.13-.11.24-.24.24s-.24-.11-.24-.24.11-.24.24-.24.24.11.24.24Z"/>
      <path class="cls-1" d="M325.1,235c0,.13-.11.24-.24.24s-.24-.11-.24-.24.11-.24.24-.24.24.11.24.24Z"/>
      <path class="cls-1" d="M328.62,218.09c0,.13-.11.24-.24.24s-.24-.11-.24-.24.11-.24.24-.24.24.11.24.24Z"/>
      <path class="cls-1" d="M330.86,198.87c0,.13-.11.24-.24.24s-.24-.11-.24-.24.11-.24.24-.24.24.11.24.24Z"/>
      <path class="cls-1" d="M357.29,219.42c0,.13-.11.24-.24.24s-.24-.11-.24-.24.11-.24.24-.24.24.11.24.24Z"/>
      <path class="cls-1" d="M357.06,246.7c0,.13-.11.24-.24.24s-.24-.11-.24-.24.11-.24.24-.24.24.11.24.24Z"/>
      <path class="cls-1" d="M393.05,220.83c0,.13-.11.24-.24.24s-.24-.11-.24-.24.11-.24.24-.24.24.11.24.24Z"/>
      <path class="cls-1" d="M415.27,196.05c0,.13-.11.24-.24.24s-.24-.11-.24-.24.11-.24.24-.24.24.11.24.24Z"/>
      <path class="cls-1" d="M413.96,129.47c0,.13-.11.24-.24.24s-.24-.11-.24-.24.11-.24.24-.24.24.11.24.24Z"/>
      <path class="cls-1" d="M442.53,86.31c0,.13-.11.24-.24.24s-.24-.11-.24-.24.11-.24.24-.24.24.11.24.24Z"/>
      <path class="cls-1" d="M419.83,26.52c0,.13-.11.24-.24.24s-.24-.11-.24-.24.11-.24.24-.24.24.11.24.24Z"/>
      <path class="cls-1" d="M408.7,38.07c0,.13-.11.24-.24.24s-.24-.11-.24-.24.11-.24.24-.24.24.11.24.24Z"/>
      <path class="cls-1" d="M396.18,16.63c0,.13-.11.24-.24.24s-.24-.11-.24-.24.11-.24.24-.24.24.11.24.24Z"/>
      <path class="cls-1" d="M383.56,31.83c0,.13-.11.24-.24.24s-.24-.11-.24-.24.11-.24.24-.24.24.11.24.24Z"/>
      <path class="cls-1" d="M381.5,44.09c0,.13-.11.24-.24.24s-.24-.11-.24-.24.11-.24.24-.24.24.11.24.24Z"/>
      <path class="cls-1" d="M392.51,26.75c0,.13-.11.24-.24.24s-.24-.11-.24-.24.11-.24.24-.24.24.11.24.24Z"/>
      <path class="cls-1" d="M383.33,7.45c0,.13-.11.24-.24.24s-.24-.11-.24-.24.11-.24.24-.24.24.11.24.24Z"/>
      <path class="cls-1" d="M439.55,6.2c0,.13-.11.24-.24.24s-.24-.11-.24-.24.11-.24.24-.24.24.11.24.24Z"/>
      <path class="cls-1" d="M439.32,13.79c0,.13-.11.24-.24.24s-.24-.11-.24-.24.11-.24.24-.24.24.11.24.24Z"/>
      <path class="cls-1" d="M454.6,3.01c0,.13-.11.24-.24.24s-.24-.11-.24-.24.11-.24.24-.24.24.11.24.24Z"/>
      <path class="cls-1" d="M437.19,32.06c0,.13-.11.24-.24.24s-.24-.11-.24-.24.11-.24.24-.24.24.11.24.24Z"/>
      <path class="cls-1" d="M386.45,64.96c0,.13-.11.24-.24.24s-.24-.11-.24-.24.11-.24.24-.24.24.11.24.24Z"/>
      <path class="cls-1" d="M378.84,78.8c0,.13-.11.24-.24.24s-.24-.11-.24-.24.11-.24.24-.24.24.11.24.24Z"/>
      <path class="cls-1" d="M366.16,87.42c0,.13-.11.24-.24.24s-.24-.11-.24-.24.11-.24.24-.24.24.11.24.24Z"/>
      <path class="cls-1" d="M397.49,89.89c0,.13-.11.24-.24.24s-.24-.11-.24-.24.11-.24.24-.24.24.11.24.24Z"/>
      <path class="cls-1" d="M413.72,61.28c0,.13-.11.24-.24.24s-.24-.11-.24-.24.11-.24.24-.24.24.11.24.24Z"/>
      <path class="cls-1" d="M426.34,55.28c0,.13-.11.24-.24.24s-.24-.11-.24-.24.11-.24.24-.24.24.11.24.24Z"/>
      <path class="cls-1" d="M474.48,29.29c0,.13-.11.24-.24.24s-.24-.11-.24-.24.11-.24.24-.24.24.11.24.24Z"/>
      <path class="cls-1" d="M483.86,3.24c0,.13-.11.24-.24.24s-.24-.11-.24-.24.11-.24.24-.24.24.11.24.24Z"/>
      <path class="cls-1" d="M477.08,45.66c0,.13-.11.24-.24.24s-.24-.11-.24-.24.11-.24.24-.24.24.11.24.24Z"/>
      <path class="cls-1" d="M468.23,58.15c0,.13-.11.24-.24.24s-.24-.11-.24-.24.11-.24.24-.24.24.11.24.24Z"/>
      <path class="cls-1" d="M474.25,73.83c0,.13-.11.24-.24.24s-.24-.11-.24-.24.11-.24.24-.24.24.11.24.24Z"/>
      <path class="cls-1" d="M462.97,83.6c0,.13-.11.24-.24.24s-.24-.11-.24-.24.11-.24.24-.24.24.11.24.24Z"/>
      <path class="cls-1" d="M471.67,118.61c0,.13-.11.24-.24.24s-.24-.11-.24-.24.11-.24.24-.24.24.11.24.24Z"/>
      <path class="cls-1" d="M454.83,130.55c0,.13-.11.24-.24.24s-.24-.11-.24-.24.11-.24.24-.24.24.11.24.24Z"/>
      <path class="cls-1" d="M438.14,223.14c0,.13-.11.24-.24.24s-.24-.11-.24-.24.11-.24.24-.24.24.11.24.24Z"/>
      <path class="cls-1" d="M448.85,205.59c0,.13-.11.24-.24.24s-.24-.11-.24-.24.11-.24.24-.24.24.11.24.24Z"/>
      <path class="cls-1" d="M430.96,244.83c0,.13-.11.24-.24.24s-.24-.11-.24-.24.11-.24.24-.24.24.11.24.24Z"/>
      <path class="cls-1" d="M422.91,231.27c0,.13-.11.24-.24.24s-.24-.11-.24-.24.11-.24.24-.24.24.11.24.24Z"/>
      <path class="cls-1" d="M456.05,215.82c0,.13-.11.24-.24.24s-.24-.11-.24-.24.11-.24.24-.24.24.11.24.24Z"/>
      <path class="cls-1" d="M465.44,203.28c0,.13-.11.24-.24.24s-.24-.11-.24-.24.11-.24.24-.24.24.11.24.24Z"/>
      <path class="cls-1" d="M484.22,178.56c0,.13-.11.24-.24.24s-.24-.11-.24-.24.11-.24.24-.24.24.11.24.24Z"/>
      <path class="cls-1" d="M475.28,155.62c0,.13-.11.24-.24.24s-.24-.11-.24-.24.11-.24.24-.24.24.11.24.24Z"/>
      <path class="cls-1" d="M405,183.02c0,.13-.11.24-.24.24s-.24-.11-.24-.24.11-.24.24-.24.24.11.24.24Z"/>
      <path class="cls-1" d="M396.54,265.36c0,.13-.11.24-.24.24s-.24-.11-.24-.24.11-.24.24-.24.24.11.24.24Z"/>
      <path class="cls-1" d="M420.06,254.64c0,.13-.11.24-.24.24s-.24-.11-.24-.24.11-.24.24-.24.24.11.24.24Z"/>
      <path class="cls-1" d="M417.43,279.79c0,.13-.11.24-.24.24s-.24-.11-.24-.24.11-.24.24-.24.24.11.24.24Z"/>
      <path class="cls-1" d="M437.9,271.37c0,.13-.11.24-.24.24s-.24-.11-.24-.24.11-.24.24-.24.24.11.24.24Z"/>
      <path class="cls-1" d="M462.74,266.4c0,.13-.11.24-.24.24s-.24-.11-.24-.24.11-.24.24-.24.24.11.24.24Z"/>
      <path class="cls-1" d="M467.75,255.95c0,.13-.11.24-.24.24s-.24-.11-.24-.24.11-.24.24-.24.24.11.24.24Z"/>
      <path class="cls-1" d="M474.48,283.18c0,.13-.11.24-.24.24s-.24-.11-.24-.24.11-.24.24-.24.24.11.24.24Z"/>
      <path class="cls-1" d="M483.51,266.16c0,.13-.11.24-.24.24s-.24-.11-.24-.24.11-.24.24-.24.24.11.24.24Z"/>
      <path class="cls-1" d="M483.51,231.5c0,.13-.11.24-.24.24s-.24-.11-.24-.24.11-.24.24-.24.24.11.24.24Z"/>
      <path class="cls-1" d="M483.51,213.46c0,.13-.11.24-.24.24s-.24-.11-.24-.24.11-.24.24-.24.24.11.24.24Z"/>
      <path class="cls-1" d="M469.45,187.6c0,.13-.11.24-.24.24s-.24-.11-.24-.24.11-.24.24-.24.24.11.24.24Z"/>
      <path class="cls-1" d="M415.5,318.55c0,.13-.11.24-.24.24s-.24-.11-.24-.24.11-.24.24-.24.24.11.24.24Z"/>
      <path class="cls-1" d="M423.74,304.68c0,.13-.11.24-.24.24s-.24-.11-.24-.24.11-.24.24-.24.24.11.24.24Z"/>
      <path class="cls-1" d="M370.11,297.75c0,.13-.11.24-.24.24s-.24-.11-.24-.24.11-.24.24-.24.24.11.24.24Z"/>
      <path class="cls-1" d="M381.96,307.51c0,.13-.11.24-.24.24s-.24-.11-.24-.24.11-.24.24-.24.24.11.24.24Z"/>
      <path class="cls-1" d="M373.89,307.27c0,.13-.11.24-.24.24s-.24-.11-.24-.24.11-.24.24-.24.24.11.24.24Z"/>
      <path class="cls-1" d="M384.15,323.48c0,.13-.11.24-.24.24s-.24-.11-.24-.24.11-.24.24-.24.24.11.24.24Z"/>
      <path class="cls-1" d="M473.89,326.37c0,.13-.11.24-.24.24s-.24-.11-.24-.24.11-.24.24-.24.24.11.24.24Z"/>
      <path class="cls-1" d="M475.28,314.4c0,.13-.11.24-.24.24s-.24-.11-.24-.24.11-.24.24-.24.24.11.24.24Z"/>
      <path class="cls-1" d="M420.3,365.2c0,.13-.11.24-.24.24s-.24-.11-.24-.24.11-.24.24-.24.24.11.24.24Z"/>
      <path class="cls-1" d="M422.91,354.12c0,.13-.11.24-.24.24s-.24-.11-.24-.24.11-.24.24-.24.24.11.24.24Z"/>
      <path class="cls-1" d="M458.24,372.93c0,.13-.11.24-.24.24s-.24-.11-.24-.24.11-.24.24-.24.24.11.24.24Z"/>
      <path class="cls-1" d="M465.68,366.53c0,.13-.11.24-.24.24s-.24-.11-.24-.24.11-.24.24-.24.24.11.24.24Z"/>
      <path class="cls-1" d="M370.88,357.79c0,.13-.11.24-.24.24s-.24-.11-.24-.24.11-.24.24-.24.24.11.24.24Z"/>
      <path class="cls-1" d="M403.57,314.16c0,.13-.11.24-.24.24s-.24-.11-.24-.24.11-.24.24-.24.24.11.24.24Z"/>
      <path class="cls-1" d="M420.3,299.93c0,.13-.11.24-.24.24s-.24-.11-.24-.24.11-.24.24-.24.24.11.24.24Z"/>
      <path class="cls-1" d="M458.24,323.72c0,.13-.11.24-.24.24s-.24-.11-.24-.24.11-.24.24-.24.24.11.24.24Z"/>
      <path class="cls-1" d="M442.06,290.93c0,.13-.11.24-.24.24s-.24-.11-.24-.24.11-.24.24-.24.24.11.24.24Z"/>
      <path class="cls-1" d="M383.92,207.18c0,.13-.11.24-.24.24s-.24-.11-.24-.24.11-.24.24-.24.24.11.24.24Z"/>
      <path class="cls-1" d="M441.23,109.03c0,.13-.11.24-.24.24s-.24-.11-.24-.24.11-.24.24-.24.24.11.24.24Z"/>
      <path class="cls-1" d="M419.83,100.67c0,.13-.11.24-.24.24s-.24-.11-.24-.24.11-.24.24-.24.24.11.24.24Z"/>
      <path class="cls-1" d="M430.49,75.14c0,.13-.11.24-.24.24s-.24-.11-.24-.24.11-.24.24-.24.24.11.24.24Z"/>
      <path class="cls-1" d="M430.73,91.23c0,.13-.11.24-.24.24s-.24-.11-.24-.24.11-.24.24-.24.24.11.24.24Z"/>
      <path class="cls-1" d="M356.82,171.99c0,.13-.11.24-.24.24s-.24-.11-.24-.24.11-.24.24-.24.24.11.24.24Z"/>
      <path class="cls-1" d="M346.74,179.03c0,.13-.11.24-.24.24s-.24-.11-.24-.24.11-.24.24-.24.24.11.24.24Z"/>
      <path class="cls-1" d="M357.29,294.32c0,.13-.11.24-.24.24s-.24-.11-.24-.24.11-.24.24-.24.24.11.24.24Z"/>
      <path class="cls-1" d="M357.29,280.33c0,.13-.11.24-.24.24s-.24-.11-.24-.24.11-.24.24-.24.24.11.24.24Z"/>
      <path class="cls-1" d="M334.75,275.93c0,.13-.11.24-.24.24s-.24-.11-.24-.24.11-.24.24-.24.24.11.24.24Z"/>
      <path class="cls-1" d="M333.65,314.64c0,.13-.11.24-.24.24s-.24-.11-.24-.24.11-.24.24-.24.24.11.24.24Z"/>
      <path class="cls-1" d="M354.63,318.78c0,.13-.11.24-.24.24s-.24-.11-.24-.24.11-.24.24-.24.24.11.24.24Z"/>
      <path class="cls-1" d="M354.86,336.11c0,.13-.11.24-.24.24s-.24-.11-.24-.24.11-.24.24-.24.24.11.24.24Z"/>
      <path class="cls-1" d="M346.98,344.41c0,.13-.11.24-.24.24s-.24-.11-.24-.24.11-.24.24-.24.24.11.24.24Z"/>
      <path class="cls-1" d="M326.37,337.46c0,.13-.11.24-.24.24s-.24-.11-.24-.24.11-.24.24-.24.24.11.24.24Z"/>
      <path class="cls-1" d="M252.06,347.13c0,.13-.11.24-.24.24s-.24-.11-.24-.24.11-.24.24-.24.24.11.24.24Z"/>
      <path class="cls-1" d="M259.87,331.87c0,.13-.11.24-.24.24s-.24-.11-.24-.24.11-.24.24-.24.24.11.24.24Z"/>
      <path class="cls-1" d="M235.95,338.34c0,.13-.11.24-.24.24s-.24-.11-.24-.24.11-.24.24-.24.24.11.24.24Z"/>
      <path class="cls-1" d="M233.71,318.78c0,.13-.11.24-.24.24s-.24-.11-.24-.24.11-.24.24-.24.24.11.24.24Z"/>
      <path class="cls-1" d="M199.76,322.38c0,.13-.11.24-.24.24s-.24-.11-.24-.24.11-.24.24-.24.24.11.24.24Z"/>
      <path class="cls-1" d="M213.69,309.74c0,.13-.11.24-.24.24s-.24-.11-.24-.24.11-.24.24-.24.24.11.24.24Z"/>
      <path class="cls-1" d="M213.92,317.25c0,.13-.11.24-.24.24s-.24-.11-.24-.24.11-.24.24-.24.24.11.24.24Z"/>
      <path class="cls-1" d="M229.72,299.7c0,.13-.11.24-.24.24s-.24-.11-.24-.24.11-.24.24-.24.24.11.24.24Z"/>
      <path class="cls-1" d="M146.29,273.37c0,.13-.11.24-.24.24s-.24-.11-.24-.24.11-.24.24-.24.24.11.24.24Z"/>
      <path class="cls-1" d="M138.9,284.46c0,.13-.11.24-.24.24s-.24-.11-.24-.24.11-.24.24-.24.24.11.24.24Z"/>
      <path class="cls-1" d="M158,290.67c0,.13-.11.24-.24.24s-.24-.11-.24-.24.11-.24.24-.24.24.11.24.24Z"/>
      <path class="cls-1" d="M235.95,351.73c0,.13-.11.24-.24.24s-.24-.11-.24-.24.11-.24.24-.24.24.11.24.24Z"/>
      <path class="cls-1" d="M247.32,336.82c0,.13-.11.24-.24.24s-.24-.11-.24-.24.11-.24.24-.24.24.11.24.24Z"/>
      <path class="cls-1" d="M225.95,367.24c0,.13-.11.24-.24.24s-.24-.11-.24-.24.11-.24.24-.24.24.11.24.24Z"/>
      <path class="cls-1" d="M259.16,360.1c0,.13-.11.24-.24.24s-.24-.11-.24-.24.11-.24.24-.24.24.11.24.24Z"/>
      <path class="cls-1" d="M269.7,342.99c0,.13-.11.24-.24.24s-.24-.11-.24-.24.11-.24.24-.24.24.11.24.24Z"/>
      <path class="cls-1" d="M279.45,343.93c0,.13-.11.24-.24.24s-.24-.11-.24-.24.11-.24.24-.24.24.11.24.24Z"/>
      <path class="cls-1" d="M305.92,220.83c0,.13-.11.24-.24.24s-.24-.11-.24-.24.11-.24.24-.24.24.11.24.24Z"/>
      <path class="cls-1" d="M339.94,255.5c0,.13-.11.24-.24.24s-.24-.11-.24-.24.11-.24.24-.24.24.11.24.24Z"/>
      <path class="cls-1" d="M336.83,178.79c0,.13-.11.24-.24.24s-.24-.11-.24-.24.11-.24.24-.24.24.11.24.24Z"/>
      <path class="cls-1" d="M356.58,185.37c0,.13-.11.24-.24.24s-.24-.11-.24-.24.11-.24.24-.24.24.11.24.24Z"/>
      <path class="cls-1" d="M349.46,265.12c0,.13-.11.24-.24.24s-.24-.11-.24-.24.11-.24.24-.24.24.11.24.24Z"/>
      <path class="cls-1" d="M324.74,274.08c0,.13-.11.24-.24.24s-.24-.11-.24-.24.11-.24.24-.24.24.11.24.24Z"/>
      <path class="cls-1" d="M255.43,227.68c0,.13-.11.24-.24.24s-.24-.11-.24-.24.11-.24.24-.24.24.11.24.24Z"/>
      <path class="cls-1" d="M249.34,220.83c0,.13-.11.24-.24.24s-.24-.11-.24-.24.11-.24.24-.24.24.11.24.24Z"/>
      <path class="cls-1" d="M255.2,193.18c0,.13-.11.24-.24.24s-.24-.11-.24-.24.11-.24.24-.24.24.11.24.24Z"/>
      <path class="cls-1" d="M279.1,210.22c0,.13-.11.24-.24.24s-.24-.11-.24-.24.11-.24.24-.24.24.11.24.24Z"/>
      <path class="cls-1" d="M265.09,229.23c0,.13-.11.24-.24.24s-.24-.11-.24-.24.11-.24.24-.24.24.11.24.24Z"/>
      <path class="cls-1" d="M94.15,214.15c0,.13-.11.24-.23.24s-.24-.11-.24-.24.11-.24.24-.24.23.11.23.24Z"/>
      <circle class="cls-1" cx="78.03" cy="217.85" r=".24"/>
      <path class="cls-1" d="M81.98,241.22c0,.13-.11.24-.24.24s-.24-.11-.24-.24.11-.24.24-.24.24.11.24.24Z"/>
      <path class="cls-1" d="M.47,254.09c0,.13-.11.24-.24.24s-.24-.11-.24-.24.11-.24.24-.24.24.11.24.24Z"/>
      <path class="cls-1" d="M9.2,273.85c0,.13-.11.24-.24.24s-.24-.11-.24-.24.11-.24.24-.24.24.11.24.24Z"/>
      <path class="cls-1" d="M262.46,136.71c0,.13-.11.24-.24.24s-.24-.11-.24-.24.11-.24.24-.24.24.11.24.24Z"/>
    </g>
  </g>
</svg>