<?xml version="1.0" encoding="UTF-8"?>
<svg id="Layer_2" data-name="Layer 2" xmlns="http://www.w3.org/2000/svg" viewBox="0 0 605.4 381.21">
  <defs>
    <style>
      .cls-1 {
        fill: #fffaef;
        stroke-width: 0px;
      }
    </style>
  </defs>
  <g id="BACKGROUND_2" data-name="BACKGROUND 2">
    <g>
      <path class="cls-1" d="M95.68,284.74c0,.3-.24.54-.54.54s-.54-.24-.54-.54.24-.54.54-.54.54.24.54.54Z"/>
      <path class="cls-1" d="M124.86,136.54c0,.3-.24.54-.54.54s-.54-.24-.54-.54.24-.54.54-.54.54.24.54.54Z"/>
      <path class="cls-1" d="M158.82,167.07c0,.3-.24.54-.54.54s-.54-.24-.54-.54.24-.54.54-.54.54.24.54.54Z"/>
      <path class="cls-1" d="M189.13,130.07c0,.3-.24.54-.54.54s-.54-.24-.54-.54.24-.54.54-.54.54.24.54.54Z"/>
      <path class="cls-1" d="M271.97,194.02c0,.3-.24.54-.54.54s-.54-.24-.54-.54.24-.54.54-.54.54.24.54.54Z"/>
      <path class="cls-1" d="M272.51,31.07c0,.3-.24.54-.54.54s-.54-.24-.54-.54.24-.54.54-.54.54.24.54.54Z"/>
      <path class="cls-1" d="M339.6,116.07c0,.3-.24.54-.54.54s-.54-.24-.54-.54.24-.54.54-.54.54.24.54.54Z"/>
      <path class="cls-1" d="M369.08,83.96c0,.3-.24.54-.54.54s-.54-.24-.54-.54.24-.54.54-.54.54.24.54.54Z"/>
      <path class="cls-1" d="M396.54,115.54c0,.3-.24.54-.54.54s-.54-.24-.54-.54.24-.54.54-.54.54.24.54.54Z"/>
      <path class="cls-1" d="M356.19,41.34c0,.3-.24.54-.54.54s-.54-.24-.54-.54.24-.54.54-.54.54.24.54.54Z"/>
      <path class="cls-1" d="M381.71,30.54c0,.3-.24.54-.54.54s-.54-.24-.54-.54.24-.54.54-.54.54.24.54.54Z"/>
      <path class="cls-1" d="M374.6,23.49c0,.3-.24.54-.54.54s-.54-.24-.54-.54.24-.54.54-.54.54.24.54.54Z"/>
      <path class="cls-1" d="M355.65,27.45c0,.3-.24.54-.54.54s-.54-.24-.54-.54.24-.54.54-.54.54.24.54.54Z"/>
      <path class="cls-1" d="M415.02,53.26c0,.3-.24.54-.54.54s-.54-.24-.54-.54.24-.54.54-.54.54.24.54.54Z"/>
      <path class="cls-1" d="M448.29,27.45c0,.3-.24.54-.54.54s-.54-.24-.54-.54.24-.54.54-.54.54.24.54.54Z"/>
      <path class="cls-1" d="M518.65,55.07c0,.3-.24.54-.54.54s-.54-.24-.54-.54.24-.54.54-.54.54.24.54.54Z"/>
      <path class="cls-1" d="M531.45,17.94c0,.3-.24.54-.54.54s-.54-.24-.54-.54.24-.54.54-.54.54.24.54.54Z"/>
      <path class="cls-1" d="M269.48,53.79c0,.3-.24.54-.54.54s-.54-.24-.54-.54.24-.54.54-.54.54.24.54.54Z"/>
      <path class="cls-1" d="M385.24,205.07c0,.13-.11.24-.24.24s-.24-.11-.24-.24.11-.24.24-.24.24.11.24.24Z"/>
      <path class="cls-1" d="M389.2,156.32c0,.13-.11.24-.24.24s-.24-.11-.24-.24.11-.24.24-.24.24.11.24.24Z"/>
      <path class="cls-1" d="M426.44,166.37c0,.13-.11.24-.24.24s-.24-.11-.24-.24.11-.24.24-.24.24.11.24.24Z"/>
      <path class="cls-1" d="M306.61,143.78c0,.13-.11.24-.24.24s-.24-.11-.24-.24.11-.24.24-.24.24.11.24.24Z"/>
      <path class="cls-1" d="M375.48,182.86c0,.13-.11.24-.24.24s-.24-.11-.24-.24.11-.24.24-.24.24.11.24.24Z"/>
      <path class="cls-1" d="M372.4,116.61c0,.13-.11.24-.24.24s-.24-.11-.24-.24.11-.24.24-.24.24.11.24.24Z"/>
      <path class="cls-1" d="M.47,88.09c0,.13-.11.24-.24.24s-.24-.11-.24-.24.11-.24.24-.24.24.11.24.24Z"/>
      <path class="cls-1" d="M605.4,156.68c0,.13-.11.24-.24.24s-.24-.11-.24-.24.11-.24.24-.24.24.11.24.24Z"/>
      <path class="cls-1" d="M338.78,13.41c0,.13-.11.24-.24.24s-.24-.11-.24-.24.11-.24.24-.24.24.11.24.24Z"/>
      <path class="cls-1" d="M302.62,17.94c0,.13-.11.24-.24.24s-.24-.11-.24-.24.11-.24.24-.24.24.11.24.24Z"/>
      <path class="cls-1" d="M172.19,9.34c0,.13-.11.24-.24.24s-.24-.11-.24-.24.11-.24.24-.24.24.11.24.24Z"/>
      <path class="cls-1" d="M168.05,26.91c0,.13-.11.24-.23.24s-.24-.11-.24-.24.11-.24.24-.24.23.11.23.24Z"/>
      <path class="cls-1" d="M556.46,104.18c0,.13-.11.24-.24.24s-.24-.11-.24-.24.11-.24.24-.24.24.11.24.24Z"/>
      <path class="cls-1" d="M542.08,89.19c0,.13-.11.24-.24.24s-.24-.11-.24-.24.11-.24.24-.24.24.11.24.24Z"/>
      <path class="cls-1" d="M564.57,85.04c0,.13-.11.24-.24.24s-.24-.11-.24-.24.11-.24.24-.24.24.11.24.24Z"/>
      <path class="cls-1" d="M564.8,59.81c0,.13-.11.24-.24.24s-.24-.11-.24-.24.11-.24.24-.24.24.11.24.24Z"/>
      <path class="cls-1" d="M571.45,9.66c0,.13-.11.24-.24.24s-.24-.11-.24-.24.11-.24.24-.24.24.11.24.24Z"/>
      <path class="cls-1" d="M524.1.24c0,.13-.11.24-.24.24s-.24-.11-.24-.24.11-.24.24-.24.24.11.24.24Z"/>
      <path class="cls-1" d="M552.25,325.2c0,.13-.11.24-.24.24s-.24-.11-.24-.24.11-.24.24-.24.24.11.24.24Z"/>
      <path class="cls-1" d="M523.65,353.43c0,.13-.11.24-.24.24s-.24-.11-.24-.24.11-.24.24-.24.24.11.24.24Z"/>
      <path class="cls-1" d="M489.02,345.26c0,.13-.11.24-.24.24s-.24-.11-.24-.24.11-.24.24-.24.24.11.24.24Z"/>
      <path class="cls-1" d="M484.22,373.43c0,.13-.11.24-.24.24s-.24-.11-.24-.24.11-.24.24-.24.24.11.24.24Z"/>
      <path class="cls-1" d="M540.29,345.02c0,.13-.11.24-.24.24s-.24-.11-.24-.24.11-.24.24-.24.24.11.24.24Z"/>
      <path class="cls-1" d="M531.41,323.37c0,.13-.11.24-.24.24s-.24-.11-.24-.24.11-.24.24-.24.24.11.24.24Z"/>
      <path class="cls-1" d="M294.83,93.93c0,.13-.11.24-.24.24s-.24-.11-.24-.24.11-.24.24-.24.24.11.24.24Z"/>
      <path class="cls-1" d="M129.5,241.38c0,.13-.11.24-.24.24s-.24-.11-.24-.24.11-.24.24-.24.24.11.24.24Z"/>
      <path class="cls-1" d="M125.81,222.77c0,.13-.11.24-.24.24s-.24-.11-.24-.24.11-.24.24-.24.24.11.24.24Z"/>
      <path class="cls-1" d="M167.27,224.61c0,.13-.11.24-.24.24s-.24-.11-.24-.24.11-.24.24-.24.24.11.24.24Z"/>
      <path class="cls-1" d="M150.68,206.68c0,.13-.11.24-.24.24s-.24-.11-.24-.24.11-.24.24-.24.24.11.24.24Z"/>
      <path class="cls-1" d="M150.44,277.52c0,.13-.11.24-.24.24s-.24-.11-.24-.24.11-.24.24-.24.24.11.24.24Z"/>
      <path class="cls-1" d="M157.98,306.84c0,.13-.11.24-.23.24s-.24-.11-.24-.24.11-.24.24-.24.23.11.23.24Z"/>
      <path class="cls-1" d="M176.93,290.36c0,.13-.11.24-.24.24s-.24-.11-.24-.24.11-.24.24-.24.24.11.24.24Z"/>
      <path class="cls-1" d="M357.96,338.07c0,.13-.11.24-.24.24s-.24-.11-.24-.24.11-.24.24-.24.24.11.24.24Z"/>
      <path class="cls-1" d="M355.35,311.48c0,.13-.11.24-.24.24s-.24-.11-.24-.24.11-.24.24-.24.24.11.24.24Z"/>
      <path class="cls-1" d="M366.16,322.4c0,.13-.11.24-.24.24s-.24-.11-.24-.24.11-.24.24-.24.24.11.24.24Z"/>
      <path class="cls-1" d="M317.73,322.4c0,.13-.11.24-.23.24s-.24-.11-.24-.24.11-.24.24-.24.23.11.23.24Z"/>
      <path class="cls-1" d="M319.48,338.55c0,.13-.11.24-.24.24s-.24-.11-.24-.24.11-.24.24-.24.24.11.24.24Z"/>
      <path class="cls-1" d="M295.36,338.78c0,.13-.11.24-.24.24s-.24-.11-.24-.24.11-.24.24-.24.24.11.24.24Z"/>
      <path class="cls-1" d="M298.3,353.2c0,.13-.11.24-.23.24s-.24-.11-.24-.24.11-.24.24-.24.23.11.23.24Z"/>
      <path class="cls-1" d="M314.09,355.42c0,.13-.11.24-.24.24s-.24-.11-.24-.24.11-.24.24-.24.24.11.24.24Z"/>
      <path class="cls-1" d="M295.9,300.04c0,.13-.11.24-.23.24s-.24-.11-.24-.24.11-.24.24-.24.23.11.23.24Z"/>
      <path class="cls-1" d="M230.48,332.71c0,.13-.11.24-.24.24s-.24-.11-.24-.24.11-.24.24-.24.24.11.24.24Z"/>
      <path class="cls-1" d="M220.8,344.55c0,.13-.11.24-.24.24s-.24-.11-.24-.24.11-.24.24-.24.24.11.24.24Z"/>
      <path class="cls-1" d="M239.13,369.27c0,.13-.11.24-.24.24s-.24-.11-.24-.24.11-.24.24-.24.24.11.24.24Z"/>
      <path class="cls-1" d="M258.41,353.67c0,.13-.11.24-.24.24s-.24-.11-.24-.24.11-.24.24-.24.24.11.24.24Z"/>
      <path class="cls-1" d="M230.24,361.85c0,.13-.11.24-.23.24s-.24-.11-.24-.24.11-.24.24-.24.23.11.23.24Z"/>
      <path class="cls-1" d="M242.58,380.98c0,.13-.11.24-.24.24s-.24-.11-.24-.24.11-.24.24-.24.24.11.24.24Z"/>
      <path class="cls-1" d="M252.02,373.19c0,.13-.11.24-.23.24s-.24-.11-.24-.24.11-.24.24-.24.23.11.23.24Z"/>
      <path class="cls-1" d="M171.89,380.74c0,.13-.11.24-.23.24s-.24-.11-.24-.24.11-.24.24-.24.23.11.23.24Z"/>
      <path class="cls-1" d="M160.23,373.67c0,.13-.11.24-.24.24s-.24-.11-.24-.24.11-.24.24-.24.24.11.24.24Z"/>
      <path class="cls-1" d="M168.35,369.51c0,.13-.11.24-.23.24s-.24-.11-.24-.24.11-.24.24-.24.23.11.23.24Z"/>
      <path class="cls-1" d="M130.05,349.17c0,.13-.11.24-.23.24s-.24-.11-.24-.24.11-.24.24-.24.23.11.23.24Z"/>
      <path class="cls-1" d="M130.05,335.07c0,.13-.11.24-.23.24s-.24-.11-.24-.24.11-.24.24-.24.23.11.23.24Z"/>
      <path class="cls-1" d="M110.31,339.02c0,.13-.11.24-.24.24s-.24-.11-.24-.24.11-.24.24-.24.24.11.24.24Z"/>
      <path class="cls-1" d="M86.18,325.2c0,.13-.11.24-.24.24s-.24-.11-.24-.24.11-.24.24-.24.24.11.24.24Z"/>
    </g>
  </g>
</svg>