<?xml version="1.0" encoding="UTF-8"?>
<svg id="Layer_2" data-name="Layer 2" xmlns="http://www.w3.org/2000/svg" viewBox="0 0 730.62 409.79">
  <defs>
    <style>
      .cls-1 {
        fill: #fffaef;
        stroke-width: 0px;
      }
    </style>
  </defs>
  <g id="BACKGROUND_2" data-name="BACKGROUND 2">
    <g>
      <path class="cls-1" d="M251.35,10.88c0,.13-.11.24-.24.24s-.24-.11-.24-.24.11-.24.24-.24.24.11.24.24Z"/>
      <path class="cls-1" d="M271.58,24.4c0,.13-.11.24-.24.24s-.24-.11-.24-.24.11-.24.24-.24.24.11.24.24Z"/>
      <path class="cls-1" d="M488.57,13.81c0,.13-.11.24-.24.24s-.24-.11-.24-.24.11-.24.24-.24.24.11.24.24Z"/>
      <path class="cls-1" d="M536.06,12.96c0,.13-.11.24-.24.24s-.24-.11-.24-.24.11-.24.24-.24.24.11.24.24Z"/>
      <path class="cls-1" d="M528.81,39.22c0,.13-.11.24-.24.24s-.24-.11-.24-.24.11-.24.24-.24.24.11.24.24Z"/>
      <path class="cls-1" d="M599.65,38.95c0,.13-.11.24-.24.24s-.24-.11-.24-.24.11-.24.24-.24.24.11.24.24Z"/>
      <path class="cls-1" d="M318.53,7c0,.13-.11.24-.24.24s-.24-.11-.24-.24.11-.24.24-.24.24.11.24.24Z"/>
      <path class="cls-1" d="M179,9.65c0,.13-.11.24-.24.24s-.24-.11-.24-.24.11-.24.24-.24.24.11.24.24Z"/>
      <path class="cls-1" d="M125.86,32.32c0,.13-.11.24-.24.24s-.24-.11-.24-.24.11-.24.24-.24.24.11.24.24Z"/>
      <path class="cls-1" d="M146.57,47.55c0,.13-.11.24-.24.24s-.24-.11-.24-.24.11-.24.24-.24.24.11.24.24Z"/>
      <path class="cls-1" d="M136.08,243.4c0,.13-.11.24-.24.24s-.24-.11-.24-.24.11-.24.24-.24.24.11.24.24Z"/>
      <path class="cls-1" d="M146.34,280.76c0,.13-.11.24-.23.24s-.24-.11-.24-.24.11-.24.24-.24.23.11.23.24Z"/>
      <path class="cls-1" d="M520.25,163.5c0,.13-.11.24-.24.24s-.24-.11-.24-.24.11-.24.24-.24.24.11.24.24Z"/>
      <path class="cls-1" d="M331.15,146.88c0,.13-.11.24-.24.24s-.24-.11-.24-.24.11-.24.24-.24.24.11.24.24Z"/>
      <path class="cls-1" d="M512.4,202.77c0,.13-.11.24-.24.24s-.24-.11-.24-.24.11-.24.24-.24.24.11.24.24Z"/>
      <path class="cls-1" d="M452.56,224.86c0,.13-.11.24-.24.24s-.24-.11-.24-.24.11-.24.24-.24.24.11.24.24Z"/>
      <path class="cls-1" d="M515.27,182.54c0,.13-.11.24-.24.24s-.24-.11-.24-.24.11-.24.24-.24.24.11.24.24Z"/>
      <path class="cls-1" d="M426.42,272.63c0,.13-.11.24-.24.24s-.24-.11-.24-.24.11-.24.24-.24.24.11.24.24Z"/>
      <path class="cls-1" d="M262.74,217.3c0,.13-.11.24-.23.24s-.24-.11-.24-.24.11-.24.24-.24.23.11.23.24Z"/>
      <path class="cls-1" d="M298.49,156.63c0,.13-.11.24-.24.24s-.24-.11-.24-.24.11-.24.24-.24.24.11.24.24Z"/>
      <path class="cls-1" d="M215.18,112.5c0,.13-.11.24-.23.24s-.24-.11-.24-.24.11-.24.24-.24.23.11.23.24Z"/>
      <path class="cls-1" d="M196.81,115.99c0,.13-.11.24-.24.24s-.24-.11-.24-.24.11-.24.24-.24.24.11.24.24Z"/>
      <path class="cls-1" d="M196.81,106.2c0,.13-.11.24-.24.24s-.24-.11-.24-.24.11-.24.24-.24.24.11.24.24Z"/>
      <path class="cls-1" d="M66.61,126.18c0,.13-.11.24-.24.24s-.24-.11-.24-.24.11-.24.24-.24.24.11.24.24Z"/>
      <path class="cls-1" d="M28.51,105.19c0,.13-.11.24-.24.24s-.24-.11-.24-.24.11-.24.24-.24.24.11.24.24Z"/>
      <path class="cls-1" d="M22.16,84.16c0,.13-.11.24-.24.24s-.24-.11-.24-.24.11-.24.24-.24.24.11.24.24Z"/>
      <path class="cls-1" d="M41.99,17.07c0,.13-.11.24-.24.24s-.24-.11-.24-.24.11-.24.24-.24.24.11.24.24Z"/>
      <path class="cls-1" d="M17.32,13.53c0,.13-.11.24-.24.24s-.24-.11-.24-.24.11-.24.24-.24.24.11.24.24Z"/>
      <path class="cls-1" d="M6.72,34.21c0,.13-.11.24-.24.24s-.24-.11-.24-.24.11-.24.24-.24.24.11.24.24Z"/>
      <path class="cls-1" d="M19.67,60.86c0,.13-.11.24-.24.24s-.24-.11-.24-.24.11-.24.24-.24.24.11.24.24Z"/>
      <path class="cls-1" d="M32.11,46.85c0,.13-.11.24-.24.24s-.24-.11-.24-.24.11-.24.24-.24.24.11.24.24Z"/>
      <path class="cls-1" d="M65.05,30.43c0,.13-.11.24-.24.24s-.24-.11-.24-.24.11-.24.24-.24.24.11.24.24Z"/>
      <path class="cls-1" d="M41.75,3.4c0,.13-.11.24-.24.24s-.24-.11-.24-.24.11-.24.24-.24.24.11.24.24Z"/>
      <path class="cls-1" d="M38.34,24.63c0,.13-.11.24-.24.24s-.24-.11-.24-.24.11-.24.24-.24.24.11.24.24Z"/>
      <path class="cls-1" d="M96.82,125.08c0,.13-.11.24-.24.24s-.24-.11-.24-.24.11-.24.24-.24.24.11.24.24Z"/>
      <path class="cls-1" d="M69.2,20.93c0,.13-.11.24-.24.24s-.24-.11-.24-.24.11-.24.24-.24.24.11.24.24Z"/>
      <path class="cls-1" d="M33.67,10.88c0,.13-.11.24-.24.24s-.24-.11-.24-.24.11-.24.24-.24.24.11.24.24Z"/>
      <path class="cls-1" d="M57.05,84.98c0,.13-.11.24-.24.24s-.24-.11-.24-.24.11-.24.24-.24.24.11.24.24Z"/>
      <path class="cls-1" d="M186.7,99.36c0,.13-.11.24-.23.24s-.24-.11-.24-.24.11-.24.24-.24.23.11.23.24Z"/>
      <path class="cls-1" d="M184.35,110.4c0,.13-.11.24-.24.24s-.24-.11-.24-.24.11-.24.24-.24.24.11.24.24Z"/>
      <path class="cls-1" d="M194.84,68.44c0,.13-.11.24-.24.24s-.24-.11-.24-.24.11-.24.24-.24.24.11.24.24Z"/>
      <path class="cls-1" d="M194.3,81.17c0,.13-.11.24-.24.24s-.24-.11-.24-.24.11-.24.24-.24.24.11.24.24Z"/>
      <path class="cls-1" d="M186.23,82.13c0,.13-.11.24-.24.24s-.24-.11-.24-.24.11-.24.24-.24.24.11.24.24Z"/>
      <path class="cls-1" d="M200.48,53.71c0,.13-.11.24-.23.24s-.24-.11-.24-.24.11-.24.24-.24.23.11.23.24Z"/>
      <path class="cls-1" d="M208.45,69.15c0,.13-.11.24-.24.24s-.24-.11-.24-.24.11-.24.24-.24.24.11.24.24Z"/>
      <path class="cls-1" d="M131.47,90.98c0,.13-.11.24-.24.24s-.24-.11-.24-.24.11-.24.24-.24.24.11.24.24Z"/>
      <path class="cls-1" d="M126.37,105.73c0,.13-.11.24-.23.24s-.24-.11-.24-.24.11-.24.24-.24.23.11.23.24Z"/>
      <path class="cls-1" d="M123.76,84.74c0,.13-.11.24-.24.24s-.24-.11-.24-.24.11-.24.24-.24.24.11.24.24Z"/>
      <path class="cls-1" d="M136.65,157.32c0,.13-.11.24-.23.24s-.24-.11-.24-.24.11-.24.24-.24.23.11.23.24Z"/>
      <path class="cls-1" d="M128.33,176.2c0,.13-.11.24-.23.24s-.24-.11-.24-.24.11-.24.24-.24.23.11.23.24Z"/>
      <path class="cls-1" d="M132.76,190.96c0,.13-.11.24-.23.24s-.24-.11-.24-.24.11-.24.24-.24.23.11.23.24Z"/>
      <path class="cls-1" d="M128.09,206.65c0,.13-.11.24-.24.24s-.24-.11-.24-.24.11-.24.24-.24.24.11.24.24Z"/>
      <path class="cls-1" d="M123.99,196.51c0,.13-.11.24-.24.24s-.24-.11-.24-.24.11-.24.24-.24.24.11.24.24Z"/>
      <path class="cls-1" d="M136.65,182.07c0,.13-.11.24-.23.24s-.24-.11-.24-.24.11-.24.24-.24.23.11.23.24Z"/>
      <path class="cls-1" d="M142.46,192.27c0,.13-.11.24-.24.24s-.24-.11-.24-.24.11-.24.24-.24.24.11.24.24Z"/>
      <path class="cls-1" d="M117.54,210.79c0,.13-.11.24-.24.24s-.24-.11-.24-.24.11-.24.24-.24.24.11.24.24Z"/>
      <path class="cls-1" d="M100.21,183.87c0,.13-.11.24-.24.24s-.24-.11-.24-.24.11-.24.24-.24.24.11.24.24Z"/>
      <path class="cls-1" d="M92.9,195.33c0,.13-.11.24-.24.24s-.24-.11-.24-.24.11-.24.24-.24.24.11.24.24Z"/>
      <path class="cls-1" d="M94.32,168.22c0,.13-.11.24-.24.24s-.24-.11-.24-.24.11-.24.24-.24.24.11.24.24Z"/>
      <path class="cls-1" d="M92.66,231.94c0,.13-.11.24-.24.24s-.24-.11-.24-.24.11-.24.24-.24.24.11.24.24Z"/>
      <path class="cls-1" d="M79.9,211.86c0,.13-.11.24-.24.24s-.24-.11-.24-.24.11-.24.24-.24.24.11.24.24Z"/>
      <path class="cls-1" d="M2.19,271.26c0,.13-.11.24-.24.24s-.24-.11-.24-.24.11-.24.24-.24.24.11.24.24Z"/>
      <path class="cls-1" d="M4.12,255.78c0,.13-.11.24-.24.24s-.24-.11-.24-.24.11-.24.24-.24.24.11.24.24Z"/>
      <path class="cls-1" d="M16.77,265.45c0,.13-.11.24-.24.24s-.24-.11-.24-.24.11-.24.24-.24.24.11.24.24Z"/>
      <path class="cls-1" d="M13.91,288.92c0,.13-.11.24-.24.24s-.24-.11-.24-.24.11-.24.24-.24.24.11.24.24Z"/>
      <path class="cls-1" d="M16.54,312.13c0,.13-.11.24-.24.24s-.24-.11-.24-.24.11-.24.24-.24.24.11.24.24Z"/>
      <path class="cls-1" d="M31.88,311.81c0,.13-.11.24-.24.24s-.24-.11-.24-.24.11-.24.24-.24.24.11.24.24Z"/>
      <path class="cls-1" d="M104.01,357.11c0,.13-.11.24-.24.24s-.24-.11-.24-.24.11-.24.24-.24.24.11.24.24Z"/>
      <path class="cls-1" d="M104.25,329.04c0,.13-.11.24-.24.24s-.24-.11-.24-.24.11-.24.24-.24.24.11.24.24Z"/>
      <path class="cls-1" d="M90.44,334.46c0,.13-.11.24-.24.24s-.24-.11-.24-.24.11-.24.24-.24.24.11.24.24Z"/>
      <path class="cls-1" d="M103.78,269.78c0,.13-.11.24-.24.24s-.24-.11-.24-.24.11-.24.24-.24.24.11.24.24Z"/>
      <path class="cls-1" d="M90.44,280.76c0,.13-.11.24-.24.24s-.24-.11-.24-.24.11-.24.24-.24.24.11.24.24Z"/>
      <path class="cls-1" d="M47.98,306.44c0,.13-.11.24-.24.24s-.24-.11-.24-.24.11-.24.24-.24.24.11.24.24Z"/>
      <path class="cls-1" d="M17.01,331.72c0,.13-.11.24-.24.24s-.24-.11-.24-.24.11-.24.24-.24.24.11.24.24Z"/>
      <path class="cls-1" d="M96.34,148.46c0,.13-.11.24-.24.24s-.24-.11-.24-.24.11-.24.24-.24.24.11.24.24Z"/>
      <path class="cls-1" d="M3.65,192.5c0,.13-.11.24-.24.24s-.24-.11-.24-.24.11-.24.24-.24.24.11.24.24Z"/>
      <path class="cls-1" d="M.47,72.31c0,.13-.11.24-.24.24s-.24-.11-.24-.24.11-.24.24-.24.24.11.24.24Z"/>
      <path class="cls-1" d="M76.82,112.74c0,.13-.11.24-.24.24s-.24-.11-.24-.24.11-.24.24-.24.24.11.24.24Z"/>
      <path class="cls-1" d="M55.47,130.64c0,.13-.11.24-.24.24s-.24-.11-.24-.24.11-.24.24-.24.24.11.24.24Z"/>
      <path class="cls-1" d="M27.41,171.05c0,.13-.11.24-.24.24s-.24-.11-.24-.24.11-.24.24-.24.24.11.24.24Z"/>
      <path class="cls-1" d="M1.72,86.29c0,.13-.11.24-.24.24s-.24-.11-.24-.24.11-.24.24-.24.24.11.24.24Z"/>
      <path class="cls-1" d="M73.54,181.59c0,.13-.11.24-.24.24s-.24-.11-.24-.24.11-.24.24-.24.24.11.24.24Z"/>
      <path class="cls-1" d="M216.28,175.97c0,.13-.11.24-.24.24s-.24-.11-.24-.24.11-.24.24-.24.24.11.24.24Z"/>
      <path class="cls-1" d="M211.58,207.16c0,.13-.11.24-.24.24s-.24-.11-.24-.24.11-.24.24-.24.24.11.24.24Z"/>
      <path class="cls-1" d="M152.5,170.58c0,.13-.11.24-.23.24s-.24-.11-.24-.24.11-.24.24-.24.23.11.23.24Z"/>
      <path class="cls-1" d="M136.41,27.91c0,.13-.11.24-.24.24s-.24-.11-.24-.24.11-.24.24-.24.24.11.24.24Z"/>
      <path class="cls-1" d="M124.23,15.97c0,.13-.11.24-.23.24s-.24-.11-.24-.24.11-.24.24-.24.23.11.23.24Z"/>
      <path class="cls-1" d="M145.87,14.77c0,.13-.11.24-.24.24s-.24-.11-.24-.24.11-.24.24-.24.24.11.24.24Z"/>
      <circle class="cls-1" cx="142.46" cy="2.56" r=".24"/>
      <path class="cls-1" d="M160.88,3.87c0,.13-.11.24-.24.24s-.24-.11-.24-.24.11-.24.24-.24.24.11.24.24Z"/>
      <path class="cls-1" d="M161.36,20.03c0,.13-.11.24-.24.24s-.24-.11-.24-.24.11-.24.24-.24.24.11.24.24Z"/>
      <path class="cls-1" d="M155.24,29c0,.13-.11.24-.24.24s-.24-.11-.24-.24.11-.24.24-.24.24.11.24.24Z"/>
      <path class="cls-1" d="M191.45,4.11c0,.13-.11.24-.24.24s-.24-.11-.24-.24.11-.24.24-.24.24.11.24.24Z"/>
      <path class="cls-1" d="M211.34,19.19c0,.13-.11.24-.24.24s-.24-.11-.24-.24.11-.24.24-.24.24.11.24.24Z"/>
      <path class="cls-1" d="M219.89,6.72c0,.13-.11.24-.24.24s-.24-.11-.24-.24.11-.24.24-.24.24.11.24.24Z"/>
      <path class="cls-1" d="M232.91,23.69c0,.13-.11.24-.23.24s-.24-.11-.24-.24.11-.24.24-.24.23.11.23.24Z"/>
      <path class="cls-1" d="M242.16,18.96c0,.13-.11.24-.24.24s-.24-.11-.24-.24.11-.24.24-.24.24.11.24.24Z"/>
      <path class="cls-1" d="M253.67,23.46c0,.13-.11.24-.23.24s-.24-.11-.24-.24.11-.24.24-.24.23.11.23.24Z"/>
      <path class="cls-1" d="M262.74,8.8c0,.13-.11.24-.23.24s-.24-.11-.24-.24.11-.24.24-.24.23.11.23.24Z"/>
      <path class="cls-1" d="M271.82,109.84c0,.13-.11.24-.23.24s-.24-.11-.24-.24.11-.24.24-.24.23.11.23.24Z"/>
      <path class="cls-1" d="M260.34,126.97c0,.13-.11.24-.24.24s-.24-.11-.24-.24.11-.24.24-.24.24.11.24.24Z"/>
      <path class="cls-1" d="M246.33,138.32c0,.13-.11.24-.24.24s-.24-.11-.24-.24.11-.24.24-.24.24.11.24.24Z"/>
      <path class="cls-1" d="M253.91,145.87c0,.13-.11.24-.24.24s-.24-.11-.24-.24.11-.24.24-.24.24.11.24.24Z"/>
      <path class="cls-1" d="M260.88,134.82c0,.13-.11.24-.24.24s-.24-.11-.24-.24.11-.24.24-.24.24.11.24.24Z"/>
      <path class="cls-1" d="M276.89,133.17c0,.13-.11.24-.23.24s-.24-.11-.24-.24.11-.24.24-.24.23.11.23.24Z"/>
      <path class="cls-1" d="M278.36,145.64c0,.13-.11.24-.24.24s-.24-.11-.24-.24.11-.24.24-.24.24.11.24.24Z"/>
      <path class="cls-1" d="M272.05,157.32c0,.13-.11.24-.24.24s-.24-.11-.24-.24.11-.24.24-.24.24.11.24.24Z"/>
      <path class="cls-1" d="M262.74,97.85c0,.13-.11.24-.23.24s-.24-.11-.24-.24.11-.24.24-.24.23.11.23.24Z"/>
      <path class="cls-1" d="M298.96,106.68c0,.13-.11.24-.23.24s-.24-.11-.24-.24.11-.24.24-.24.23.11.23.24Z"/>
      <path class="cls-1" d="M306,99.9c0,.13-.11.24-.24.24s-.24-.11-.24-.24.11-.24.24-.24.24.11.24.24Z"/>
      <path class="cls-1" d="M320.91,112.5c0,.13-.11.24-.24.24s-.24-.11-.24-.24.11-.24.24-.24.24.11.24.24Z"/>
      <path class="cls-1" d="M336.58,66.26c0,.13-.11.24-.24.24s-.24-.11-.24-.24.11-.24.24-.24.24.11.24.24Z"/>
      <path class="cls-1" d="M366.26,85.74c0,.13-.11.24-.23.24s-.24-.11-.24-.24.11-.24.24-.24.23.11.23.24Z"/>
      <path class="cls-1" d="M366.5,73.09c0,.13-.11.24-.24.24s-.24-.11-.24-.24.11-.24.24-.24.24.11.24.24Z"/>
      <path class="cls-1" d="M367.59,37.73c0,.13-.11.24-.24.24s-.24-.11-.24-.24.11-.24.24-.24.24.11.24.24Z"/>
      <path class="cls-1" d="M349.87,5.75c0,.13-.11.24-.24.24s-.24-.11-.24-.24.11-.24.24-.24.24.11.24.24Z"/>
      <path class="cls-1" d="M362.67,3.63c0,.13-.11.24-.23.24s-.24-.11-.24-.24.11-.24.24-.24.23.11.23.24Z"/>
      <path class="cls-1" d="M489.09,56.12c0,.13-.11.24-.24.24s-.24-.11-.24-.24.11-.24.24-.24.24.11.24.24Z"/>
      <path class="cls-1" d="M493.93,42.83c0,.13-.11.24-.24.24s-.24-.11-.24-.24.11-.24.24-.24.24.11.24.24Z"/>
      <path class="cls-1" d="M481.34,44.2c0,.13-.11.24-.24.24s-.24-.11-.24-.24.11-.24.24-.24.24.11.24.24Z"/>
      <path class="cls-1" d="M494.58,23.22c0,.13-.11.24-.24.24s-.24-.11-.24-.24.11-.24.24-.24.24.11.24.24Z"/>
      <path class="cls-1" d="M438.01,2.09c0,.13-.11.24-.24.24s-.24-.11-.24-.24.11-.24.24-.24.24.11.24.24Z"/>
      <path class="cls-1" d="M140.58,131.86c0,.13-.11.24-.24.24s-.24-.11-.24-.24.11-.24.24-.24.24.11.24.24Z"/>
      <ellipse class="cls-1" cx="365.34" cy="243.4" rx=".35" ry=".24"/>
      <path class="cls-1" d="M131.7,70.77c0,.13-.11.24-.24.24s-.24-.11-.24-.24.11-.24.24-.24.24.11.24.24Z"/>
      <path class="cls-1" d="M243.97,36.02c0,.13-.11.24-.24.24s-.24-.11-.24-.24.11-.24.24-.24.24.11.24.24Z"/>
      <path class="cls-1" d="M250,110.94c0,.13-.11.24-.23.24s-.24-.11-.24-.24.11-.24.24-.24.23.11.23.24Z"/>
      <path class="cls-1" d="M456.56,90.98c0,.3-.24.54-.54.54s-.54-.24-.54-.54.24-.54.54-.54.54.24.54.54Z"/>
      <path class="cls-1" d="M476.97,110.4c0,.3-.24.54-.54.54s-.54-.24-.54-.54.24-.54.54-.54.54.24.54.54Z"/>
      <path class="cls-1" d="M467.6,186.51c0,.3-.24.54-.54.54s-.54-.24-.54-.54.24-.54.54-.54.54.24.54.54Z"/>
      <path class="cls-1" d="M375.39,267.4c0,.3-.24.54-.54.54s-.54-.24-.54-.54.24-.54.54-.54.54.24.54.54Z"/>
      <path class="cls-1" d="M406.29,303.83c0,.3-.24.54-.54.54s-.54-.24-.54-.54.24-.54.54-.54.54.24.54.54Z"/>
      <path class="cls-1" d="M316.12,333.05c0,.3-.24.54-.54.54s-.54-.24-.54-.54.24-.54.54-.54.54.24.54.54Z"/>
      <path class="cls-1" d="M315.18,237.62c0,.3-.24.54-.54.54s-.54-.24-.54-.54.24-.54.54-.54.54.24.54.54Z"/>
      <path class="cls-1" d="M596.46,228.74c0,.3-.24.54-.54.54s-.54-.24-.54-.54.24-.54.54-.54.54.24.54.54Z"/>
      <path class="cls-1" d="M584.44,139.4c0,.3-.24.54-.54.54s-.54-.24-.54-.54.24-.54.54-.54.54.24.54.54Z"/>
      <path class="cls-1" d="M554.08,105.97c0,.3-.24.54-.54.54s-.54-.24-.54-.54.24-.54.54-.54.54.24.54.54Z"/>
      <path class="cls-1" d="M561.67,78.54c0,.3-.24.54-.54.54s-.54-.24-.54-.54.24-.54.54-.54.54.24.54.54Z"/>
      <path class="cls-1" d="M653.28,70.77c0,.3-.24.54-.54.54s-.54-.24-.54-.54.24-.54.54-.54.54.24.54.54Z"/>
      <path class="cls-1" d="M619.28,142.3c0,.3-.24.54-.54.54s-.54-.24-.54-.54.24-.54.54-.54.54.24.54.54Z"/>
      <path class="cls-1" d="M619.82,122.56c0,.3-.24.54-.54.54s-.54-.24-.54-.54.24-.54.54-.54.54.24.54.54Z"/>
      <path class="cls-1" d="M639.41,185.18c0,.3-.24.54-.54.54s-.54-.24-.54-.54.24-.54.54-.54.54.24.54.54Z"/>
      <path class="cls-1" d="M618.75,170.58c0,.3-.24.54-.54.54s-.54-.24-.54-.54.24-.54.54-.54.54.24.54.54Z"/>
      <path class="cls-1" d="M620.36,204.65c0,.3-.24.54-.54.54s-.54-.24-.54-.54.24-.54.54-.54.54.24.54.54Z"/>
      <path class="cls-1" d="M707.95,189.88c0,.3-.24.54-.54.54s-.54-.24-.54-.54.24-.54.54-.54.54.24.54.54Z"/>
      <path class="cls-1" d="M726.07,126.95c0,.3-.24.54-.54.54s-.54-.24-.54-.54.24-.54.54-.54.54.24.54.54Z"/>
      <path class="cls-1" d="M643.3,35.01c0,.3-.24.54-.54.54s-.54-.24-.54-.54.24-.54.54-.54.54.24.54.54Z"/>
      <path class="cls-1" d="M664.75,13.57c0,.3-.24.54-.54.54s-.54-.24-.54-.54.24-.54.54-.54.54.24.54.54Z"/>
      <path class="cls-1" d="M614.08,5.52c0,.3-.24.54-.54.54s-.54-.24-.54-.54.24-.54.54-.54.54.24.54.54Z"/>
      <path class="cls-1" d="M708.49,59.48c0,.3-.24.54-.54.54s-.54-.24-.54-.54.24-.54.54-.54.54.24.54.54Z"/>
      <path class="cls-1" d="M707.41,16.09c0,.3-.24.54-.54.54s-.54-.24-.54-.54.24-.54.54-.54.54.24.54.54Z"/>
      <path class="cls-1" d="M721.39,32.98c0,.3-.24.54-.54.54s-.54-.24-.54-.54.24-.54.54-.54.54.24.54.54Z"/>
      <path class="cls-1" d="M730.62,11.75c0,.3-.24.54-.54.54s-.54-.24-.54-.54.24-.54.54-.54.54.24.54.54Z"/>
      <path class="cls-1" d="M702.7,153.83c0,.3-.24.54-.54.54s-.54-.24-.54-.54.24-.54.54-.54.54.24.54.54Z"/>
      <path class="cls-1" d="M654.36,233.18c0,.3-.24.54-.54.54s-.54-.24-.54-.54.24-.54.54-.54.54.24.54.54Z"/>
      <path class="cls-1" d="M638.88,256.4c0,.3-.24.54-.54.54s-.54-.24-.54-.54.24-.54.54-.54.54.24.54.54Z"/>
      <path class="cls-1" d="M632.21,231.71c0,.3-.24.54-.54.54s-.54-.24-.54-.54.24-.54.54-.54.54.24.54.54Z"/>
      <path class="cls-1" d="M632.75,279.84c0,.3-.24.54-.54.54s-.54-.24-.54-.54.24-.54.54-.54.54.24.54.54Z"/>
      <path class="cls-1" d="M660.21,288.41c0,.3-.24.54-.54.54s-.54-.24-.54-.54.24-.54.54-.54.54.24.54.54Z"/>
      <path class="cls-1" d="M722.17,218.01c0,.3-.24.54-.54.54s-.54-.24-.54-.54.24-.54.54-.54.54.24.54.54Z"/>
      <path class="cls-1" d="M706.3,277.27c0,.3-.24.54-.54.54s-.54-.24-.54-.54.24-.54.54-.54.54.24.54.54Z"/>
      <path class="cls-1" d="M526.09,75.2c0,.3-.24.54-.54.54s-.54-.24-.54-.54.24-.54.54-.54.54.24.54.54Z"/>
      <path class="cls-1" d="M528.88,48.49c0,.3-.24.54-.54.54s-.54-.24-.54-.54.24-.54.54-.54.54.24.54.54Z"/>
      <path class="cls-1" d="M597.18,28.77c0,.3-.24.54-.54.54s-.54-.24-.54-.54.24-.54.54-.54.54.24.54.54Z"/>
      <path class="cls-1" d="M606.6,47.78c0,.3-.24.54-.54.54s-.54-.24-.54-.54.24-.54.54-.54.54.24.54.54Z"/>
      <path class="cls-1" d="M357.42,35.55c0,.3-.24.54-.54.54s-.54-.24-.54-.54.24-.54.54-.54.54.24.54.54Z"/>
      <path class="cls-1" d="M368.67,25.27c0,.3-.24.54-.54.54s-.54-.24-.54-.54.24-.54.54-.54.54.24.54.54Z"/>
      <path class="cls-1" d="M311.02,20.03c0,.3-.24.54-.54.54s-.54-.24-.54-.54.24-.54.54-.54.54.24.54.54Z"/>
      <path class="cls-1" d="M339.25,256.4c0,.3-.24.54-.54.54s-.54-.24-.54-.54.24-.54.54-.54.54.24.54.54Z"/>
      <path class="cls-1" d="M298.13,89.88c0,.3-.24.54-.54.54s-.54-.24-.54-.54.24-.54.54-.54.54.24.54.54Z"/>
      <path class="cls-1" d="M267.11,46.31c0,.3-.24.54-.54.54s-.54-.24-.54-.54.24-.54.54-.54.54.24.54.54Z"/>
      <path class="cls-1" d="M276.01,3.4c0,.3-.24.54-.54.54s-.54-.24-.54-.54.24-.54.54-.54.54.24.54.54Z"/>
      <path class="cls-1" d="M233.45,1.62c0,.3-.24.54-.54.54s-.54-.24-.54-.54.24-.54.54-.54.54.24.54.54Z"/>
      <path class="cls-1" d="M203.36.54c0,.3-.24.54-.54.54s-.54-.24-.54-.54.24-.54.54-.54.54.24.54.54Z"/>
      <path class="cls-1" d="M382.68,6.45c0,.3-.24.54-.54.54s-.54-.24-.54-.54.24-.54.54-.54.54.24.54.54Z"/>
      <path class="cls-1" d="M408.02,1.08c0,.3-.24.54-.54.54s-.54-.24-.54-.54.24-.54.54-.54.54.24.54.54Z"/>
      <path class="cls-1" d="M425.29,9.88c0,.3-.24.54-.54.54s-.54-.24-.54-.54.24-.54.54-.54.54.24.54.54Z"/>
      <path class="cls-1" d="M220.73,69.69c0,.3-.24.54-.54.54s-.54-.24-.54-.54.24-.54.54-.54.54.24.54.54Z"/>
      <path class="cls-1" d="M229.7,99.36c0,.3-.24.54-.54.54s-.54-.24-.54-.54.24-.54.54-.54.54.24.54.54Z"/>
      <path class="cls-1" d="M279.54,121.44c0,.39-.32.71-.71.71s-.71-.32-.71-.71.32-.71.71-.71.71.32.71.71Z"/>
      <path class="cls-1" d="M170.7,68.44c0,.39-.32.71-.71.71s-.71-.32-.71-.71.32-.71.71-.71.71.32.71.71Z"/>
      <path class="cls-1" d="M147.75,25.11c0,.39-.32.71-.71.71s-.71-.32-.71-.71.32-.71.71-.71.71.32.71.71Z"/>
      <path class="cls-1" d="M181.45,24.4c0,.39-.32.71-.71.71s-.71-.32-.71-.71.32-.71.71-.71.71.32.71.71Z"/>
      <path class="cls-1" d="M547.05,191.65c0,.39-.32.71-.71.71s-.71-.32-.71-.71.32-.71.71-.71.71.32.71.71Z"/>
      <path class="cls-1" d="M434.31,191.65c0,.39-.32.71-.71.71s-.71-.32-.71-.71.32-.71.71-.71.71.32.71.71Z"/>
      <path class="cls-1" d="M208.22,186.51c0,.39-.32.71-.71.71s-.71-.32-.71-.71.32-.71.71-.71.71.32.71.71Z"/>
      <path class="cls-1" d="M195.55,251.73c0,.39-.32.71-.71.71s-.71-.32-.71-.71.32-.71.71-.71.71.32.71.71Z"/>
      <path class="cls-1" d="M178.36,301.74c0,.39-.32.71-.71.71s-.71-.32-.71-.71.32-.71.71-.71.71.32.71.71Z"/>
      <path class="cls-1" d="M75.08,363.47c0,.39-.32.71-.71.71s-.71-.32-.71-.71.32-.71.71-.71.71.32.71.71Z"/>
      <path class="cls-1" d="M27.88,258.65c0,.39-.32.71-.71.71s-.71-.32-.71-.71.32-.71.71-.71.71.32.71.71Z"/>
      <path class="cls-1" d="M81.08,147.76c0,.39-.32.71-.71.71s-.71-.32-.71-.71.32-.71.71-.71.71.32.71.71Z"/>
      <path class="cls-1" d="M11.17,224.15c0,.39-.32.71-.71.71s-.71-.32-.71-.71.32-.71.71-.71.71.32.71.71Z"/>
      <path class="cls-1" d="M76.58,303.83c0,.39-.32.71-.71.71s-.71-.32-.71-.71.32-.71.71-.71.71.32.71.71Z"/>
      <path class="cls-1" d="M77.29,238.16c0,.39-.32.71-.71.71s-.71-.32-.71-.71.32-.71.71-.71.71.32.71.71Z"/>
      <path class="cls-1" d="M28.2,187.22c0,.39-.32.71-.71.71s-.71-.32-.71-.71.32-.71.71-.71.71.32.71.71Z"/>
      <path class="cls-1" d="M12.58,98.72c0,.39-.32.71-.71.71s-.71-.32-.71-.71.32-.71.71-.71.71.32.71.71Z"/>
      <path class="cls-1" d="M94.08,91.99c0,.39-.32.71-.71.71s-.71-.32-.71-.71.32-.71.71-.71.71.32.71.71Z"/>
      <path class="cls-1" d="M81.08,5.52c0,.39-.32.71-.71.71s-.71-.32-.71-.71.32-.71.71-.71.71.32.71.71Z"/>
      <path class="cls-1" d="M5.38,3.87c0,.39-.32.71-.71.71s-.71-.32-.71-.71.32-.71.71-.71.71.32.71.71Z"/>
      <path class="cls-1" d="M17.08,29.24c0,.39-.32.71-.71.71s-.71-.32-.71-.71.32-.71.71-.71.71.32.71.71Z"/>
      <path class="cls-1" d="M44.58,15.05c0,.39-.32.71-.71.71s-.71-.32-.71-.71.32-.71.71-.71.71.32.71.71Z"/>
      <path class="cls-1" d="M93.37,32.74c0,.39-.32.71-.71.71s-.71-.32-.71-.71.32-.71.71-.71.71.32.71.71Z"/>
      <path class="cls-1" d="M11.87,147.19c0,.39-.32.71-.71.71s-.71-.32-.71-.71.32-.71.71-.71.71.32.71.71Z"/>
      <path class="cls-1" d="M43.17,168.93c0,.39-.32.71-.71.71s-.71-.32-.71-.71.32-.71.71-.71.71.32.71.71Z"/>
      <path class="cls-1" d="M559.43,132.94c0,.39-.32.71-.71.71s-.71-.32-.71-.71.32-.71.71-.71.71.32.71.71Z"/>
      <path class="cls-1" d="M561.37,295.93c0,.39-.32.71-.71.71s-.71-.32-.71-.71.32-.71.71-.71.71.32.71.71Z"/>
      <path class="cls-1" d="M495.69,324.02c0,.39-.32.71-.71.71s-.71-.32-.71-.71.32-.71.71-.71.71.32.71.71Z"/>
      <path class="cls-1" d="M496.39,357.75c0,.39-.32.71-.71.71s-.71-.32-.71-.71.32-.71.71-.71.71.32.71.71Z"/>
      <path class="cls-1" d="M463.4,377.84c0,.39-.32.71-.71.71s-.71-.32-.71-.71.32-.71.71-.71.71.32.71.71Z"/>
      <path class="cls-1" d="M343.86,409.08c0,.39-.32.71-.71.71s-.71-.32-.71-.71.32-.71.71-.71.71.32.71.71Z"/>
      <path class="cls-1" d="M232.55,377.13c0,.39-.32.71-.71.71s-.71-.32-.71-.71.32-.71.71-.71.71.32.71.71Z"/>
      <path class="cls-1" d="M142.22,217.07c0,.39-.32.71-.71.71s-.71-.32-.71-.71.32-.71.71-.71.71.32.71.71Z"/>
      <path class="cls-1" d="M510.29,257.64c0,.39-.32.71-.71.71s-.71-.32-.71-.71.32-.71.71-.71.71.32.71.71Z"/>
      <path class="cls-1" d="M344.57,195.8c0,.39-.32.71-.71.71s-.71-.32-.71-.71.32-.71.71-.71.71.32.71.71Z"/>
      <path class="cls-1" d="M393.82,133.88c0,.39-.32.71-.71.71s-.71-.32-.71-.71.32-.71.71-.71.71.32.71.71Z"/>
      <path class="cls-1" d="M187.64,356.4c0,.39-.32.71-.71.71s-.71-.32-.71-.71.32-.71.71-.71.71.32.71.71Z"/>
      <path class="cls-1" d="M153.67,333.76c0,.39-.32.71-.71.71s-.71-.32-.71-.71.32-.71.71-.71.71.32.71.71Z"/>
      <path class="cls-1" d="M162.06,266.15c0,.39-.32.71-.71.71s-.71-.32-.71-.71.32-.71.71-.71.71.32.71.71Z"/>
      <path class="cls-1" d="M262.5,169.4c0,.39-.32.71-.71.71s-.71-.32-.71-.71.32-.71.71-.71.71.32.71.71Z"/>
      <path class="cls-1" d="M326.69,286.53c0,.3-.24.54-.54.54s-.54-.24-.54-.54.24-.54.54-.54.54.24.54.54Z"/>
      <path class="cls-1" d="M242.47,272.87c0,.3-.24.54-.54.54s-.54-.24-.54-.54.24-.54.54-.54.54.24.54.54Z"/>
      <path class="cls-1" d="M123.52,155.99c0,.3-.24.54-.54.54s-.54-.24-.54-.54.24-.54.54-.54.54.24.54.54Z"/>
      <path class="cls-1" d="M268.55,146.65c0,.3-.24.54-.54.54s-.54-.24-.54-.54.24-.54.54-.54.54.24.54.54Z"/>
      <path class="cls-1" d="M276.66,86.83c0,.3-.24.54-.54.54s-.54-.24-.54-.54.24-.54.54-.54.54.24.54.54Z"/>
      <path class="cls-1" d="M310.49,121.44c0,.3-.24.54-.54.54s-.54-.24-.54-.54.24-.54.54-.54.54.24.54.54Z"/>
      <path class="cls-1" d="M354.92,19.73c0,.3-.24.54-.54.54s-.54-.24-.54-.54.24-.54.54-.54.54.24.54.54Z"/>
      <path class="cls-1" d="M378.15,64.18c0,.3-.24.54-.54.54s-.54-.24-.54-.54.24-.54.54-.54.54.24.54.54Z"/>
      <path class="cls-1" d="M331.45,163.73c0,.3-.24.54-.54.54s-.54-.24-.54-.54.24-.54.54-.54.54.24.54.54Z"/>
      <path class="cls-1" d="M188.18,258.35c0,.3-.24.54-.54.54s-.54-.24-.54-.54.24-.54.54-.54.54.24.54.54Z"/>
      <path class="cls-1" d="M180.29,243.16c0,.3-.24.54-.54.54s-.54-.24-.54-.54.24-.54.54-.54.54.24.54.54Z"/>
      <path class="cls-1" d="M203.9,233.18c0,.3-.24.54-.54.54s-.54-.24-.54-.54.24-.54.54-.54.54.24.54.54Z"/>
      <path class="cls-1" d="M177.36,209.01c0,.3-.24.54-.54.54s-.54-.24-.54-.54.24-.54.54-.54.54.24.54.54Z"/>
      <path class="cls-1" d="M260.65,198.41c0,.3-.24.54-.54.54s-.54-.24-.54-.54.24-.54.54-.54.54.24.54.54Z"/>
      <path class="cls-1" d="M238.91,211.32c0,.3-.24.54-.54.54s-.54-.24-.54-.54.24-.54.54-.54.54.24.54.54Z"/>
      <path class="cls-1" d="M560.19,285.99c0,.3-.24.54-.54.54s-.54-.24-.54-.54.24-.54.54-.54.54.24.54.54Z"/>
      <path class="cls-1" d="M283.33,348.13c0,.3-.24.54-.54.54s-.54-.24-.54-.54.24-.54.54-.54.54.24.54.54Z"/>
      <path class="cls-1" d="M229.16,246.43c0,.35-.29.64-.64.64s-.64-.29-.64-.64.29-.64.64-.64.64.29.64.64Z"/>
      <path class="cls-1" d="M212.48,289.69c0,.35-.29.64-.64.64s-.64-.29-.64-.64.29-.64.64-.64.64.29.64.64Z"/>
      <path class="cls-1" d="M191.86,147.76c0,.35-.29.64-.64.64s-.64-.29-.64-.64.29-.64.64-.64.64.29.64.64Z"/>
      <path class="cls-1" d="M430.08,98.72c0,.35-.29.64-.64.64s-.64-.29-.64-.64.29-.64.64-.64.64.29.64.64Z"/>
      <path class="cls-1" d="M417.6,56.76c0,.35-.29.64-.64.64s-.64-.29-.64-.64.29-.64.64-.64.64.29.64.64Z"/>
      <path class="cls-1" d="M494.98,109.86c0,.35-.29.64-.64.64s-.64-.29-.64-.64.29-.64.64-.64.64.29.64.64Z"/>
      <path class="cls-1" d="M484.71,185.18c0,.35-.29.64-.64.64s-.64-.29-.64-.64.29-.64.64-.64.64.29.64.64Z"/>
      <path class="cls-1" d="M576.48,169.94c0,.35-.29.64-.64.64s-.64-.29-.64-.64.29-.64.64-.64.64.29.64.64Z"/>
      <path class="cls-1" d="M537.1,280.76c0,.35-.29.64-.64.64s-.64-.29-.64-.64.29-.64.64-.64.64.29.64.64Z"/>
      <path class="cls-1" d="M497.03,289.05c0,.35-.29.64-.64.64s-.64-.29-.64-.64.29-.64.64-.64.64.29.64.64Z"/>
      <path class="cls-1" d="M562.21,262.7c0,.35-.29.64-.64.64s-.64-.29-.64-.64.29-.64.64-.64.64.29.64.64Z"/>
      <path class="cls-1" d="M458.97,292.05c0,.35-.29.64-.64.64s-.64-.29-.64-.64.29-.64.64-.64.64.29.64.64Z"/>
      <path class="cls-1" d="M460,328.17c0,.35-.29.64-.64.64s-.64-.29-.64-.64.29-.64.64-.64.64.29.64.64Z"/>
      <path class="cls-1" d="M376.63,334.4c0,.35-.29.64-.64.64s-.64-.29-.64-.64.29-.64.64-.64.64.29.64.64Z"/>
      <path class="cls-1" d="M296.74,308.53c0,.35-.29.64-.64.64s-.64-.29-.64-.64.29-.64.64-.64.64.29.64.64Z"/>
      <path class="cls-1" d="M367.47,356.4c0,.35-.29.64-.64.64s-.64-.29-.64-.64.29-.64.64-.64.64.29.64.64Z"/>
      <path class="cls-1" d="M367.36,157.32c0,.74-.6,1.33-1.33,1.33s-1.33-.6-1.33-1.33.6-1.33,1.33-1.33,1.33.6,1.33,1.33Z"/>
      <path class="cls-1" d="M180.09,228.74c0,.74-.6,1.33-1.33,1.33s-1.33-.6-1.33-1.33.6-1.33,1.33-1.33,1.33.6,1.33,1.33Z"/>
      <path class="cls-1" d="M85.21,184.11c0,.74-.6,1.33-1.33,1.33s-1.33-.6-1.33-1.33.6-1.33,1.33-1.33,1.33.6,1.33,1.33Z"/>
      <path class="cls-1" d="M29.85,333.05c0,.74-.6,1.33-1.33,1.33s-1.33-.6-1.33-1.33.6-1.33,1.33-1.33,1.33.6,1.33,1.33Z"/>
      <path class="cls-1" d="M13.68,77.43c0,.74-.6,1.33-1.33,1.33s-1.33-.6-1.33-1.33.6-1.33,1.33-1.33,1.33.6,1.33,1.33Z"/>
      <path class="cls-1" d="M83.87,126.42c0,.74-.6,1.33-1.33,1.33s-1.33-.6-1.33-1.33.6-1.33,1.33-1.33,1.33.6,1.33,1.33Z"/>
      <path class="cls-1" d="M162.69,117.32c0,.74-.6,1.33-1.33,1.33s-1.33-.6-1.33-1.33.6-1.33,1.33-1.33,1.33.6,1.33,1.33Z"/>
      <path class="cls-1" d="M217.61,29.24c0,.74-.6,1.33-1.33,1.33s-1.33-.6-1.33-1.33.6-1.33,1.33-1.33,1.33.6,1.33,1.33Z"/>
      <path class="cls-1" d="M345.19,111.17c0,.74-.6,1.33-1.33,1.33s-1.33-.6-1.33-1.33.6-1.33,1.33-1.33,1.33.6,1.33,1.33Z"/>
      <path class="cls-1" d="M352.16,55.04c0,.74-.6,1.33-1.33,1.33s-1.33-.6-1.33-1.33.6-1.33,1.33-1.33,1.33.6,1.33,1.33Z"/>
      <circle class="cls-1" cx="450.81" cy="139.4" r="1.33"/>
      <path class="cls-1" d="M680.21,148.4c0,.74-.6,1.33-1.33,1.33s-1.33-.6-1.33-1.33.6-1.33,1.33-1.33,1.33.6,1.33,1.33Z"/>
      <circle class="cls-1" cx="693.58" cy="44.44" r="1.33"/>
      <path class="cls-1" d="M725.53,266.98c0,.74-.6,1.33-1.33,1.33s-1.33-.6-1.33-1.33.6-1.33,1.33-1.33,1.33.6,1.33,1.33Z"/>
      <path class="cls-1" d="M642.29,311.81c0,.74-.6,1.33-1.33,1.33s-1.33-.6-1.33-1.33.6-1.33,1.33-1.33,1.33.6,1.33,1.33Z"/>
      <path class="cls-1" d="M647.23,363.47c0,.74-.6,1.33-1.33,1.33s-1.33-.6-1.33-1.33.6-1.33,1.33-1.33,1.33.6,1.33,1.33Z"/>
      <path class="cls-1" d="M499.06,67.74c0,.74-.6,1.33-1.33,1.33s-1.33-.6-1.33-1.33.6-1.33,1.33-1.33,1.33.6,1.33,1.33Z"/>
      <circle class="cls-1" cx="548.93" cy="18.4" r="1.33"/>
      <path class="cls-1" d="M534.91,86.83c0,.74-.6,1.33-1.33,1.33s-1.33-.6-1.33-1.33.6-1.33,1.33-1.33,1.33.6,1.33,1.33Z"/>
      <path class="cls-1" d="M514.8,20.81c0,.74-.6,1.33-1.33,1.33s-1.33-.6-1.33-1.33.6-1.33,1.33-1.33,1.33.6,1.33,1.33Z"/>
      <circle class="cls-1" cx="230.04" cy="11.12" r="1.33"/>
      <path class="cls-1" d="M303.6,216.36c0,.74-.6,1.33-1.33,1.33s-1.33-.6-1.33-1.33.6-1.33,1.33-1.33,1.33.6,1.33,1.33Z"/>
      <path class="cls-1" d="M155,11.66c0,.74-.6,1.33-1.33,1.33s-1.33-.6-1.33-1.33.6-1.33,1.33-1.33,1.33.6,1.33,1.33Z"/>
      <path class="cls-1" d="M453.66,17.07c0,.74-.6,1.33-1.33,1.33s-1.33-.6-1.33-1.33.6-1.33,1.33-1.33,1.33.6,1.33,1.33Z"/>
    </g>
  </g>
</svg>