<?xml version="1.0" encoding="UTF-8"?>
<svg id="Layer_2" data-name="Layer 2" xmlns="http://www.w3.org/2000/svg" viewBox="0 0 722.85 418.43">
  <defs>
    <style>
      .cls-1 {
        fill: #fffaef;
        stroke-width: 0px;
      }
    </style>
  </defs>
  <g id="BACKGROUND_2" data-name="BACKGROUND 2">
    <g>
      <path class="cls-1" d="M32.99,360.76c0,.13-.11.24-.24.24s-.24-.11-.24-.24.11-.24.24-.24.24.11.24.24Z"/>
      <path class="cls-1" d="M119.81,229.35c0,.13-.11.24-.24.24s-.24-.11-.24-.24.11-.24.24-.24.24.11.24.24Z"/>
      <path class="cls-1" d="M113.14,240.63c0,.13-.11.24-.24.24s-.24-.11-.24-.24.11-.24.24-.24.24.11.24.24Z"/>
      <path class="cls-1" d="M71.4,191.49c0,.13-.11.24-.24.24s-.24-.11-.24-.24.11-.24.24-.24.24.11.24.24Z"/>
      <path class="cls-1" d="M71.17,250.48c0,.13-.11.24-.24.24s-.24-.11-.24-.24.11-.24.24-.24.24.11.24.24Z"/>
      <path class="cls-1" d="M150.66,323.84c0,.13-.11.24-.24.24s-.24-.11-.24-.24.11-.24.24-.24.24.11.24.24Z"/>
      <path class="cls-1" d="M150.42,304.21c0,.13-.11.24-.23.24s-.24-.11-.24-.24.11-.24.24-.24.23.11.23.24Z"/>
      <path class="cls-1" d="M134.02,253.97c0,.13-.11.24-.24.24s-.24-.11-.24-.24.11-.24.24-.24.24.11.24.24Z"/>
      <path class="cls-1" d="M131.16,236.9c0,.13-.11.24-.24.24s-.24-.11-.24-.24.11-.24.24-.24.24.11.24.24Z"/>
      <path class="cls-1" d="M43.14,235.12c0,.13-.11.24-.24.24s-.24-.11-.24-.24.11-.24.24-.24.24.11.24.24Z"/>
      <path class="cls-1" d="M37.14,206.59c0,.13-.11.24-.24.24s-.24-.11-.24-.24.11-.24.24-.24.24.11.24.24Z"/>
      <path class="cls-1" d="M16.43,248.97c0,.13-.11.24-.24.24s-.24-.11-.24-.24.11-.24.24-.24.24.11.24.24Z"/>
      <path class="cls-1" d="M9.39,214.5c0,.13-.11.24-.24.24s-.24-.11-.24-.24.11-.24.24-.24.24.11.24.24Z"/>
      <path class="cls-1" d="M17.85,195.21c0,.13-.11.24-.24.24s-.24-.11-.24-.24.11-.24.24-.24.24.11.24.24Z"/>
      <path class="cls-1" d="M9.15,127.58c0,.13-.11.24-.24.24s-.24-.11-.24-.24.11-.24.24-.24.24.11.24.24Z"/>
      <path class="cls-1" d="M43.37,113.02c0,.13-.11.24-.24.24s-.24-.11-.24-.24.11-.24.24-.24.24.11.24.24Z"/>
      <path class="cls-1" d="M53.48,159.28c0,.13-.11.24-.24.24s-.24-.11-.24-.24.11-.24.24-.24.24.11.24.24Z"/>
      <path class="cls-1" d="M48.43,201.05c0,.13-.11.24-.24.24s-.24-.11-.24-.24.11-.24.24-.24.24.11.24.24Z"/>
      <path class="cls-1" d="M28.85,247.35c0,.13-.11.24-.24.24s-.24-.11-.24-.24.11-.24.24-.24.24.11.24.24Z"/>
      <path class="cls-1" d="M24.7,276.29c0,.13-.11.24-.24.24s-.24-.11-.24-.24.11-.24.24-.24.24.11.24.24Z"/>
      <path class="cls-1" d="M38.7,273.73c0,.13-.11.24-.24.24s-.24-.11-.24-.24.11-.24.24-.24.24.11.24.24Z"/>
      <path class="cls-1" d="M47.72,255.85c0,.13-.11.24-.24.24s-.24-.11-.24-.24.11-.24.24-.24.24.11.24.24Z"/>
      <path class="cls-1" d="M61.53,282.79c0,.13-.11.24-.24.24s-.24-.11-.24-.24.11-.24.24-.24.24.11.24.24Z"/>
      <path class="cls-1" d="M81.14,265.88c0,.13-.11.24-.24.24s-.24-.11-.24-.24.11-.24.24-.24.24.11.24.24Z"/>
      <path class="cls-1" d="M63.88,234.4c0,.13-.11.24-.24.24s-.24-.11-.24-.24.11-.24.24-.24.24.11.24.24Z"/>
      <path class="cls-1" d="M146.78,247.12c0,.13-.11.24-.24.24s-.24-.11-.24-.24.11-.24.24-.24.24.11.24.24Z"/>
      <path class="cls-1" d="M245.11,366.88c0,.13-.11.24-.24.24s-.24-.11-.24-.24.11-.24.24-.24.24.11.24.24Z"/>
      <path class="cls-1" d="M260,386.01c0,.13-.11.24-.24.24s-.24-.11-.24-.24.11-.24.24-.24.24.11.24.24Z"/>
      <path class="cls-1" d="M267.53,375.25c0,.13-.11.24-.24.24s-.24-.11-.24-.24.11-.24.24-.24.24.11.24.24Z"/>
      <circle class="cls-1" cx="256.14" cy="376.89" r=".24"/>
      <path class="cls-1" d="M250.24,351.84c0,.13-.11.24-.23.24s-.24-.11-.24-.24.11-.24.24-.24.23.11.23.24Z"/>
      <path class="cls-1" d="M299.23,392.86c0,.13-.11.24-.24.24s-.24-.11-.24-.24.11-.24.24-.24.24.11.24.24Z"/>
      <path class="cls-1" d="M314.42,377.13c0,.13-.11.24-.24.24s-.24-.11-.24-.24.11-.24.24-.24.24.11.24.24Z"/>
      <path class="cls-1" d="M308.87,408.37c0,.13-.11.24-.23.24s-.24-.11-.24-.24.11-.24.24-.24.23.11.23.24Z"/>
      <path class="cls-1" d="M297.2,406.7c0,.13-.11.24-.24.24s-.24-.11-.24-.24.11-.24.24-.24.24.11.24.24Z"/>
      <path class="cls-1" d="M284.1,262.07c0,.13-.11.24-.24.24s-.24-.11-.24-.24.11-.24.24-.24.24.11.24.24Z"/>
      <path class="cls-1" d="M269.94,250.25c0,.13-.11.24-.23.24s-.24-.11-.24-.24.11-.24.24-.24.23.11.23.24Z"/>
      <path class="cls-1" d="M274.35,230.35c0,.13-.11.24-.24.24s-.24-.11-.24-.24.11-.24.24-.24.24.11.24.24Z"/>
      <path class="cls-1" d="M222.87,354.91c0,.13-.11.24-.23.24s-.24-.11-.24-.24.11-.24.24-.24.23.11.23.24Z"/>
      <path class="cls-1" d="M200.81,331.99c0,.13-.11.24-.24.24s-.24-.11-.24-.24.11-.24.24-.24.24.11.24.24Z"/>
      <path class="cls-1" d="M285.34,294.67c0,.13-.11.24-.23.24s-.24-.11-.24-.24.11-.24.24-.24.23.11.23.24Z"/>
      <path class="cls-1" d="M351.71,386.25c0,.13-.11.24-.24.24s-.24-.11-.24-.24.11-.24.24-.24.24.11.24.24Z"/>
      <path class="cls-1" d="M331.95,379.17c0,.13-.11.24-.23.24s-.24-.11-.24-.24.11-.24.24-.24.23.11.23.24Z"/>
      <path class="cls-1" d="M335.41,407.35c0,.13-.11.24-.23.24s-.24-.11-.24-.24.11-.24.24-.24.23.11.23.24Z"/>
      <path class="cls-1" d="M360.49,402.88c0,.13-.11.24-.24.24s-.24-.11-.24-.24.11-.24.24-.24.24.11.24.24Z"/>
      <path class="cls-1" d="M387.52,418.2c0,.13-.11.24-.24.24s-.24-.11-.24-.24.11-.24.24-.24.24.11.24.24Z"/>
      <path class="cls-1" d="M404.89,407.59c0,.13-.11.24-.24.24s-.24-.11-.24-.24.11-.24.24-.24.24.11.24.24Z"/>
      <path class="cls-1" d="M423.06,367.12c0,.13-.11.24-.24.24s-.24-.11-.24-.24.11-.24.24-.24.24.11.24.24Z"/>
      <path class="cls-1" d="M439.57,372.69c0,.13-.11.24-.24.24s-.24-.11-.24-.24.11-.24.24-.24.24.11.24.24Z"/>
      <path class="cls-1" d="M431.69,351c0,.13-.11.24-.24.24s-.24-.11-.24-.24.11-.24.24-.24.24.11.24.24Z"/>
      <path class="cls-1" d="M434.98,309.62c0,.13-.11.24-.24.24s-.24-.11-.24-.24.11-.24.24-.24.24.11.24.24Z"/>
      <path class="cls-1" d="M438.22,265.88c0,.13-.11.24-.24.24s-.24-.11-.24-.24.11-.24.24-.24.24.11.24.24Z"/>
      <path class="cls-1" d="M449.68,260.99c0,.13-.11.24-.24.24s-.24-.11-.24-.24.11-.24.24-.24.24.11.24.24Z"/>
      <path class="cls-1" d="M416.3,243.44c0,.13-.11.24-.24.24s-.24-.11-.24-.24.11-.24.24-.24.24.11.24.24Z"/>
      <path class="cls-1" d="M418.67,230.59c0,.13-.11.24-.24.24s-.24-.11-.24-.24.11-.24.24-.24.24.11.24.24Z"/>
      <path class="cls-1" d="M311.27,76.03c0,.13-.11.24-.24.24s-.24-.11-.24-.24.11-.24.24-.24.24.11.24.24Z"/>
      <path class="cls-1" d="M331.95,49.49c0,.13-.11.24-.23.24s-.24-.11-.24-.24.11-.24.24-.24.23.11.23.24Z"/>
      <path class="cls-1" d="M285.58,50.96c0,.13-.11.24-.24.24s-.24-.11-.24-.24.11-.24.24-.24.24.11.24.24Z"/>
      <path class="cls-1" d="M280.98,68.2c0,.13-.11.24-.24.24s-.24-.11-.24-.24.11-.24.24-.24.24.11.24.24Z"/>
      <path class="cls-1" d="M151.6,75.26c0,.13-.11.24-.24.24s-.24-.11-.24-.24.11-.24.24-.24.24.11.24.24Z"/>
      <path class="cls-1" d="M151.13,101.26c0,.13-.11.24-.24.24s-.24-.11-.24-.24.11-.24.24-.24.24.11.24.24Z"/>
      <path class="cls-1" d="M107.57,120.5c0,.13-.11.24-.24.24s-.24-.11-.24-.24.11-.24.24-.24.24.11.24.24Z"/>
      <path class="cls-1" d="M105.47,62.43c0,.13-.11.24-.24.24s-.24-.11-.24-.24.11-.24.24-.24.24.11.24.24Z"/>
      <path class="cls-1" d="M90.47,48.95c0,.13-.11.24-.24.24s-.24-.11-.24-.24.11-.24.24-.24.24.11.24.24Z"/>
      <path class="cls-1" d="M90.71,16.95c0,.13-.11.24-.24.24s-.24-.11-.24-.24.11-.24.24-.24.24.11.24.24Z"/>
      <path class="cls-1" d="M59.72,10.47c0,.13-.11.24-.24.24s-.24-.11-.24-.24.11-.24.24-.24.24.11.24.24Z"/>
      <path class="cls-1" d="M70.32,3.18c0,.13-.11.24-.24.24s-.24-.11-.24-.24.11-.24.24-.24.24.11.24.24Z"/>
      <path class="cls-1" d="M101.61,14.3c0,.13-.11.24-.24.24s-.24-.11-.24-.24.11-.24.24-.24.24.11.24.24Z"/>
      <path class="cls-1" d="M111.14,33.12c0,.13-.11.24-.24.24s-.24-.11-.24-.24.11-.24.24-.24.24.11.24.24Z"/>
      <path class="cls-1" d="M122.33,73.41c0,.13-.11.24-.24.24s-.24-.11-.24-.24.11-.24.24-.24.24.11.24.24Z"/>
      <path class="cls-1" d="M59.49,103.32c0,.13-.11.24-.24.24s-.24-.11-.24-.24.11-.24.24-.24.24.11.24.24Z"/>
      <path class="cls-1" d="M114.8,9.4c0,.13-.11.24-.24.24s-.24-.11-.24-.24.11-.24.24-.24.24.11.24.24Z"/>
      <path class="cls-1" d="M51.14,52.98c0,.13-.11.24-.24.24s-.24-.11-.24-.24.11-.24.24-.24.24.11.24.24Z"/>
      <path class="cls-1" d="M46.78,67.36c0,.13-.11.24-.24.24s-.24-.11-.24-.24.11-.24.24-.24.24.11.24.24Z"/>
      <path class="cls-1" d="M57.37,80.61c0,.13-.11.24-.24.24s-.24-.11-.24-.24.11-.24.24-.24.24.11.24.24Z"/>
      <path class="cls-1" d="M69.85,69.98c0,.13-.11.24-.24.24s-.24-.11-.24-.24.11-.24.24-.24.24.11.24.24Z"/>
      <path class="cls-1" d="M8.92,52.74c0,.13-.11.24-.24.24s-.24-.11-.24-.24.11-.24.24-.24.24.11.24.24Z"/>
      <path class="cls-1" d="M8.68,18.19c0,.13-.11.24-.24.24s-.24-.11-.24-.24.11-.24.24-.24.24.11.24.24Z"/>
      <path class="cls-1" d="M15.02,3.18c0,.13-.11.24-.24.24s-.24-.11-.24-.24.11-.24.24-.24.24.11.24.24Z"/>
      <path class="cls-1" d="M6.99,177.13c0,.13-.11.24-.24.24s-.24-.11-.24-.24.11-.24.24-.24.24.11.24.24Z"/>
      <path class="cls-1" d="M.47,147.18c0,.13-.11.24-.24.24s-.24-.11-.24-.24.11-.24.24-.24.24.11.24.24Z"/>
      <path class="cls-1" d="M15.25,137.77c0,.13-.11.24-.24.24s-.24-.11-.24-.24.11-.24.24-.24.24.11.24.24Z"/>
      <path class="cls-1" d="M32.21,149.83c0,.13-.11.24-.24.24s-.24-.11-.24-.24.11-.24.24-.24.24.11.24.24Z"/>
      <path class="cls-1" d="M24.7,123.91c0,.13-.11.24-.24.24s-.24-.11-.24-.24.11-.24.24-.24.24.11.24.24Z"/>
      <path class="cls-1" d="M43.14,138.24c0,.13-.11.24-.24.24s-.24-.11-.24-.24.11-.24.24-.24.24.11.24.24Z"/>
      <path class="cls-1" d="M47.49,124.97c0,.13-.11.24-.24.24s-.24-.11-.24-.24.11-.24.24-.24.24.11.24.24Z"/>
      <path class="cls-1" d="M122.57,135.28c0,.13-.11.24-.24.24s-.24-.11-.24-.24.11-.24.24-.24.24.11.24.24Z"/>
      <path class="cls-1" d="M105,82.27c0,.13-.11.24-.24.24s-.24-.11-.24-.24.11-.24.24-.24.24.11.24.24Z"/>
      <path class="cls-1" d="M76.14,99.43c0,.13-.11.24-.24.24s-.24-.11-.24-.24.11-.24.24-.24.24.11.24.24Z"/>
      <path class="cls-1" d="M65.88,145.01c0,.13-.11.24-.24.24s-.24-.11-.24-.24.11-.24.24-.24.24.11.24.24Z"/>
      <path class="cls-1" d="M24.7,209.6c0,.13-.11.24-.24.24s-.24-.11-.24-.24.11-.24.24-.24.24.11.24.24Z"/>
      <path class="cls-1" d="M559.16,147.42c0,.13-.11.24-.24.24s-.24-.11-.24-.24.11-.24.24-.24.24.11.24.24Z"/>
      <path class="cls-1" d="M565.93,121.58c0,.13-.11.24-.24.24s-.24-.11-.24-.24.11-.24.24-.24.24.11.24.24Z"/>
      <path class="cls-1" d="M554.2,94.93c0,.13-.11.24-.24.24s-.24-.11-.24-.24.11-.24.24-.24.24.11.24.24Z"/>
      <path class="cls-1" d="M574.48,81.99c0,.13-.11.24-.24.24s-.24-.11-.24-.24.11-.24.24-.24.24.11.24.24Z"/>
      <path class="cls-1" d="M495.92,11.09c0,.13-.11.24-.24.24s-.24-.11-.24-.24.11-.24.24-.24.24.11.24.24Z"/>
      <path class="cls-1" d="M512.49,9.17c0,.13-.11.24-.24.24s-.24-.11-.24-.24.11-.24.24-.24.24.11.24.24Z"/>
      <path class="cls-1" d="M550.9,70.92c0,.13-.11.24-.24.24s-.24-.11-.24-.24.11-.24.24-.24.24.11.24.24Z"/>
      <path class="cls-1" d="M550.05,51.2c0,.13-.11.24-.24.24s-.24-.11-.24-.24.11-.24.24-.24.24.11.24.24Z"/>
      <path class="cls-1" d="M538.84,62.43c0,.13-.11.24-.24.24s-.24-.11-.24-.24.11-.24.24-.24.24.11.24.24Z"/>
      <path class="cls-1" d="M471.3,5.51c0,.13-.11.24-.24.24s-.24-.11-.24-.24.11-.24.24-.24.24.11.24.24Z"/>
      <path class="cls-1" d="M467.49,84.35c0,.13-.11.24-.24.24s-.24-.11-.24-.24.11-.24.24-.24.24.11.24.24Z"/>
      <path class="cls-1" d="M469.37,73.41c0,.13-.11.24-.24.24s-.24-.11-.24-.24.11-.24.24-.24.24.11.24.24Z"/>
      <path class="cls-1" d="M482.24,86.99c0,.13-.11.24-.24.24s-.24-.11-.24-.24.11-.24.24-.24.24.11.24.24Z"/>
      <path class="cls-1" d="M481.16,72.33c0,.13-.11.24-.24.24s-.24-.11-.24-.24.11-.24.24-.24.24.11.24.24Z"/>
      <path class="cls-1" d="M471.79,101.9c0,.13-.11.24-.24.24s-.24-.11-.24-.24.11-.24.24-.24.24.11.24.24Z"/>
      <path class="cls-1" d="M449.8,83.02c0,.06-.05.12-.12.12s-.12-.05-.12-.12.05-.12.12-.12.12.05.12.12Z"/>
      <path class="cls-1" d="M466.9,60.04c0,.06-.05.12-.12.12s-.12-.05-.12-.12.05-.12.12-.12.12.05.12.12Z"/>
      <path class="cls-1" d="M467.61,68.2c0,.07-.05.12-.12.12s-.12-.05-.12-.12.05-.12.12-.12.12.05.12.12Z"/>
      <path class="cls-1" d="M339.61,135.04c0,.06-.05.12-.12.12s-.12-.05-.12-.12.05-.12.12-.12.12.05.12.12Z"/>
      <path class="cls-1" d="M530.82,25.32c0,.06-.05.12-.12.12s-.12-.05-.12-.12.05-.12.12-.12.12.05.12.12Z"/>
      <path class="cls-1" d="M524.92,13.79c0,.06-.05.12-.12.12s-.12-.05-.12-.12.05-.12.12-.12.12.05.12.12Z"/>
      <path class="cls-1" d="M541.21,29.53c0,.06-.05.12-.12.12s-.12-.05-.12-.12.05-.12.12-.12.12.05.12.12Z"/>
      <path class="cls-1" d="M549.7,10.94c0,.07-.05.12-.12.12s-.12-.05-.12-.12.05-.12.12-.12.12.05.12.12Z"/>
      <path class="cls-1" d="M500.13,5.03c0,.06-.05.12-.12.12s-.12-.05-.12-.12.05-.12.12-.12.12.05.12.12Z"/>
      <path class="cls-1" d="M476.81,19.15c0,.06-.05.12-.12.12s-.12-.05-.12-.12.05-.12.12-.12.12.05.12.12Z"/>
      <path class="cls-1" d="M486.02,9.17c0,.06-.05.12-.12.12s-.12-.05-.12-.12.05-.12.12-.12.12.05.12.12Z"/>
      <path class="cls-1" d="M577.24,15.17c0,.06-.05.12-.12.12s-.12-.05-.12-.12.05-.12.12-.12.12.05.12.12Z"/>
      <path class="cls-1" d="M579.6,7.05c0,.06-.05.12-.12.12s-.12-.05-.12-.12.05-.12.12-.12.12.05.12.12Z"/>
      <path class="cls-1" d="M580.99,23.99c0,.06-.05.12-.12.12s-.12-.05-.12-.12.05-.12.12-.12.12.05.12.12Z"/>
      <path class="cls-1" d="M605.5,4.92c0,.06-.05.12-.12.12s-.12-.05-.12-.12.05-.12.12-.12.12.05.12.12Z"/>
      <path class="cls-1" d="M555.41,33.5c0,.06-.05.12-.12.12s-.12-.05-.12-.12.05-.12.12-.12.12.05.12.12Z"/>
      <path class="cls-1" d="M509.7,99.43c0,.06-.05.12-.12.12s-.12-.05-.12-.12.05-.12.12-.12.12.05.12.12Z"/>
      <path class="cls-1" d="M510.53,87.23c0,.06-.05.12-.12.12s-.12-.05-.12-.12.05-.12.12-.12.12.05.12.12Z"/>
      <path class="cls-1" d="M490.81,99.43c0,.06-.05.12-.12.12s-.12-.05-.12-.12.05-.12.12-.12.12.05.12.12Z"/>
      <path class="cls-1" d="M449.92,130.13c0,.06-.05.12-.12.12s-.12-.05-.12-.12.05-.12.12-.12.12.05.12.12Z"/>
      <path class="cls-1" d="M442.68,134.92c0,.06-.05.12-.12.12s-.12-.05-.12-.12.05-.12.12-.12.12.05.12.12Z"/>
      <path class="cls-1" d="M439.46,147.18c0,.06-.05.12-.12.12s-.12-.05-.12-.12.05-.12.12-.12.12.05.12.12Z"/>
      <path class="cls-1" d="M418.49,145.36c0,.06-.05.12-.12.12s-.12-.05-.12-.12.05-.12.12-.12.12.05.12.12Z"/>
      <path class="cls-1" d="M447.16,118.7c0,.06-.05.12-.12.12s-.12-.05-.12-.12.05-.12.12-.12.12.05.12.12Z"/>
      <path class="cls-1" d="M447.16,162.07c0,.07-.05.12-.12.12s-.12-.05-.12-.12.05-.12.12-.12.12.05.12.12Z"/>
      <path class="cls-1" d="M464.49,155.74c0,.06-.05.12-.12.12s-.12-.05-.12-.12.05-.12.12-.12.12.05.12.12Z"/>
      <path class="cls-1" d="M471.91,137.77c0,.06-.05.12-.12.12s-.12-.05-.12-.12.05-.12.12-.12.12.05.12.12Z"/>
      <path class="cls-1" d="M524.8,194.82c0,.06-.05.12-.12.12s-.12-.05-.12-.12.05-.12.12-.12.12.05.12.12Z"/>
      <path class="cls-1" d="M271.18,190.23c0,.06-.05.12-.12.12s-.12-.05-.12-.12.05-.12.12-.12.12.05.12.12Z"/>
      <path class="cls-1" d="M277.2,177.25c0,.06-.05.12-.12.12s-.12-.05-.12-.12.05-.12.12-.12.12.05.12.12Z"/>
      <path class="cls-1" d="M282.04,185.49c0,.06-.05.12-.12.12s-.12-.05-.12-.12.05-.12.12-.12.12.05.12.12Z"/>
      <path class="cls-1" d="M254.27,159.17c0,.06-.05.12-.12.12s-.12-.05-.12-.12.05-.12.12-.12.12.05.12.12Z"/>
      <path class="cls-1" d="M255.15,125.09c0,.06-.05.12-.12.12s-.12-.05-.12-.12.05-.12.12-.12.12.05.12.12Z"/>
      <path class="cls-1" d="M245,136.59c0,.06-.05.12-.12.12s-.12-.05-.12-.12.05-.12.12-.12.12.05.12.12Z"/>
      <path class="cls-1" d="M292.37,141.13c0,.07-.05.12-.12.12s-.12-.05-.12-.12.05-.12.12-.12.12.05.12.12Z"/>
      <path class="cls-1" d="M292.49,232.48c0,.06-.05.12-.12.12s-.12-.05-.12-.12.05-.12.12-.12.12.05.12.12Z"/>
      <path class="cls-1" d="M414.46,259.04c0,.07-.05.12-.12.12s-.12-.05-.12-.12.05-.12.12-.12.12.05.12.12Z"/>
      <path class="cls-1" d="M425.71,252.36c0,.07-.05.12-.12.12s-.12-.05-.12-.12.05-.12.12-.12.12.05.12.12Z"/>
      <path class="cls-1" d="M402.54,237.67c0,.07-.05.12-.12.12s-.12-.05-.12-.12.05-.12.12-.12.12.05.12.12Z"/>
      <path class="cls-1" d="M418.79,217.97c0,.07-.05.12-.12.12s-.12-.05-.12-.12.05-.12.12-.12.12.05.12.12Z"/>
      <path class="cls-1" d="M437.45,233.25c0,.07-.05.12-.12.12s-.12-.05-.12-.12.05-.12.12-.12.12.05.12.12Z"/>
      <path class="cls-1" d="M504.44,270.04c0,.06-.05.12-.12.12s-.12-.05-.12-.12.05-.12.12-.12.12.05.12.12Z"/>
      <path class="cls-1" d="M511.54,250.25c0,.06-.05.12-.12.12s-.12-.05-.12-.12.05-.12.12-.12.12.05.12.12Z"/>
      <path class="cls-1" d="M534.19,253.97c0,.06-.05.12-.12.12s-.12-.05-.12-.12.05-.12.12-.12.12.05.12.12Z"/>
      <path class="cls-1" d="M524.68,264.03c0,.06-.05.12-.12.12s-.12-.05-.12-.12.05-.12.12-.12.12.05.12.12Z"/>
      <path class="cls-1" d="M525.51,250.01c0,.06-.05.12-.12.12s-.12-.05-.12-.12.05-.12.12-.12.12.05.12.12Z"/>
      <path class="cls-1" d="M516.54,286.22c0,.06-.05.12-.12.12s-.12-.05-.12-.12.05-.12.12-.12.12.05.12.12Z"/>
      <path class="cls-1" d="M534.19,273.73c0,.06-.05.12-.12.12s-.12-.05-.12-.12.05-.12.12-.12.12.05.12.12Z"/>
      <path class="cls-1" d="M506.68,319.14c0,.06-.05.12-.12.12s-.12-.05-.12-.12.05-.12.12-.12.12.05.12.12Z"/>
      <path class="cls-1" d="M477.27,338.69c0,.06-.05.12-.12.12s-.12-.05-.12-.12.05-.12.12-.12.12.05.12.12Z"/>
      <path class="cls-1" d="M502.42,372.93c0,.06-.05.12-.12.12s-.12-.05-.12-.12.05-.12.12-.12.12.05.12.12Z"/>
      <path class="cls-1" d="M527.82,361.63c0,.06-.05.12-.12.12s-.12-.05-.12-.12.05-.12.12-.12.12.05.12.12Z"/>
      <path class="cls-1" d="M533.49,330.71c0,.06-.05.12-.12.12s-.12-.05-.12-.12.05-.12.12-.12.12.05.12.12Z"/>
      <path class="cls-1" d="M547.94,342.87c0,.06-.05.12-.12.12s-.12-.05-.12-.12.05-.12.12-.12.12.05.12.12Z"/>
      <path class="cls-1" d="M566.52,317.6c0,.06-.05.12-.12.12s-.12-.05-.12-.12.05-.12.12-.12.12.05.12.12Z"/>
      <path class="cls-1" d="M551.49,309.39c0,.06-.05.12-.12.12s-.12-.05-.12-.12.05-.12.12-.12.12.05.12.12Z"/>
      <path class="cls-1" d="M524.33,304.92c0,.06-.05.12-.12.12s-.12-.05-.12-.12.05-.12.12-.12.12.05.12.12Z"/>
      <path class="cls-1" d="M531.61,299.82c0,.06-.05.12-.12.12s-.12-.05-.12-.12.05-.12.12-.12.12.05.12.12Z"/>
      <path class="cls-1" d="M547.82,273.61c0,.06-.05.12-.12.12s-.12-.05-.12-.12.05-.12.12-.12.12.05.12.12Z"/>
      <path class="cls-1" d="M567.36,234.28c0,.06-.05.12-.12.12s-.12-.05-.12-.12.05-.12.12-.12.12.05.12.12Z"/>
      <path class="cls-1" d="M387.41,36.04c0,.06-.05.12-.12.12s-.12-.05-.12-.12.05-.12.12-.12.12.05.12.12Z"/>
      <path class="cls-1" d="M558.51,166.68c0,.06-.05.12-.12.12s-.12-.05-.12-.12.05-.12.12-.12.12.05.12.12Z"/>
      <path class="cls-1" d="M566.05,157.13c0,.06-.05.12-.12.12s-.12-.05-.12-.12.05-.12.12-.12.12.05.12.12Z"/>
      <path class="cls-1" d="M525.39,110.09c0,.06-.05.12-.12.12s-.12-.05-.12-.12.05-.12.12-.12.12.05.12.12Z"/>
      <path class="cls-1" d="M577.24,108.85c0,.06-.05.12-.12.12s-.12-.05-.12-.12.05-.12.12-.12.12.05.12.12Z"/>
      <path class="cls-1" d="M566.17,50.96c0,.06-.05.12-.12.12s-.12-.05-.12-.12.05-.12.12-.12.12.05.12.12Z"/>
      <path class="cls-1" d="M685.83,43.44c0,.06-.05.12-.12.12s-.12-.05-.12-.12.05-.12.12-.12.12.05.12.12Z"/>
      <path class="cls-1" d="M682.69,15.29c0,.06-.05.12-.12.12s-.12-.05-.12-.12.05-.12.12-.12.12.05.12.12Z"/>
      <path class="cls-1" d="M658.43.12c0,.06-.05.12-.12.12s-.12-.05-.12-.12.05-.12.12-.12.12.05.12.12Z"/>
      <path class="cls-1" d="M637.95,14.14c0,.06-.05.12-.12.12s-.12-.05-.12-.12.05-.12.12-.12.12.05.12.12Z"/>
      <path class="cls-1" d="M630.58,25.2c0,.06-.05.12-.12.12s-.12-.05-.12-.12.05-.12.12-.12.12.05.12.12Z"/>
      <path class="cls-1" d="M705.39,39.2c0,.06-.05.12-.12.12s-.12-.05-.12-.12.05-.12.12-.12.12.05.12.12Z"/>
      <path class="cls-1" d="M709.23,29.65c0,.06-.05.12-.12.12s-.12-.05-.12-.12.05-.12.12-.12.12.05.12.12Z"/>
      <path class="cls-1" d="M718.07,37.95c0,.07-.05.12-.12.12s-.12-.05-.12-.12.05-.12.12-.12.12.05.12.12Z"/>
      <path class="cls-1" d="M722.85,26.16c0,.07-.05.12-.12.12s-.12-.05-.12-.12.05-.12.12-.12.12.05.12.12Z"/>
      <path class="cls-1" d="M711.49,11.45c0,.07-.05.12-.12.12s-.12-.05-.12-.12.05-.12.12-.12.12.05.12.12Z"/>
      <path class="cls-1" d="M678.25,5.21c0,.06-.05.12-.12.12s-.12-.05-.12-.12.05-.12.12-.12.12.05.12.12Z"/>
      <path class="cls-1" d="M674.92,49.21c0,.06-.05.12-.12.12s-.12-.05-.12-.12.05-.12.12-.12.12.05.12.12Z"/>
      <path class="cls-1" d="M681.44,35.04c0,.06-.05.12-.12.12s-.12-.05-.12-.12.05-.12.12-.12.12.05.12.12Z"/>
      <path class="cls-1" d="M689.05,64.04c0,.06-.05.12-.12.12s-.12-.05-.12-.12.05-.12.12-.12.12.05.12.12Z"/>
      <path class="cls-1" d="M633.94,117.3c0,.07-.05.12-.12.12s-.12-.05-.12-.12.05-.12.12-.12.12.05.12.12Z"/>
      <path class="cls-1" d="M643.48,106.57c0,.06-.05.12-.12.12s-.12-.05-.12-.12.05-.12.12-.12.12.05.12.12Z"/>
      <path class="cls-1" d="M657.24,113.04c0,.06-.05.12-.12.12s-.12-.05-.12-.12.05-.12.12-.12.12.05.12.12Z"/>
      <path class="cls-1" d="M651.28,132.46c0,.06-.05.12-.12.12s-.12-.05-.12-.12.05-.12.12-.12.12.05.12.12Z"/>
    </g>
  </g>
</svg>