<?xml version="1.0" encoding="UTF-8"?>
<svg xmlns="http://www.w3.org/2000/svg" xmlns:xlink="http://www.w3.org/1999/xlink" viewBox="0 0 95.11 95.11">
  <defs>
    <style>
      .cls-1 {
        fill: url(#radial-gradient-20);
      }

      .cls-1, .cls-2, .cls-3, .cls-4, .cls-5, .cls-6, .cls-7, .cls-8, .cls-9, .cls-10, .cls-11, .cls-12, .cls-13, .cls-14, .cls-15, .cls-16, .cls-17, .cls-18, .cls-19, .cls-20, .cls-21, .cls-22, .cls-23 {
        mix-blend-mode: screen;
        stroke-width: 0px;
      }

      .cls-2 {
        fill: url(#radial-gradient-11);
      }

      .cls-3 {
        fill: url(#radial-gradient-7);
      }

      .cls-24 {
        isolation: isolate;
      }

      .cls-4 {
        fill: url(#radial-gradient-6);
      }

      .cls-5 {
        fill: url(#radial-gradient-3);
      }

      .cls-6 {
        fill: url(#radial-gradient-18);
      }

      .cls-7 {
        fill: url(#radial-gradient-5);
      }

      .cls-8 {
        fill: url(#radial-gradient-4);
      }

      .cls-9 {
        fill: url(#radial-gradient);
      }

      .cls-10 {
        fill: url(#radial-gradient-22);
      }

      .cls-11 {
        fill: url(#radial-gradient-14);
      }

      .cls-12 {
        fill: url(#radial-gradient-23);
      }

      .cls-13 {
        fill: url(#radial-gradient-9);
      }

      .cls-14 {
        fill: url(#radial-gradient-19);
      }

      .cls-15 {
        fill: url(#radial-gradient-2);
      }

      .cls-16 {
        fill: url(#radial-gradient-10);
      }

      .cls-17 {
        fill: url(#radial-gradient-17);
      }

      .cls-18 {
        fill: url(#radial-gradient-8);
      }

      .cls-19 {
        fill: url(#radial-gradient-21);
      }

      .cls-20 {
        fill: url(#radial-gradient-16);
      }

      .cls-21 {
        fill: url(#radial-gradient-15);
      }

      .cls-22 {
        fill: url(#radial-gradient-12);
      }

      .cls-23 {
        fill: url(#radial-gradient-13);
      }
    </style>
    <radialGradient id="radial-gradient" cx="3429.49" cy="1682.5" fx="3429.49" fy="1682.5" r="50.35" gradientTransform="translate(153.08 -3191.94) rotate(90.03) scale(.94 .06)" gradientUnits="userSpaceOnUse">
      <stop offset="0" stop-color="#eee"/>
      <stop offset=".05" stop-color="rgba(215, 215, 215, .88)" stop-opacity=".88"/>
      <stop offset=".14" stop-color="rgba(174, 174, 174, .68)" stop-opacity=".68"/>
      <stop offset=".24" stop-color="rgba(139, 139, 139, .5)" stop-opacity=".5"/>
      <stop offset=".34" stop-color="rgba(109, 109, 109, .34)" stop-opacity=".34"/>
      <stop offset=".45" stop-color="rgba(84, 84, 84, .22)" stop-opacity=".22"/>
      <stop offset=".56" stop-color="rgba(65, 65, 65, .12)" stop-opacity=".12"/>
      <stop offset=".69" stop-color="rgba(52, 52, 52, .05)" stop-opacity=".05"/>
      <stop offset=".82" stop-color="rgba(44, 44, 44, .01)" stop-opacity=".01"/>
      <stop offset="1" stop-color="#2a2a2a" stop-opacity="0"/>
    </radialGradient>
    <radialGradient id="radial-gradient-2" cx="7419.09" cy="402.63" fx="7419.09" fy="402.63" r="50.31" gradientTransform="translate(102.15 -3055.11) rotate(90) scale(.42 .14)" xlink:href="#radial-gradient"/>
    <radialGradient id="radial-gradient-3" cx="7419.1" cy="246.18" fx="7419.1" fy="246.18" r="50.33" gradientTransform="translate(86.87 -3055.11) rotate(90) scale(.42 .16)" xlink:href="#radial-gradient"/>
    <radialGradient id="radial-gradient-4" cx="413.88" cy="-49165.21" fx="413.88" fy="-49165.21" r="50.35" gradientTransform="translate(438.51 -2985.73) rotate(-179.97) scale(.94 .06)" xlink:href="#radial-gradient"/>
    <radialGradient id="radial-gradient-5" cx="607.92" cy="-17592.15" fx="607.92" fy="-17592.15" r="50.34" gradientTransform="translate(301.79 -3062.74) rotate(-180) scale(.42 .18)" xlink:href="#radial-gradient"/>
    <radialGradient id="radial-gradient-6" cx="5367.11" cy="48936.94" fx="5367.11" fy="48936.94" r="50.3" gradientTransform="translate(1385.35 -2214.91) rotate(90.03) scale(.42 .03)" xlink:href="#radial-gradient"/>
    <radialGradient id="radial-gradient-7" cx="11794.38" cy="21938.8" fx="11794.38" fy="21938.8" r="50.32" gradientTransform="translate(1362.6 -2153.38) rotate(90) scale(.19 .06)" xlink:href="#radial-gradient"/>
    <radialGradient id="radial-gradient-8" cx="5367.11" cy="48936.94" fx="5367.11" fy="48936.94" r="50.3" gradientTransform="translate(1385.35 -2214.91) rotate(90.03) scale(.42 .03)" xlink:href="#radial-gradient"/>
    <radialGradient id="radial-gradient-9" cx="11794.38" cy="18534.57" fx="11794.38" fy="18534.57" r="50.34" gradientTransform="translate(1355.8 -2153.38) rotate(90) scale(.19 .07)" xlink:href="#radial-gradient"/>
    <radialGradient id="radial-gradient-10" cx="3506.35" cy="-78738.96" fx="3506.35" fy="-78738.96" r="50.3" gradientTransform="translate(1513.66 -2122.31) rotate(-179.97) scale(.42 .03)" xlink:href="#radial-gradient"/>
    <radialGradient id="radial-gradient-11" cx="7591.81" cy="-27932.37" fx="7591.81" fy="-27932.37" r="50.33" gradientTransform="translate(1452.19 -2156.98) rotate(-180) scale(.19 .08)" xlink:href="#radial-gradient"/>
    <radialGradient id="radial-gradient-12" cx="7351.29" cy="97792.26" fx="7351.29" fy="97792.26" r="42.86" gradientTransform="translate(1770.93 -1923.3) rotate(90.02) scale(.27 .02)" xlink:href="#radial-gradient"/>
    <radialGradient id="radial-gradient-13" cx="16281.49" cy="44059.45" fx="16281.49" fy="44059.45" r="42.78" gradientTransform="translate(1756.08 -1884.97) rotate(90) scale(.12 .04)" xlink:href="#radial-gradient"/>
    <radialGradient id="radial-gradient-14" cx="7351.29" cy="97792.26" fx="7351.29" fy="97792.26" r="42.86" gradientTransform="translate(1770.93 -1923.3) rotate(90.02) scale(.27 .02)" xlink:href="#radial-gradient"/>
    <radialGradient id="radial-gradient-15" cx="16281.49" cy="37322.47" fx="16281.49" fy="37322.47" r="42.8" gradientTransform="translate(1751.85 -1884.97) rotate(90) scale(.12 .05)" xlink:href="#radial-gradient"/>
    <radialGradient id="radial-gradient-16" cx="6673.68" cy="-109570.16" fx="6673.68" fy="-109570.16" r="42.86" gradientTransform="translate(1850.48 -1865.69) rotate(-179.96) scale(.27 .02)" xlink:href="#radial-gradient"/>
    <radialGradient id="radial-gradient-17" cx="14751.17" cy="-38541.71" fx="14751.17" fy="-38541.71" r="42.77" gradientTransform="translate(1812.2 -1887.59) rotate(-180) scale(.12 .05)" xlink:href="#radial-gradient"/>
    <radialGradient id="radial-gradient-18" cx="5247.03" cy="44603.81" fx="5247.03" fy="44603.81" r="40.25" gradientTransform="translate(1323.86 -2282.97) rotate(90.03) scale(.44 .03)" xlink:href="#radial-gradient"/>
    <radialGradient id="radial-gradient-19" cx="11526.15" cy="19971.02" fx="11526.15" fy="19971.02" r="40.28" gradientTransform="translate(1300.39 -2219.26) rotate(90) scale(.2 .06)" xlink:href="#radial-gradient"/>
    <radialGradient id="radial-gradient-20" cx="5247.03" cy="44603.81" fx="5247.03" fy="44603.81" r="40.25" gradientTransform="translate(1323.86 -2282.97) rotate(90.03) scale(.44 .03)" xlink:href="#radial-gradient"/>
    <radialGradient id="radial-gradient-21" cx="11526.15" cy="16839.45" fx="11526.15" fy="16839.45" r="40.27" gradientTransform="translate(1292.76 -2219.26) rotate(90) scale(.2 .07)" xlink:href="#radial-gradient"/>
    <radialGradient id="radial-gradient-22" cx="3220.96" cy="-76968.63" fx="3220.96" fy="-76968.63" r="40.28" gradientTransform="translate(1457.05 -2187.39) rotate(-179.96) scale(.44 .03)" xlink:href="#radial-gradient"/>
    <radialGradient id="radial-gradient-23" cx="6949.78" cy="-27288.63" fx="6949.78" fy="-27288.63" r="40.26" gradientTransform="translate(1393.43 -2222.97) rotate(-180) scale(.2 .08)" xlink:href="#radial-gradient"/>
  </defs>
  <g class="cls-24">
    <g id="Layer_2" data-name="Layer 2">
      <g id="OBJECTS">
        <g>
          <g>
            <g>
              <path class="cls-9" d="M47.53,95.11c-1.72,0-3.09-21.3-3.08-47.56.02-26.26,1.42-47.55,3.14-47.55s3.09,21.29,3.07,47.56c-.02,26.27-1.42,47.56-3.13,47.56Z"/>
              <path class="cls-15" d="M47.56,68.61c-3.77,0-6.83-9.43-6.82-21.05,0-11.63,3.05-21.06,6.82-21.06,3.76,0,6.81,9.42,6.82,21.05,0,11.63-3.05,21.06-6.82,21.05Z"/>
            </g>
            <g>
              <path class="cls-9" d="M47.53,95.11c-1.72,0-3.09-21.3-3.08-47.56.02-26.26,1.42-47.55,3.14-47.55s3.09,21.29,3.07,47.56c-.02,26.27-1.42,47.56-3.13,47.56Z"/>
              <path class="cls-5" d="M47.56,68.61c-4.44,0-8.04-9.42-8.04-21.05,0-11.63,3.6-21.06,8.04-21.06,4.43,0,8.03,9.42,8.04,21.05,0,11.63-3.6,21.06-8.04,21.05Z"/>
            </g>
            <g>
              <path class="cls-8" d="M0,47.53C0,45.81,21.29,44.43,47.56,44.45c26.26.01,47.55,1.42,47.55,3.14,0,1.71-21.29,3.09-47.56,3.08C21.29,50.65,0,49.25,0,47.53Z"/>
              <path class="cls-7" d="M26.5,47.56c0-4.91,9.43-8.9,21.05-8.9,11.63,0,21.06,3.98,21.06,8.9,0,4.91-9.43,8.9-21.06,8.9-11.63,0-21.05-3.98-21.05-8.9Z"/>
            </g>
          </g>
          <g>
            <g>
              <path class="cls-4" d="M28.71,79.39c-.77,0-1.39-9.55-1.38-21.33,0-11.78.64-21.32,1.4-21.32.77,0,1.39,9.55,1.38,21.32,0,11.78-.63,21.32-1.41,21.32Z"/>
              <path class="cls-3" d="M28.73,67.5c-1.69,0-3.06-4.23-3.06-9.44,0-5.21,1.37-9.44,3.06-9.44,1.69,0,3.06,4.23,3.06,9.44s-1.37,9.44-3.06,9.44Z"/>
            </g>
            <g>
              <path class="cls-18" d="M28.71,79.39c-.77,0-1.39-9.55-1.38-21.33,0-11.78.64-21.32,1.4-21.32.77,0,1.39,9.55,1.38,21.32,0,11.78-.63,21.32-1.41,21.32Z"/>
              <path class="cls-13" d="M28.73,67.5c-1.99,0-3.6-4.23-3.6-9.44,0-5.21,1.61-9.44,3.6-9.44,1.99,0,3.6,4.23,3.6,9.44,0,5.21-1.61,9.44-3.6,9.44Z"/>
            </g>
            <g>
              <path class="cls-16" d="M7.4,58.05c0-.77,9.55-1.39,21.33-1.38,11.77,0,21.32.64,21.32,1.41s-9.55,1.38-21.32,1.38c-11.78,0-21.32-.63-21.32-1.4Z"/>
              <path class="cls-2" d="M19.29,58.06c0-2.2,4.23-3.99,9.44-3.99s9.44,1.79,9.44,3.99c0,2.2-4.22,3.99-9.44,3.99s-9.44-1.79-9.44-3.99Z"/>
            </g>
          </g>
          <g>
            <g>
              <path class="cls-22" d="M68.6,50.92c-.41,0-.74-5.12-.74-11.42,0-6.31.34-11.42.75-11.42.41,0,.74,5.11.74,11.42,0,6.31-.34,11.42-.76,11.42Z"/>
              <path class="cls-23" d="M68.61,44.56c-.91,0-1.64-2.27-1.64-5.06s.73-5.06,1.64-5.06,1.63,2.27,1.64,5.06c0,2.79-.73,5.06-1.64,5.06Z"/>
            </g>
            <g>
              <path class="cls-11" d="M68.6,50.92c-.41,0-.74-5.12-.74-11.42,0-6.31.34-11.42.75-11.42.41,0,.74,5.11.74,11.42,0,6.31-.34,11.42-.76,11.42Z"/>
              <path class="cls-21" d="M68.61,44.56c-1.07,0-1.93-2.27-1.93-5.06s.86-5.06,1.93-5.06c1.06,0,1.93,2.26,1.93,5.06s-.87,5.06-1.93,5.06Z"/>
            </g>
            <g>
              <path class="cls-20" d="M57.18,39.49c0-.41,5.12-.75,11.43-.74,6.31,0,11.42.34,11.42.76,0,.41-5.12.74-11.43.74-6.31,0-11.42-.34-11.42-.75Z"/>
              <path class="cls-17" d="M63.55,39.5c0-1.18,2.26-2.14,5.06-2.14s5.06.96,5.06,2.14c0,1.18-2.26,2.14-5.06,2.14s-5.06-.96-5.06-2.14Z"/>
            </g>
          </g>
          <g>
            <g>
              <path class="cls-6" d="M38.21,46.08c-.64,0-1.16-7.94-1.15-17.74,0-9.8.53-17.74,1.17-17.74.64,0,1.15,7.94,1.15,17.74,0,9.8-.53,17.74-1.17,17.74Z"/>
              <path class="cls-14" d="M38.22,36.2c-1.41,0-2.55-3.52-2.55-7.85,0-4.34,1.14-7.86,2.55-7.86s2.54,3.52,2.54,7.86c0,4.34-1.14,7.85-2.54,7.85Z"/>
            </g>
            <g>
              <path class="cls-1" d="M38.21,46.08c-.64,0-1.16-7.94-1.15-17.74,0-9.8.53-17.74,1.17-17.74.64,0,1.15,7.94,1.15,17.74,0,9.8-.53,17.74-1.17,17.74Z"/>
              <path class="cls-19" d="M38.22,36.2c-1.66,0-3-3.52-3-7.85s1.34-7.85,3-7.86c1.65,0,3,3.52,3,7.86s-1.34,7.85-2.99,7.85Z"/>
            </g>
            <g>
              <path class="cls-10" d="M20.48,28.33c0-.64,7.94-1.16,17.74-1.15,9.8,0,17.74.53,17.74,1.17,0,.64-7.94,1.15-17.75,1.15-9.8,0-17.74-.53-17.74-1.17Z"/>
              <path class="cls-12" d="M30.37,28.34c0-1.83,3.52-3.32,7.85-3.32s7.86,1.49,7.86,3.32c0,1.83-3.51,3.32-7.86,3.32s-7.85-1.49-7.85-3.32Z"/>
            </g>
          </g>
        </g>
      </g>
    </g>
  </g>
</svg>