<?xml version="1.0" encoding="UTF-8"?>
<svg xmlns="http://www.w3.org/2000/svg" xmlns:xlink="http://www.w3.org/1999/xlink" viewBox="0 0 95.12 95.11">
  <defs>
    <style>
      .cls-1 {
        fill: url(#radial-gradient-11);
      }

      .cls-1, .cls-2, .cls-3, .cls-4, .cls-5, .cls-6, .cls-7, .cls-8, .cls-9, .cls-10, .cls-11 {
        mix-blend-mode: screen;
        stroke-width: 0px;
      }

      .cls-2 {
        fill: url(#radial-gradient-7);
      }

      .cls-12 {
        isolation: isolate;
      }

      .cls-3 {
        fill: url(#radial-gradient-6);
      }

      .cls-4 {
        fill: url(#radial-gradient-3);
      }

      .cls-5 {
        fill: url(#radial-gradient-5);
      }

      .cls-6 {
        fill: url(#radial-gradient-4);
      }

      .cls-7 {
        fill: url(#radial-gradient);
      }

      .cls-8 {
        fill: url(#radial-gradient-9);
      }

      .cls-9 {
        fill: url(#radial-gradient-2);
      }

      .cls-10 {
        fill: url(#radial-gradient-10);
      }

      .cls-11 {
        fill: url(#radial-gradient-8);
      }
    </style>
    <radialGradient id="radial-gradient" cx="3071.78" cy="-2999.03" fx="3071.78" fy="-2999.03" r="50.35" gradientTransform="translate(-135.95 -2854.05) rotate(90.03) scale(.94 .06)" gradientUnits="userSpaceOnUse">
      <stop offset="0" stop-color="#eee"/>
      <stop offset=".05" stop-color="rgba(215, 215, 215, .88)" stop-opacity=".88"/>
      <stop offset=".14" stop-color="rgba(174, 174, 174, .68)" stop-opacity=".68"/>
      <stop offset=".24" stop-color="rgba(139, 139, 139, .5)" stop-opacity=".5"/>
      <stop offset=".34" stop-color="rgba(109, 109, 109, .34)" stop-opacity=".34"/>
      <stop offset=".45" stop-color="rgba(84, 84, 84, .22)" stop-opacity=".22"/>
      <stop offset=".56" stop-color="rgba(65, 65, 65, .12)" stop-opacity=".12"/>
      <stop offset=".69" stop-color="rgba(52, 52, 52, .05)" stop-opacity=".05"/>
      <stop offset=".82" stop-color="rgba(44, 44, 44, .01)" stop-opacity=".01"/>
      <stop offset="1" stop-color="#2a2a2a" stop-opacity="0"/>
    </radialGradient>
    <radialGradient id="radial-gradient-2" cx="6758.64" cy="-1610.55" fx="6758.64" fy="-1610.55" r="50.32" gradientTransform="translate(-170.83 -2778.91) rotate(90) scale(.42 .14)" xlink:href="#radial-gradient"/>
    <radialGradient id="radial-gradient-3" cx="6758.65" cy="-1430.56" fx="6758.65" fy="-1430.56" r="50.33" gradientTransform="translate(-180.9 -2778.91) rotate(90) scale(.42 .16)" xlink:href="#radial-gradient"/>
    <radialGradient id="radial-gradient-4" cx="-23.36" cy="-45264.24" fx="-23.36" fy="-45264.24" r="50.35" gradientTransform="translate(25.49 -2745.26) rotate(-179.97) scale(.94 .06)" xlink:href="#radial-gradient"/>
    <radialGradient id="radial-gradient-5" cx="-232.18" cy="-16090.89" fx="-232.18" fy="-16090.89" r="50.34" gradientTransform="translate(-49.54 -2797.32) rotate(-180) scale(.42 .18)" xlink:href="#radial-gradient"/>
    <radialGradient id="radial-gradient-6" cx="3509.02" cy="-33092.44" fx="3509.02" fy="-33092.44" r="50.37" gradientTransform="translate(1260.84 -5040.65) rotate(135.03) scale(1.27 .08)" xlink:href="#radial-gradient"/>
    <radialGradient id="radial-gradient-7" cx="7747.95" cy="-15295.69" fx="7747.95" fy="-15295.69" r="50.33" gradientTransform="translate(1157.28 -5002.34) rotate(135) scale(.56 .18)" xlink:href="#radial-gradient"/>
    <radialGradient id="radial-gradient-8" cx="3509.02" cy="-33092.44" fx="3509.02" fy="-33092.44" r="50.37" gradientTransform="translate(1260.84 -5040.65) rotate(135.03) scale(1.27 .08)" xlink:href="#radial-gradient"/>
    <radialGradient id="radial-gradient-9" cx="7747.97" cy="-13046.11" fx="7747.97" fy="-13046.11" r="50.33" gradientTransform="translate(1146.98 -5012.66) rotate(135) scale(.56 .21)" xlink:href="#radial-gradient"/>
    <radialGradient id="radial-gradient-10" cx="-1987.62" cy="-51991.4" fx="-1987.62" fy="-51991.4" r="50.37" gradientTransform="translate(1310.56 -4784.82) rotate(-134.97) scale(1.27 .08)" xlink:href="#radial-gradient"/>
    <radialGradient id="radial-gradient-11" cx="-4667.95" cy="-18427.99" fx="-4667.95" fy="-18427.99" r="50.34" gradientTransform="translate(1289.79 -4905.7) rotate(-135) scale(.56 .24)" xlink:href="#radial-gradient"/>
  </defs>
  <g class="cls-12">
    <g id="Layer_2" data-name="Layer 2">
      <g id="OBJECTS">
        <g>
          <g>
            <g>
              <path class="cls-7" d="M47.53,95.11c-1.72,0-3.09-21.29-3.08-47.56C44.47,21.29,45.87,0,47.59,0c1.71,0,3.09,21.29,3.07,47.56-.02,26.27-1.42,47.56-3.13,47.56Z"/>
              <path class="cls-9" d="M47.56,68.61c-3.77,0-6.82-9.42-6.82-21.05s3.05-21.06,6.82-21.05c3.76,0,6.82,9.43,6.82,21.05,0,11.63-3.05,21.06-6.82,21.06Z"/>
            </g>
            <g>
              <path class="cls-7" d="M47.53,95.11c-1.72,0-3.09-21.29-3.08-47.56C44.47,21.29,45.87,0,47.59,0c1.71,0,3.09,21.29,3.07,47.56-.02,26.27-1.42,47.56-3.13,47.56Z"/>
              <path class="cls-4" d="M47.56,68.61c-4.44,0-8.04-9.42-8.04-21.05,0-11.63,3.6-21.06,8.04-21.05,4.44,0,8.03,9.42,8.04,21.05,0,11.63-3.6,21.06-8.03,21.06Z"/>
            </g>
            <g>
              <path class="cls-6" d="M0,47.52c0-1.71,21.3-3.09,47.56-3.08,26.26.02,47.55,1.42,47.55,3.14,0,1.71-21.3,3.09-47.56,3.07-26.26-.02-47.56-1.42-47.56-3.14Z"/>
              <path class="cls-5" d="M26.5,47.56c0-4.91,9.43-8.9,21.06-8.9,11.63,0,21.06,3.98,21.06,8.9,0,4.91-9.43,8.89-21.06,8.9-11.63,0-21.06-3.98-21.06-8.9Z"/>
            </g>
          </g>
          <g>
            <g>
              <path class="cls-3" d="M2.33,92.73c-1.63-1.63,17.3-23.18,42.28-48.13C69.59,19.65,91.16.75,92.79,2.39c1.63,1.63-17.3,23.18-42.28,48.12C25.52,75.46,3.96,94.37,2.33,92.73Z"/>
              <path class="cls-2" d="M27.55,67.57c-3.58-3.58,2.47-15.44,13.52-26.5,11.05-11.05,22.92-17.12,26.5-13.53,3.58,3.57-2.48,15.44-13.53,26.49-11.05,11.06-22.91,17.12-26.49,13.53Z"/>
            </g>
            <g>
              <path class="cls-11" d="M2.33,92.73c-1.63-1.63,17.3-23.18,42.28-48.13C69.59,19.65,91.16.75,92.79,2.39c1.63,1.63-17.3,23.18-42.28,48.12C25.52,75.46,3.96,94.37,2.33,92.73Z"/>
              <path class="cls-8" d="M27.55,67.57c-4.22-4.22,1.31-16.6,12.37-27.65,11.05-11.06,23.43-16.6,27.65-12.38,4.22,4.22-1.32,16.6-12.37,27.65-11.06,11.06-23.43,16.6-27.65,12.38Z"/>
            </g>
            <g>
              <path class="cls-10" d="M2.39,2.32c1.63-1.62,23.18,17.3,48.13,42.29,24.94,24.97,43.85,46.55,42.21,48.18-1.63,1.63-23.18-17.3-48.13-42.28C19.66,25.53.75,3.96,2.39,2.32Z"/>
              <path class="cls-1" d="M27.55,27.54c4.67-4.67,17.42.5,28.47,11.55,11.05,11.05,16.23,23.8,11.55,28.48-4.67,4.67-17.42-.5-28.47-11.56-11.05-11.05-16.23-23.8-11.55-28.47Z"/>
            </g>
          </g>
        </g>
      </g>
    </g>
  </g>
</svg>