<?xml version="1.0" encoding="UTF-8"?>
<svg id="Layer_2" data-name="Layer 2" xmlns="http://www.w3.org/2000/svg" viewBox="0 0 68.08 66.5">
  <defs>
    <style>
      .cls-1 {
        fill: #3b110e;
        stroke-width: 0px;
      }
    </style>
  </defs>
  <g id="Layer_1-2" data-name="Layer 1">
    <g>
      <path class="cls-1" d="M36.8,17c-3.2,7.11,4.94,8.8-16.25,12.5.27-8.33-1.51-4.84-14.25-4.5-2.67.07-6.81.24-6.25-.5,3.84-.77,26.81-5.19,28-6,1.26-.86,4.58-9.97,23.5-18.5,4.33-.23-13.51,14.26-14.75,17Z"/>
      <path class="cls-1" d="M16.8,60.99c-1.38-.23-2.76.62-2.5-1,16.59-1.6,22.62-10.01,35.24-17.5,14.47-6.91,24.72-15.61,14.25-2.75-3.55,4.36-9.86,9.79-10,10.5-.15.75,3.51,8.86-3.75,13.75-6.46,4.35-13.39,1.74-15.5,1.5-1.55-.18-1.59,1.12-2.5,1-2.91-.37-2.26-3.1-4.5-4-.5-.2-8.7-1.15-10.75-1.5Z"/>
    </g>
  </g>
</svg>