<?xml version="1.0" encoding="UTF-8"?>
<svg id="Layer_2" data-name="Layer 2" xmlns="http://www.w3.org/2000/svg" viewBox="0 0 170.18 96.47">
  <defs>
    <style>
      .cls-1 {
        fill: #09203f;
        stroke-width: 0px;
      }
    </style>
  </defs>
  <g id="Layer_1-2" data-name="Layer 1">
    <g id="OBJECTS">
      <path class="cls-1" d="M159.38,37.34l-27.19,5.71c-1.58-1.48-4.07-3.32-5.72-2.11-1.07.78-1.25,2.18-1.09,3.54l-7.65,1.61-2.57-6.68-23.65-7.49,17.65-26.61-1.71-1.54-21.42,25.71L71.81,0l-3.26,1.36,10.63,28.62-24.68,3.08-4.8,6.34-11.12-4.74c0-1.69-.31-3.41-1.56-3.66-1.17-.23-2.37.6-3.34,1.57l-17.74-7.57L0,28.09l70.95,68.38,99.23-52.96-10.8-6.17Z"/>
    </g>
  </g>
</svg>