<?xml version="1.0" encoding="UTF-8"?>
<svg id="Layer_2" data-name="Layer 2" xmlns="http://www.w3.org/2000/svg" xmlns:xlink="http://www.w3.org/1999/xlink" viewBox="0 0 200.09 299">
  <defs>
    <style>
      .cls-1 {
        fill: #9ea0a4;
      }

      .cls-1, .cls-2, .cls-3, .cls-4, .cls-5, .cls-6, .cls-7, .cls-8, .cls-9, .cls-10, .cls-11, .cls-12, .cls-13, .cls-14, .cls-15, .cls-16, .cls-17, .cls-18 {
        stroke-width: 0px;
      }

      .cls-2 {
        fill: url(#linear-gradient);
      }

      .cls-3 {
        fill: #7d8589;
      }

      .cls-4 {
        fill: #c4c6c8;
      }

      .cls-5 {
        fill: #747678;
      }

      .cls-6 {
        fill: #c0bec2;
      }

      .cls-7 {
        fill: #3f3f3f;
      }

      .cls-8 {
        fill: #1c1d1c;
      }

      .cls-9 {
        fill: #497775;
      }

      .cls-10 {
        fill: #b0acb0;
      }

      .cls-11 {
        fill: url(#linear-gradient-2);
      }

      .cls-12 {
        fill: url(#linear-gradient-3);
      }

      .cls-13 {
        fill: #8c959d;
      }

      .cls-14 {
        fill: #231f20;
      }

      .cls-15 {
        fill: #485654;
      }

      .cls-16 {
        fill: #b2b3b7;
      }

      .cls-17 {
        fill: url(#linear-gradient-4);
      }

      .cls-18 {
        fill: #5d5e61;
      }
    </style>
    <linearGradient id="linear-gradient" x1="11.04" y1="117.36" x2="38.29" y2="128.66" gradientTransform="translate(202.56 173) rotate(-180)" gradientUnits="userSpaceOnUse">
      <stop offset="0" stop-color="#5d5e61"/>
      <stop offset="1" stop-color="#231f20"/>
    </linearGradient>
    <linearGradient id="linear-gradient-2" x1="107.5" y1="119.04" x2="132.42" y2="129.38" gradientTransform="translate(-103.76 173) scale(1.05 -1)" xlink:href="#linear-gradient"/>
    <linearGradient id="linear-gradient-3" x1="131.02" y1="-74.45" x2="118.37" y2="-71.44" gradientTransform="translate(202.56 173) rotate(-180)" gradientUnits="userSpaceOnUse">
      <stop offset="0" stop-color="#231f20"/>
      <stop offset="1" stop-color="#231f20"/>
    </linearGradient>
    <linearGradient id="linear-gradient-4" x1="79.91" y1="-75.28" x2="91.5" y2="-72.18" gradientTransform="translate(202.56 173) rotate(-180)" gradientUnits="userSpaceOnUse">
      <stop offset="0" stop-color="#497775"/>
      <stop offset="1" stop-color="#485654"/>
    </linearGradient>
  </defs>
  <g id="Layer_1-2" data-name="Layer 1">
    <g>
      <g>
        <path class="cls-2" d="M164.78,82c-2.33-13.32-3.91-26.75-8-39.75,9.63-4.93,12.37-6.16,18.5-15,1.12-1.62.89-3.83,1-4,1.53-2.35,5.84-.17,5.5-2.25,5.65.2,11.34-.15,17,0,.58,9.53,1.31,18.94.5,28.5-4.75,3.37-31.46,32.42-33.75,33-.1.03-.37-.61-.75-.5Z"/>
        <path class="cls-11" d="M37.59,75.65c2-10.51,6.08-25.15,6.06-31.02,0-1.16-.66-2.21-1.69-2.73-9.95-5.02-10.21-17.69-13.57-20.22-.69-.03-.72-.8-2.07-.89-2.33-.3-3.93-.44-5.48-.59-1.94-.17-9.04-.15-14.4-.06-1.59.03-2.88,1.26-3,2.84-.62,7.96-1.77,17.91-1.33,25.63.05.84.46,1.6,1.1,2.14,6.31,5.31,28.31,28.23,30.32,28.73.06.02,1.6-1.13,2.71-1.85.7-.46,1.2-1.17,1.35-1.99Z"/>
        <path class="cls-14" d="M148.28,42.5c13.98-5.39,23.79-8.18,27-24.5,3.63.53,7.45-.5,11-.5,3.9,0,8.04,1.03,12,.5,0,.09.89-.09,1,1.5-15.69-1.38-32.8.96-17.5,1.5.34,2.08-3.97-.1-5.5,2.25-.11.17.12,2.38-1,4-6.13,8.84-8.87,10.07-18.5,15,4.09,13,5.67,26.43,8,39.75.53,3.03.98.49,1.75,1,1.91,1.25-4.83,4.93-6.75,8.25-.06.1.04,2.14,0,2.25-.21.65-.84.85-1,1.5-2.41-15.81-6.98-36.57-10.5-52.5Z"/>
        <path class="cls-14" d="M159.78,93.5c.04-.11-.06-2.15,0-2.25,1.92-3.32,8.66-7,6.75-8.25-.77-.51-1.22,2.03-1.75-1,.38-.11.65.53.75.5,2.29-.58,29-29.63,33.75-33-.13,1.48,1.47.85.5,3.25-1.15,2.86-33.31,37.17-40,40.75Z"/>
        <path class="cls-14" d="M181.78,21c-15.3-.54,1.81-2.88,17.5-1.5.13,1.86-.5,1.42-.5,1.5-5.66-.15-11.35.2-17,0Z"/>
      </g>
      <g>
        <path class="cls-14" d="M38.29,91.01C28.99,83.36,4.95,54.45,1.5,51.83c-3.28-2.48-.4-30.87,1.22-35.11,3.63.24,8.16,0,11.37,0,4.75,0,9.41,0,14.3,0,.01.05.14,1.34.56,2.26,1.96,8.11,2.59,3.07-23.17,2.52,0,4.25-1.77,25.91-1.5,27.25.26,1.26,15.68,15.84,18,18.25,3.88,4.04,7.81,8.06,11.25,12.5.89-.09.38-6.16,3.75-17.5,1.23-4.15,7.7-16.94,6-19.5h1.5c.01.08,1.01,1.02,1,1.25-.1,2.74-9,29.64-6.54,46.74l-.95.53Z"/>
        <path class="cls-14" d="M38.28,91l1-.25c-2.59-17.08,6.4-44.24,6.5-47,0-.23-.99-1.17-1-1.25-12.24,2.81-16.28-24.64-16.39-25.78,2.91,1.35,3.41,27.11,25.37,25.77.02,0,.02.02.02.03-.16,1.11-.73,2.32-.5,4.97-4.91,15.73-6.76,32.19-8.5,48.5-2.37-1.41-4.38-3.26-6.5-5Z"/>
      </g>
      <g>
        <path class="cls-14" d="M136.78,3.33c1.04.69,1.81,1.54,2,1.92,1.16,2.33,4.32,13.28,5,17.75.48,3.12-5.51.97-6.5,1-3.8-15.23-2.16-12.1-10-12.5,1.57-12.69,4.96-4.92,8-8.5"/>
        <path class="cls-14" d="M124.28,28v-3.5c2.54,1,10.01-.41,13-.5.99-.03,5.53,2.01,6.5-1,.39,1.51.64,3.03,1,4.5l-20.5.5Z"/>
        <path class="cls-15" d="M78.78,199l-3-39c3.72,5.1,12.88,9.58,19,10.5q0,14.5,0,29c-5.35.07-10.7-.48-16-.5Z"/>
        <path class="cls-15" d="M90.28,82c2.5.79,3.96,1.06,6.5,1.5.08.01-.52.26,1.5.5v11c-7.37.85-14.45,3.46-20,8.5q0-13.12,0-26.25c.62-1.07,7.02,3.18,12,4.75Z"/>
        <path class="cls-18" d="M108.78,65.5c3.52-15.89,2.64-20.64,1.5-36.5,1.32,9.41-.22-4.51,6.5,1.25-1.21,12.49-1.17,26.24-7.5,37.25-.13-2.58-.48-1.9-.5-2Z"/>
        <path class="cls-8" d="M110.28,28c-.16-2.09-.78-4.34-1-6.5,1.86-.39.46,2.44,1.25,3,.54.38,11.23.07,13.25-.5.08.11-.17.24.5.5v3.5h-14Z"/>
        <g>
          <path class="cls-10" d="M115.28,199c1.45-6.54,6.27-19.84,9-26.25,7.47-17.55,17.15-26.77,15-48-.36-3.59-3.31-9.24-2.5-12.25.11-.4,3.92-5.59,4.5-7,.99.2,1.64.53,2.5,1,17.73,9.71,2.26,75.98-2.5,93-8.68-.63-17.31-.55-26-.5Z"/>
          <path class="cls-10" d="M137.78,105.5c1.55-.06,1.79-.34,3.5,0-.58,1.41-4.39,6.6-4.5,7l-5-6.25c.16-1.16,4-.68,6-.75Z"/>
        </g>
        <g>
          <path class="cls-5" d="M141.28,199.5c4.76-17.02,20.23-83.29,2.5-93-.02-2.66,6.53-.59,8.5-3.25-3.85-6.27-5.89-2.01-5.5-13-2.25-4.6-8.78,13.21-9,15.25-2,.07-5.84-.41-6,.75l5,6.25c-.81,3.01,2.14,8.66,2.5,12.25,2.15,21.23-7.53,30.45-15,48-2.73,6.41-7.55,19.71-9,26.25-.04.16.03.34,0,.5-6.62-.97-13.35-.09-20,0-.17,0-.33,0-.5,0q0-14.5,0-29c3.42.51,9.91.42,13.5,0,.32-.04.68.05,1,0,9.65-1.44,16.01-5.96,21-14,17.32-27.91,4.1-65.66-32-61.5v-11c2.15.26,4.3.99,6.5.25,1.23-4.07,4.67-13.36,4.5-16.75,6.33-11.01,6.29-24.76,7.5-37.25-6.72-5.76-5.18,8.16-6.5-1.25-.02-.33.03-.67,0-1h14q10.25-.25,20.5-.5c1.24,5.03,2.38,9.94,3.5,15,3.52,15.93,8.09,36.69,10.5,52.5,5.75,37.76,3.7,68.53-6,105.5-3.84-.21-7.67-.72-11.5-1Z"/>
          <path class="cls-18" d="M122.28,41c-2.36-9.45,12.02-6.59,3,2.5l-3-2.5Z"/>
          <path class="cls-14" d="M125.28,43.5c9.02-9.09-5.36-11.95-3-2.5l-1-.75c1.18-14.9,17.47.43,4,3.25Z"/>
          <path class="cls-14" d="M143.53,64l-3.25-1.25c-1.9-8.85,10.29-3.76,3.25,1.25Z"/>
        </g>
        <g>
          <path class="cls-12" d="M93.28,290c-.02-2.29-1.83-3.8-3-5.5-.81-1.18-1.69-2.32-2.5-3.5-1.58-5.22-6.13-11.28-9-16.75-10.61-20.18-18.46-42.35-24.5-64.25.48.14,8.22-.52,10-.5,4.66.07,9.33-.03,14,0,3.47,25.43,6.05,50.97,13,75.75,1.48,5.27,4.31,10.4,6,15.5.31.94-.74,1.5-.5,2.25-2.42-.97-2.18-3.04-2.75-3.5-.04-.03-.49.68-.75.5Z"/>
          <path class="cls-14" d="M97.28,294.5c-.14-.49-.34-1-.5-1.5-.24-.75.81-1.31.5-2.25-1.69-5.1-4.52-10.23-6-15.5-6.95-24.78-9.53-50.32-13-75.75.04,0-.15-.5.5-.5,5.3.02,10.65.57,16,.5.17,0,.33,0,.5,0q2.5,48.75,5,97.5c-.12.23.29,1.04-.5,1l-2.5-3.5Z"/>
          <path class="cls-14" d="M51.28,199.5h2.5c-.05.57.27.43.5.5,6.04,21.9,13.89,44.07,24.5,64.25,2.87,5.47,7.42,11.53,9,16.75-16.98-24.7-29.2-52.44-36.5-81.5Z"/>
          <path class="cls-14" d="M95.28,199.5c6.65-.09,13.38-.97,20,0-.89,4.11-1.28,8.35-2,12.5-4.09,23.71-6.76,47.79-11,71.5l-1,12.5c-.13.16-.97.94-1,1q-2.5-48.75-5-97.5Z"/>
          <path class="cls-15" d="M113.28,212c.72-4.15,1.11-8.39,2-12.5.03-.16-.04-.34,0-.5,8.69-.05,17.32-.13,26,.5-1.18,4.21-2.73,7.92-4,12-7.98-1.26-16.06-.25-24,.5Z"/>
          <g>
            <path class="cls-17" d="M102.28,283.5c4.24-23.71,6.91-47.79,11-71.5,7.94-.75,16.02-1.76,24-.5-7.2,23.03-15.1,45.42-26,67-4.09-3.62-4.72,6.79-9,5Z"/>
            <path class="cls-9" d="M101.28,296l1-12.5c4.28,1.79,4.91-8.62,9-5-2.93,5.81-5.88,12.43-10,17.5Z"/>
          </g>
          <g>
            <path class="cls-14" d="M99.78,298c.79.04.38-.77.5-1,.03-.06.87-.84,1-1,4.12-5.07,7.07-11.69,10-17.5,10.9-21.58,18.8-43.97,26-67,1.27-4.08,2.82-7.79,4-12,3.83.28,7.66.79,11.5,1-5.97,22.74-14.5,42.29-26,62.75-2.51,4.47-7.62,10.47-9.5,14.75-5.31,7.08-10.58,14.23-16.25,21l-1.25-1Z"/>
            <path class="cls-14" d="M140.53,211.5l-.75-.75c3.76-9.41,11.55-1,.75.75Z"/>
          </g>
        </g>
        <path class="cls-13" d="M124.28,24.5c-.67-.26-.42-.39-.5-.5-.38-.51-1.96-10.75-2-12.5,1.82.1,3.68-.09,5.5,0,7.84.4,6.2-2.73,10,12.5-2.99.09-10.46,1.5-13,.5Z"/>
        <path class="cls-14" d="M121.78,11.5c-2.68-.14-12.52-.14-13-1.5,4.45.39,3.55-4.38,3.5-7.5l23,.5c-3.04,3.58-6.43-4.19-8,8.5-1.82-.09-3.68.1-5.5,0Z"/>
        <path class="cls-7" d="M53.28,47.5c-.23-2.67.35-3.89.5-5,.53-3.87,2.5-10.12,3.5-14.5,8.3-.3,16.72.38,25,0,.53,1.94-.5,4.2-.5,6q-12.87,9.75-25.75,19.5c-2.27-1.55-2.54-3.65-2.75-6Z"/>
        <g>
          <path class="cls-14" d="M53.78,199.5c-9.41-33.74-10.73-56.36-8.5-91,8.37.07,4.43,7.58,5,16.75,1.58,25.25,7.69,49.85,14,74.25-1.78-.02-9.52.64-10,.5-.23-.07-.55.07-.5-.5Z"/>
          <path class="cls-15" d="M51.28,199.5c-9.9-39.4-10.69-62.86-6.5-103,2.79.94.8,7.33.5,12-2.23,34.64-.91,57.26,8.5,91h-2.5Z"/>
        </g>
        <path class="cls-14" d="M82.28,28c-8.28.38-16.7-.3-25,0,.07-.32-.45-.25,1-6.5,2.03,1.3,3.07-8.01,6.5-13.5l-5.5,15.25c10.52,1.33,7.74-.7,10-5.75,1.65.67-1.4,4.64-.75,5,3.32-.33,12.95.95,14.75.5-.81,1.92-1.41,2.81,0,4.5-.06,0,.34.44-1,.5Z"/>
        <path class="cls-14" d="M109.28,21.5c-.37-3.65-.59-7.37-1-11-.37-3.32-.84-6.72-1.5-10,2.42.38,4.94-.52,5.5,2,.31,1.4,6.82,8.86,9.5,9,.04,1.75,1.62,11.99,2,12.5-2.02.57-12.71.88-13.25.5-.79-.56.61-3.39-1.25-3Z"/>
        <path class="cls-8" d="M83.28,27.5c-1.41-1.69-.81-2.58,0-4.5,3.18-.79,4.28-11.13,3.75-11.5-3.23.34-13.83-.46-15,0-.72.28-2.1,4.54-2.75,6-2.26,5.05.52,7.08-10,5.75l5.5-15.25c.39-.63,2.99-4.4,3.25-4.5,1.42-.53,18.41.4,22.75,0-1.16,6.33-.27,15.85-.5,22.75,0,.27-1,1.17-1,1.25-1.99.07-4.01-.1-6,0Z"/>
        <path class="cls-14" d="M90.28,82c-1.15-5.91-4.61-11.44-6-17.25-2.35-9.8-2.49-20.67-2.5-30.75,0-1.8,1.03-4.06.5-6,1.34-.06.94-.5,1-.5,1.99-.1,4.01.07,6,0-.54,21.87.26,35,7.5,56-2.54-.44-4-.71-6.5-1.5Z"/>
        <g>
          <path class="cls-14" d="M64.28,199.5c-6.31-24.4-12.42-49-14-74.25-.57-9.17,3.37-16.68-5-16.75.3-4.67,2.29-11.06-.5-12,.02-.16-.02-.34,0-.5,1.74-16.31,3.59-32.77,8.5-48.5.21,2.35.48,4.45,2.75,6q12.87-9.75,25.75-19.5c0,10.08.15,20.95,2.5,30.75,1.39,5.81,4.85,11.34,6,17.25-4.98-1.57-11.38-5.82-12-4.75q0,13.12,0,26.25c-14.63,13.29-13.6,41.29-2.5,56.5l3,39c-.65,0-.46.5-.5.5-4.67-.03-9.34.07-14,0Z"/>
          <path class="cls-14" d="M59.03,104.5l-6.75-3.25c2.56-10.31,11.96-6.87,6.75,3.25Z"/>
          <path class="cls-14" d="M65.03,68c-5.35-5.84-6.73-8.2,2.5-8.5.45,2.82,1.47,9.05-2.5,8.5Z"/>
        </g>
        <g>
          <path class="cls-14" d="M98.28,84c-2.02-.24-1.42-.49-1.5-.5-7.24-21-8.04-34.13-7.5-56,0-.08.99-.98,1-1.25.23-6.9-.66-16.42.5-22.75,0-2.25.5-3,2-3.5,7.69.37,8.47.49,8.92.5,0,1.25-.42,2.25-.42,3.5-.02,12,.03,24,0,36-.02,7.5,0,15,0,22.5,0,11.07-2.26,25.13,2.5,20.75,1.43-5.98,3.67-11.74,5-17.75.02.1.37-.58.5,2,.17,3.39-3.27,12.68-4.5,16.75-2.2.74-4.35,0-6.5-.25Z"/>
          <path class="cls-18" d="M106.78,58.5c-.18-1.13-.28-2.43-.5-3.5-1.44-7.15-1.21-16.31-5-15,.03-12-.02-24,0-36l.5-2.75c4.62.09-2.85,9.03,6.5,9.25.41,3.63.63,7.35,1,11,.22,2.16.84,4.41,1,6.5.03.33-.02.67,0,1,1.14,15.86,2.02,20.61-1.5,36.5-.07-.36-.97-.52-2-7Z"/>
          <path class="cls-18" d="M101.28,4V1.5c.31,0-2.07-2.11,5.5-1,3.31.49,1.13,6.68,1.5,10-9.35-.22-1.88-9.16-6.5-9.25l-.5,2.75Z"/>
          <path class="cls-4" d="M101.28,62.5c2.27-.73,1.66-2.91,2-4.5.97,2.21,1.64,1.9,3.5.5,1.03,6.48,1.93,6.64,2,7-1.33,6.01-3.57,11.77-5,17.75-4.76,4.38-2.51-9.68-2.5-20.75Z"/>
          <path class="cls-16" d="M101.28,62.5c0-7.5-.02-15,0-22.5,3.79-1.31,3.56,7.85,5,15-4.56-.75-2.86,2.34-3,3-.34,1.59.27,3.77-2,4.5Z"/>
          <path class="cls-16" d="M103.28,58c.14-.66-1.56-3.75,3-3,.22,1.07.32,2.37.5,3.5-1.86,1.4-2.53,1.71-3.5-.5Z"/>
        </g>
        <g>
          <path class="cls-3" d="M141.28,105.5c-1.71-.34-1.95-.06-3.5,0,.22-2.04,6.75-19.85,9-15.25-.39,10.99,1.65,6.73,5.5,13-1.97,2.66-8.52.59-8.5,3.25-.86-.47-1.51-.8-2.5-1Z"/>
          <path class="cls-14" d="M145.53,104l1-5c5.94,4.09,6.62,4.11-1,5Z"/>
        </g>
        <path class="cls-14" d="M83.28,23c-1.8.45-11.43-.83-14.75-.5-.65-.36,2.4-4.33.75-5,.65-1.46,2.03-5.72,2.75-6,1.17-.46,11.77.34,15,0,.53.37-.57,10.71-3.75,11.5Z"/>
        <g>
          <path class="cls-14" d="M108.28,170.5c-8.49-.64-17.15-.59-24.75-5-17.22-10-24.65-55.66,4.5-67,31.23-12.16,49.14,17.25,46,18-2.83-4.88-9.8-13.84-14.75-13.5-5.26-2.38-14.57-4.41-11.75-1.5,3.23,0,5.87,1.24,8.75,2.5-.5,0-1-.02-1.5,0-6.59-2.77-13.51-1.16-20.25,0l.25,1c-23.88,5.94-26.3,41.22-7,54,3.77,2.49,3.88,1.87,5.5,2.5.31.12,1.86.96,2,1,.17.05.44,1.09,3.25,1.5,4.9.71,11.68-.62,16.75-.5-8.66,3.47-14.29,3.96-23.5,1.5-14.83-3.96-21.49-24.32-19.5-38.25,2.03-14.21,14.77-24.52,28.75-25.75l-1-1.5c-43.29,1.8-39.68,73.69,9,70l.25,1c-.32.05-.68-.04-1,0Z"/>
          <path class="cls-15" d="M91.78,165c11.02,7.94,30.18,1.9,37.5-9l1,.5c-4.99,8.04-11.35,12.56-21,14l-.25-1c-48.68,3.69-52.29-68.2-9-70l1,1.5c-13.98,1.23-26.72,11.54-28.75,25.75-1.99,13.93,4.67,34.29,19.5,38.25Z"/>
          <path class="cls-14" d="M94.78,170.5c-6.12-.92-15.28-5.4-19-10.5-11.1-15.21-12.13-43.21,2.5-56.5,5.55-5.04,12.63-7.65,20-8.5,36.1-4.16,49.32,33.59,32,61.5l-1-.5c.38-.57,5.78-11.6,6-12.25.1-.29-1.22,0-1-1,.07-.3,1.17.7,1.5-1,.05-.28-.95,1.4-.5-5,.05-.68,3.25-2.73.5-2.5,1.19-12.69-4.53-25.83-16.5-31.25,4.95-.34,11.92,8.62,14.75,13.5,3.14-.75-14.77-30.16-46-18-29.15,11.34-21.72,57-4.5,67,7.6,4.41,16.26,4.36,24.75,5-3.59.42-10.08.51-13.5,0Z"/>
          <path class="cls-1" d="M87.78,159c-19.3-12.78-16.88-48.06,7-54,1.12-.28,2.36-.35,3.5-.5-.07,2.6,7.75-1.61,10,1.75-21.37,9.74-25.4,33.1-17,53.5l-3.5-.75Z"/>
          <path class="cls-6" d="M93.28,161.5c-1.62-.63-1.73,0-5.5-2.5l3.5.75c-8.4-20.4-4.37-43.76,17-53.5-2.25-3.36-10.07.85-10-1.75,6.23-.83,9.92-.62,16,1,1.17.88,2.75,1.29,5,3-28.62,23.08-22.82,49.97-24,52.75-.21.48-1.5.17-2,.25Z"/>
          <path class="cls-14" d="M91.78,165c9.21,2.46,14.84,1.97,23.5-1.5,4.68-1.87,6.46-2.55,10-6.5,1.76-1.97,2.5-3.97,4-6,.05-.06.73.18.5-1.5.33-.51.27-.4.5-1,.22-.58.32-.93.5-1.5.6-1.94,1.11-4,1.5-6,.87,0,.34-1.07.5-2,.15-.87.46-1.47.5-2.5.11-2.62.09-5.37,0-8-.06-1.66.29-3.61-1-5-.44-2.01-.43-1.59-1-3-.68-3.47-4.78-10.51-8-12-2.55-2.62-3.77-3.08-7-4.5-2.88-1.26-5.52-2.51-8.75-2.5-2.82-2.91,6.49-.88,11.75,1.5,11.97,5.42,17.69,18.56,16.5,31.25,2.75-.23-.45,1.82-.5,2.5-.45,6.4.55,4.72.5,5-.33,1.7-1.43.7-1.5,1-.22.99,1.1.71,1,1-.22.65-5.62,11.68-6,12.25-7.32,10.9-26.48,16.94-37.5,9Z"/>
          <g>
            <path class="cls-10" d="M95.28,162.5c-.14-.04-1.69-.88-2-1,.5-.08,1.79.23,2-.25,1.18-2.78-4.62-29.67,24-52.75.14.11.87-.12,3,2,11.28,11.22,10.17,34.65-1,45.5-7.13,6.93-16.51,7.5-26,6.5Z"/>
            <path class="cls-15" d="M95.28,162.5c9.49,1,18.87.43,26-6.5-1.65,5.5,1.84,2.21,3.75,0l.25,1c-3.54,3.95-5.32,4.63-10,6.5-5.07-.12-11.85,1.21-16.75.5-2.81-.41-3.08-1.45-3.25-1.5Z"/>
          </g>
          <path class="cls-14" d="M98.28,104.5c-1.14.15-2.38.22-3.5.5l-.25-1c6.74-1.16,13.66-2.77,20.25,0-.82.03-1.65-.19-2,.25-.05.08,1.29,1.09,1.5,1.25-6.08-1.62-9.77-1.83-16-1Z"/>
          <path class="cls-14" d="M122.28,110.5c-2.13-2.12-2.86-1.89-3-2-2.25-1.71-3.83-2.12-5-3-.21-.16-1.55-1.17-1.5-1.25.35-.44,1.18-.22,2-.25.5-.02,1,0,1.5,0,3.23,1.42,4.45,1.88,7,4.5.53.54,1.01,1.41,1.5,2l-3.25-2,.75,2Z"/>
          <path class="cls-18" d="M121.28,156c11.17-10.85,12.28-34.28,1-45.5l-.75-2,3.25,2c2.19,2.62,5.22,6.86,6.5,10,.57,1.41.56.99,1,3,.38,1.72.24,4.55,1,5,.09,2.63.11,5.38,0,8-.92,0-.31,1.34-.5,2.5-.02.1-.16.26-.5,2-.39,2-.9,4.06-1.5,6l-.5,1.5c-.23.6-.17.49-.5,1-.04.07-.73-.19-.5,1.5-1.5,2.03-2.24,4.03-4,6l-.25-1c-1.91,2.21-5.4,5.5-3.75,0Z"/>
          <path class="cls-14" d="M124.78,110.5c-.49-.59-.97-1.46-1.5-2,3.22,1.49,7.32,8.53,8,12-1.28-3.14-4.31-7.38-6.5-10Z"/>
          <path class="cls-15" d="M132.28,123.5c1.29,1.39.94,3.34,1,5-.76-.45-.62-3.28-1-5Z"/>
          <path class="cls-15" d="M133.28,136.5c-.04,1.03-.35,1.63-.5,2.5.19-1.16-.42-2.5.5-2.5Z"/>
          <path class="cls-15" d="M132.78,139c-.16.93.37,2.01-.5,2,.34-1.74.48-1.9.5-2Z"/>
          <path class="cls-14" d="M130.78,147c-.18.57-.28.92-.5,1.5l.5-1.5Z"/>
          <path class="cls-15" d="M129.78,149.5c.23,1.68-.45,1.44-.5,1.5-.23-1.69.46-1.43.5-1.5Z"/>
        </g>
      </g>
    </g>
  </g>
</svg>