<?xml version="1.0" encoding="UTF-8"?>
<svg id="Calque_2" data-name="Calque 2" xmlns="http://www.w3.org/2000/svg" viewBox="0 0 501.06 501.08">
  <defs>
    <style>
      .cls-1 {
        fill: #00918c;
        stroke: #e2007c;
        stroke-miterlimit: 10;
      }
    </style>
  </defs>
  <g id="Calque_1-2" data-name="Calque 1">
    <g id="OBJECTS">
      <g>
        <path class="cls-1" d="m66.77,199.75c-31.63,58.59,73.89,295.94,238.86,166.62-.01,0-16.82,33.54-69.18,40.77,53.68,19.88,151.35-80.66,105.36-142.68.01,0,11,30.25-1.28,68.39,0,0,14.22-74.95-48.48-95.99,130.52,159.01-216.7,258.28-225.28-37.11Z"/>
        <path class="cls-1" d="m346.34,183.6c185.86,154.47-113.02,392.26-257.28,257.71,183.37,165.79,357.39-145.72,274.08-5.9,76.77-29.46,67.91-239.39-16.8-251.81Z"/>
        <path class="cls-1" d="m.49,272.36c17.4,94.03,32.78,124.95,137.69,178.83,0,0-105.37-59.17-137.69-178.83Z"/>
        <path class="cls-1" d="m437.49,319.04s-3.88,88.1-80.81,142.01c0,0,82.75-38.13,80.81-142.01Z"/>
        <path class="cls-1" d="m449.77,324.96c-8.2,51.33-11.53,115.34-110.53,175.55-.01,0,73.04-18.41,114.41-119.67-33.3,45.75,6.93-11.97-3.88-55.88Z"/>
        <path class="cls-1" d="m14.62,224.26c7.46,274.12,285.38,214.18,187.68,235.92,96.15,27.01,243.47-120.19,162.35-226.63.02.01,19.7,17.89,27.43,42.19,0,0-1.41-75.78-97.7-102.23,0,0,23.9,11.44,35.15,22.87-30.48-30.73-155.48,13.73-98.4,78.65,0-.01-19.4-25.15,5.62-58.63,131.05-83.48,171.14,145.62,74.49,189.44.02,0,48.52-23.59,63.28-81.49,3.24,176.59-323.84,121.71-331.05-30.06-.02.03,2.09,30.05,15.45,57.22,0,0-37.96-59.34-44.29-127.25Z"/>
        <path class="cls-1" d="m303.33,265.66c43.34,59.1-62.82,149.24-135.47,107.28,0,.01,23.38,7.33,62.34.01,0,0-103.7,8.53-128.87-97.53-25.18-106.07,35.96-157.89,35.96-157.89,0,0-25.18,36.58-28.77,60.96,0,0,39.56-104.85,176.82-124.36,0,0-87.51,18.29-133.66,70.71-46.15,52.43-38.36,132.28-34.17,150.57,0,0-9.59-25.6-10.79-51.81,0,0-15.58,85.35,61.14,124.36,0,0-42.56-31.09-45.55-75.59,13.42,61.42,131.65,82.04,81.53,81.68,37.19,21.2,126.11-24.81,99.49-88.38Z"/>
        <path class="cls-1" d="m92.94,55.95c-48.88,44.81-81.27,117.25-58.74,225.56,0,0-15.59-123.75,58.74-225.56Z"/>
        <path class="cls-1" d="m126.38,46.97c-171.52,140.88-39.63,478.51,173.61,358.15C66.82,504.58-12.83,146.06,126.38,46.97Z"/>
        <path class="cls-1" d="m86.31,122.75S124.27,4.79,281.02.5c0,0-124.42,2.15-194.71,122.25Z"/>
        <path class="cls-1" d="m310.54,11.23C211.31-12.07,7.36,145.11,94.77,292.19c-27.3-91.62,5.73-253.08,215.77-280.96Z"/>
        <path class="cls-1" d="m262.74,26.24s91.38-21.45,167.99,42.89c0,0-78.72-58.62-220.01-18.59,0,0,35.15-17.16,79.43-20.02,0,0-15.46-4.29-27.41-4.29Z"/>
        <path class="cls-1" d="m256.42,290.03c-150.62,40.01-84.35-204.82,38.66-177.98,0-.02-56.8-16.43-109.66,34.3-49.91,47.9-21.79,123.68-21.79,123.68C81.55,157.2,298.43,31.07,411.76,126.35c-88.76-107.25-343.59-7.09-264.28,152.98,0-.02-26.72-27.18-18.28-82.23,0,0-23.2,54.33,23.9,109.38,0,0-4.22-15.01-4.22-15.01,18.48,22.3,68.43,82.54,130.04,28.6,0,0-72.4,23.58-108.24-22.88,7.81,32.48,170.73,34.39,111.76-45.05,2.72,2.8,31.53,61-51.32,58.63,0,0,23.19-9.3,25.3-20.74Z"/>
        <path class="cls-1" d="m454.54,398.65c59.78-100.76-51.61-357.3-245.23-247.3,124.32-114.46,344.16,80.14,245.23,247.3Z"/>
        <path class="cls-1" d="m237.31,255.52c-13.37-67.21,113.41-76.68,125.24,31.42,0,0-12.69-61.73-68.96-62.28,0,0,13.24-6.73,18.76-5.61,0,0-71.72-20.2-75.04,36.47Z"/>
        <path class="cls-1" d="m231.79,288.63c-73.58,1.53-66.46-135.76,27.04-149.81,0-.01-15.46,5.6-33.66,25.24,0,0,58.48-39.84,133.52,6.17,0,0-15.45-27.5-70.62-33.67,0,0,111.45-13.46,148.42,103.25,0,0-14.89-31.42-47.45-56.12,0,0,45.24,44.33,41.93,116.71,0,0-3.31-92.59-91.59-130.18-88.28-37.6-135.17,24.13-140.69,41.52,0,0,20.41-30.3,63.45-40.4-36.03,6.86-93.29,96.51-30.34,117.29Z"/>
        <path class="cls-1" d="m427.66,155.64s42.49,44.33,50.76,103.81c0,0,4.41-52.75-50.76-103.81Z"/>
        <path class="cls-1" d="m476.76,214s26.49,74.63,2.76,150.38c0,0,34.76-63.97-2.76-150.38Z"/>
        <path class="cls-1" d="m392.9,100.08s72.83,45.45,97.65,124.01c0,0-10.48-81.37-97.65-124.01Z"/>
        <path class="cls-1" d="m261.04,47.34s92.14-23.57,167.73,39.84c0,0-65.11-48.82-167.73-39.84Z"/>
        <path class="cls-1" d="m290.83,66.41c59.42,5.21,153.54-14.5,209.67,135.22-.01.01-44.7-124-209.67-135.22Z"/>
      </g>
    </g>
  </g>
</svg>