<?xml version="1.0" encoding="UTF-8"?>
<svg id="Calque_2" data-name="Calque 2" xmlns="http://www.w3.org/2000/svg" viewBox="0 0 500 500">
  <defs>
    <style>
      .cls-1 {
        fill: #00918c;
      }
    </style>
  </defs>
  <g id="Calque_1-2" data-name="Calque 1">
    <g id="OBJECTS">
      <g>
        <path class="cls-1" d="m66.27,199.25s-30.07,159.4,123.48,203.98c0,0-11.98-5.79-17.16-11.05,0,0,79.51,28.93,132.52-26.3,0,0-16.81,33.53-69.17,40.76,0,0,45.15,7.28,85.33-30.25,39.43-36.82,32.97-90.07,20.04-112.43,0,0,10.99,30.25-1.29,68.38,0,0,14.22-74.95-48.48-95.99,0,0,34.26,23.67,29.74,74.95-4.53,51.28-74.34,84.15-115.71,78.9-41.37-5.26-85.98-20.38-113.13-77.58,0,0,11.64,17.75,31.68,29.59,0,0-55.6-47.34-57.85-142.96Z"/>
        <path class="cls-1" d="m345.85,183.1s65.29,32.22,59.47,124.92c-5.82,92.7-122.83,175.54-210.74,165.68,0,0,13.58,5.92,36.85,5.92,0,0-83.39,11.83-142.87-38.79,0,0,35.38,48.63,131.88,48,100.2-.66,167.43-103.22,167.43-103.22,0,0-6.46,29.59-25.21,49.31,0,0,57.53-37.9,57.53-125.58,0-95.99-74.33-126.24-74.33-126.24Z"/>
        <path class="cls-1" d="m0,271.86s9.7,103.88,80.16,149.9c0,0-14.87-17.1-22.63-30.25,0,0,36.2,42.08,80.16,59.17,0,0-105.37-59.17-137.69-178.83Z"/>
        <path class="cls-1" d="m437,318.54s-3.88,88.1-80.81,142.01c0,0,82.75-38.13,80.81-142.01Z"/>
        <path class="cls-1" d="m449.28,324.46s4.53,50.62-41.37,105.2c0,0,9.7-5.92,18.75-14.46,0,0-27.8,54.57-87.92,84.81,0,0,73.05-18.41,114.42-119.66l-14.22,18.41s16.81-41.42,10.34-74.3Z"/>
        <path class="cls-1" d="m14.13,223.76s.7,120.81,75.21,180.15c74.51,59.34,146.91,45.75,146.91,45.75,0,0-13.35,7.86-34.44,10.01,0,0,81.54,10.72,144.8-52.18,63.26-62.91,33.74-151.56,17.57-174.43,0,0,19.68,17.87,27.41,42.18,0,0-1.41-75.78-97.7-102.23,0,0,23.9,11.44,35.15,22.87,0,0-28.82-16.44-68.18-6.43-39.36,10.01-57.64,60.77-30.22,85.07,0,0-19.4-25.14,5.62-58.62,26.71-35.74,123.01-15.01,130.74,59.34,7.73,74.35-39.36,119.38-56.23,130.11,0,0,48.5-23.59,63.26-81.5,0,0,12.65,93.65-125.82,113.66-138.47,20.01-192.6-106.52-205.25-143.69,0,0,2.11,30.02,15.46,57.19,0,0-37.96-59.34-44.29-127.25Z"/>
        <path class="cls-1" d="m302.84,265.16s20.38,34.75-1.2,72.54c-21.58,37.8-91.71,54.86-134.26,34.75,0,0,23.38,7.32,62.34,0,0,0-103.7,8.53-128.87-97.53-25.18-106.07,35.96-157.89,35.96-157.89,0,0-25.18,36.58-28.77,60.96,0,0,39.56-104.85,176.82-124.36,0,0-87.51,18.29-133.66,70.71-46.15,52.43-38.36,132.28-34.17,150.57,0,0-9.59-25.6-10.79-51.81,0,0-15.58,85.35,61.14,124.36,0,0-42.56-31.09-45.55-75.59,0,0,25.77,67.06,101.9,77.42,0,0-9.59,4.88-20.38,4.27,0,0,29.37,10.36,63.53-3.05,34.17-13.41,44.96-55.47,35.97-85.34Z"/>
        <path class="cls-1" d="m92.45,55.45S28.91,107.88,21.72,213.34c0,0,5.4-21.94,9.59-29.87,0,0-8.39,50.6,2.4,97.54,0,0-15.58-123.75,58.74-225.56Z"/>
        <path class="cls-1" d="m125.89,46.47S55.6,99.37,44.35,210.18c-10.48,103.31,70.29,169.43,70.29,169.43,0,0-16.17-7.15-27.41-18.59,0,0,18.98,40.03,85.75,61.48,66.78,21.45,126.52-17.87,126.52-17.87,0,0-42.88,30.02-112.47,10.01-69.59-20.02-131.45-98.65-136.36-172.29-7.2-107.75,75.21-195.87,75.21-195.87Z"/>
        <path class="cls-1" d="m85.82,122.25S123.78,4.29,280.53,0c0,0-124.42,2.15-194.71,122.25Z"/>
        <path class="cls-1" d="m310.05,10.73s-110.36.71-171.51,60.77c-61.15,60.05-79.43,144.4-44.28,220.18,0,0-51.31-141.55,86.46-222.33,0,0-16.87,4.29-36.55,18.59,0,0,37.25-65.77,165.88-77.21Z"/>
        <path class="cls-1" d="m262.25,25.74s91.38-21.45,167.99,42.89c0,0-78.72-58.62-220.01-18.59,0,0,35.15-17.16,79.43-20.02,0,0-15.46-4.29-27.41-4.29Z"/>
        <path class="cls-1" d="m255.93,289.53c-14.22,13.97-49.91,12.15-70.99-12.87-23.51-27.9-21.51-89.75,13.35-128.68,35.85-40.03,96.3-36.46,96.3-36.46,0,0-56.8-16.42-109.65,34.31-49.91,47.9-21.79,123.68-21.79,123.68,0,0-40.77-58.62,6.33-121.53,47.09-62.91,170.81-70.06,241.8-22.16,0,0-58.34-55.76-141.99-45.04-83.65,10.72-126.52,71.49-133.55,124.39-7.03,52.9,11.25,73.64,11.25,73.64,0,0-26.71-27.17-18.28-82.21,0,0-23.2,54.33,23.9,109.38l-4.22-15.01s24.6,40.75,65.37,43.61l-5.62,5.01s39.36,12.15,70.29-20.02c0,0-72.4,23.59-108.25-22.87,0,0,30.45,33.98,87.22,20.24,49.92-12.08,38.4-53.9,24.54-65.28,2.73,2.79,31.53,60.99-51.31,58.62,0,0,23.19-9.3,25.3-20.74Z"/>
        <path class="cls-1" d="m454.05,398.15s28.82-73,10.17-142.56c0,0,.56,17.82-5.09,24.72,0,0-4.9-89.41-80.91-135.19-72.4-43.61-163.78,0-169.4,5.72,0,0,72.4-58.62,156.05-21.45,108.15,48.07,135.67,171.01,89.17,268.75Z"/>
        <path class="cls-1" d="m236.82,255.02s-8.83-22.45,15.45-42.08c24.27-19.64,99.86-8.98,109.8,73.51,0,0-12.69-61.73-68.97-62.28,0,0,13.24-6.73,18.76-5.61,0,0-71.72-20.2-75.04,36.47Z"/>
        <path class="cls-1" d="m231.3,288.13s-33.66,5.05-48.55-37.03c-14.9-42.08,16-97.08,75.59-112.79,0,0-15.45,5.61-33.66,25.25,0,0,58.48-39.84,133.52,6.17,0,0-15.45-27.5-70.62-33.67,0,0,111.45-13.46,148.42,103.25,0,0-14.89-31.42-47.45-56.12,0,0,45.24,44.33,41.93,116.71,0,0-3.31-92.59-91.59-130.18-88.28-37.6-135.17,24.13-140.69,41.52,0,0,20.41-30.3,63.45-40.4,0,0-52.73,26.13-57.93,62.28-6.62,46.03,27.59,55,27.59,55Z"/>
        <path class="cls-1" d="m427.17,155.14s42.49,44.33,50.76,103.81c0,0,4.41-52.75-50.76-103.81Z"/>
        <path class="cls-1" d="m476.27,213.5s26.49,74.63,2.76,150.38c0,0,34.76-63.97-2.76-150.38Z"/>
        <path class="cls-1" d="m392.41,99.58s72.83,45.45,97.65,124.01c0,0-10.48-81.37-97.65-124.01Z"/>
        <path class="cls-1" d="m260.55,46.84s92.14-23.57,167.73,39.84c0,0-65.11-48.82-167.73-39.84Z"/>
        <path class="cls-1" d="m290.34,65.91s59.04-10.66,116.42,27.5c0,0-8.28-11.22-18.21-16.27,0,0,77.79,15.71,111.45,124.01,0,0-44.69-124.01-209.66-135.23Z"/>
      </g>
    </g>
  </g>
</svg>