<?xml version="1.0" encoding="UTF-8"?>
<svg id="Calque_2" data-name="Calque 2" xmlns="http://www.w3.org/2000/svg" viewBox="0 0 80.85 32.19">
  <defs>
    <style>
      .cls-1 {
        fill: #231f20;
      }
    </style>
  </defs>
  <g id="Calque_1-2" data-name="Calque 1">
    <g id="OBJECTS">
      <path class="cls-1" d="m80.85,8.22s-5.45-12.73-33.46-6.5c0-.08-10.42,2.3-25.12,11.4,0,.03-8.62,4.43-11.12,4.7C11.14,17.78,3.9,11.94,0,8.74c0-.02,4.05,6.8,4.97,8.63.91,1.8,2.15,3.44.21,7.14,0,.03-3.03,6.55-3.77,7.68,0,.02,4.89-3.51,6.93-7.08.85-1.45,2.88-5.6,3.78-5.77.91-.14,6.01-.79,15.54.85,40.55,8.41,53.21-11.44,53.19-11.98Z"/>
    </g>
  </g>
</svg>