<?xml version="1.0" encoding="UTF-8"?>
<svg id="Layer_2" data-name="Layer 2" xmlns="http://www.w3.org/2000/svg" viewBox="0 0 96.45 47.81">
  <defs>
    <style>
      .cls-1 {
        fill: #e9f4f6;
      }

      .cls-1, .cls-2, .cls-3 {
        stroke-width: 0px;
      }

      .cls-2 {
        fill: #ceeaf0;
      }

      .cls-3 {
        fill: #fff;
      }
    </style>
  </defs>
  <g id="Layer_1-2" data-name="Layer 1">
    <g>
      <path class="cls-3" d="M16.66,35.82c23.5-5.6,24.86-5.93,27.98-5.86,10.03.23,16.29,2.38,16.29,2.38,2.54.87,5.58,2.19,10.08,2.26,2.73.04,5.66.04,8.01-1.98,2.44-2.1,4.13-6.3,2.42-8.98-1.71-2.68-5.95-2.51-6.46-2.48-3.05.16-5.32,1.91-5.53,1.64-.19-.26,2.22-1.25,2.97-3.33.88-2.43-.73-5.69-2.86-7.36-2.81-2.21-7.21-2.17-10.92.2.08-1.12.12-3.62-1.28-6.23-2.1-3.93-5.88-5.21-6.82-5.51-5.53-1.77-10.28,1.21-11.28,1.84-2.88,1.81-4.39,4.21-5.11,5.38-1.42,2.3-2.03,4.47-2.33,5.9-.96-.53-4.29-2.2-8.43-1.31-3.6.77-5.74,3.03-6.69,4.07-2.27,2.47-3.09,5.11-3.41,6.43-.48-.36-3.61-2.62-7.38-1.72-.61.15-2.88.7-4.45,2.73-.38.49-.65.99-.84,1.45,0,0-.46,1.11-.47,2.5-.02,1.82,1.19,5.95,3.98,8,3.01,2.21,6.94,1.33,12.53,0Z"/>
      <path class="cls-1" d="M52,10.93c3.14.88,5.18,2.77,6.13,3.79.88-.46,2.62-1.19,4.84-1.04.88.06,3.69.25,5.43,2.45.24.3,1.11,1.44,1.3,3.06.19,1.7-.53,2.66-.09,3.03.59.51,2.02-1.26,4.28-1.69,2.68-.51,6.59.61,7.86,3.61.99,2.33-.08,4.7-.38,5.32,2.31-.6,4.72.14,6.17,1.87,1.34,1.59,1.97,4.14.94,5.83-1.43,2.37-5.72,2.2-7.46,2.13-2.92-.12-4.03-1.01-6.36-.26-1.29.42-2.59,1.22-3.05,1.51-1.43.88-2.06,1.54-2.74,2.06-3.83,2.94-9.64,1.78-10.55,1.59-1.82-.36-1.25-.59-3.7-1.19-1.97-.48-5.25-1.24-8.83-.24-1.15.32-1.94.72-2.25.87-4.48,2.13-16.11,3.08-28.13-1.63-5.6-2.19-9.82-3.42-12.73-7.58-.77-1.1-4.02-5.75-2.06-9.1,1.31-2.24,4.39-2.95,6.64-2.73,3.68.36,5.64,3.27,5.9,3.67.4-1.07,1.69-4.12,4.97-6.12,2.41-1.47,4.65-1.62,5.11-1.65,4.85-.26,8.2,3.09,8.81,3.71.85-1.83,3.8-7.59,10.29-10.26,1.76-.72,5.35-2.2,9.66-1Z"/>
      <path class="cls-2" d="M95.44,34.98c-1.13-1.01-2.68-1.32-3.81-.97-1.07.33-1.25,1.01-1.87.91-.98-.16-.76-1.9-2.23-3.6-.15-.17-1.8-2.02-4.31-2.12-.79-.03-1.43.12-1.87.25-.09.82-.43,3.04-2.23,4.74-2.61,2.46-6.27,1.94-6.69,1.87-3.36-.52-4.29-2.95-6.41-2.39-1.75.46-1.78,2.3-3.54,2.69-1.6.35-2.39-.99-4.71-2.1-5.23-2.5-11.63-.66-14.25,1.35-.11.08-.47.31-.8.63-1.18,1.14-2.19,3.02-4.52,3.52-1.49.32-2.85-.06-3.77-.44-1.22,1.56-2.76,2.81-4.6,3.57,0,0-1.7.7-3.77.79-3.77.17-9.23-2.57-14.36-7.59-1.04.15-2.78.27-4.78-.33-3.49-1.05-5.4-3.56-6.01-4.43,1.77,3.97,3.93,6.45,5.33,7.83,8.66,8.59,24.2,10.95,33.93,6.35,1.96-.93,3.78-2.16,6.92-2.45,4.26-.39,5.24,1.54,11.81,2.45,4.12.57,7.4.97,9.82-.96,1.81-1.45,1.61-3,3.36-3.5,2.11-.61,3.53,1.31,6.54.88,1.38-.2,2.66-.63,2.66-.63,2.61-.92,2.78-1.38,3.99-1.53,1.32-.16,1.68.32,3.46.62.51.09,5.35.9,7.07-1.16.97-1.16.87-3.14-.36-4.23Z"/>
    </g>
  </g>
</svg>