<?xml version="1.0" encoding="UTF-8"?>
<svg id="Layer_2" data-name="Layer 2" xmlns="http://www.w3.org/2000/svg" viewBox="0 0 69.63 33.36">
  <defs>
    <style>
      .cls-1 {
        fill: #ceeaf0;
      }

      .cls-1, .cls-2, .cls-3 {
        stroke-width: 0px;
      }

      .cls-2 {
        fill: #f2f7f8;
      }

      .cls-3 {
        fill: #fff;
      }
    </style>
  </defs>
  <g id="Layer_1-2" data-name="Layer 1">
    <g>
      <path class="cls-2" d="M60.33,15.51c-.27-.81-.99-2.52-2.71-3.85-.22-.17-2.88-2.16-5.73-1.62-2.19.41-2.98.64-2.98.64-.89.27-1.52.5-1.83.21-.3-.29-.07-.9,0-1.39.24-1.69-1.36-3.24-2.26-4.12-2.64-2.56-6.66-2.48-8.36-2.43-5.52.15-9.02,3.24-9.4,3.59-1.61,1.47-1.16,2.12-2.73,2.84-2.4,1.1-4.41,0-7.43,1.28-.67.29-2.09,1.01-2.53,2.03-.33.76-.07,1.38.15,1.88.2.46.35.83.02,1.15-.41.39-1.2.38-2.29.35-.63-.01-1.34-.03-2.15.03-3.23.24-4.79,3.7-8.06,3.53-.59-.03-1.05-.18-1.29-.27C-.4,22.4,0,24.23.49,25.31c3.74,8,27.86,5.23,38.25,4.04,4.05-.46,6.19-.93,10.57-1.01,6.03-.11,8.59-.22,13.71-.44,2.95-.13,4.14-.21,5.13-1.17,2.28-2.22,1.89-7.58-.91-10.09-1.55-1.39-3.52-1.62-3.65-1.64-1.51-.16-2.7.27-3.26.51Z"/>
      <path class="cls-3" d="M54.67,18.81c1.48-.1,4.36-.31,5.46-2.42,1.08-2.09-.27-4.69-1.47-6.01-2.44-2.69-6.19-2.15-6.76-2.07-2.53.4-4.13,1.9-4.7,2.48.02-1-.08-2.67-.9-4.47-1.59-3.5-4.72-4.93-5.69-5.36-4.42-1.94-8.54-.44-9.74.07-1.19.5-3.48,1.5-5.03,3.99-1.05,1.68-1.32,3.33-1.4,4.27-.67-.36-2.65-1.29-5.08-.8-2.75.56-4.99,2.73-5.9,5.61-1.39-.31-4.12-.69-7.13.42-.95.35-3.02,1.14-4.57,3.16-1.03,1.34-1.91,3.34-1.38,3.82.44.39,1.47-.6,3.68-1.55,1.37-.59,5.25-2.24,8.87-1.04,1.73.57,1.58,1.2,3.24,1.58,2.98.69,5.6-.79,6.25-1.16,3.25-1.83,4.42-4.95,4.73-5.86.68.47,1.67,1.07,2.94,1.6,4.2,1.74,7.97,1.19,9.15.98,2.91-.53,5.07-1.75,6.34-2.61.36.8,1.13,2.25,2.68,3.46,2.5,1.97,5.28,1.98,6.4,1.9Z"/>
      <path class="cls-1" d="M25.2,23.64c.94.67,2.04,1.3,3.32,1.81,6.28,2.48,12.38.09,14.45-.83,1.53.7,3.8,1.42,6.34.92,1.3-.26,1.48-.6,2.88-.85,2.7-.49,6.7.63,6.7.63,5.38,1.6,9.46-.14,9.67.75.2.87-3.59,2.91-7.42,3.71-4.99,1.04-9.46.3-12.62-.62-3.47,2.12-6.57,3.12-8.68,3.64-4.55,1.1-6.29.35-7.12-.2-.62-.41-.54-.56-1.16-.91-1.91-1.08-3.98-.33-6.83.31,0,0-2.84.63-5.73.92-2.6.26-6.79.68-11.03-1.31-1.21-.57-3.03-1.62-4.88-3.6.88-1.05,2.4-2.52,4.6-3.06,4.22-1.04,7.1,2.88,11.7,1.63,2.74-.75,4.7-2.07,5.82-2.94Z"/>
    </g>
  </g>
</svg>