<?xml version="1.0" encoding="UTF-8"?>
<svg id="Layer_2" data-name="Layer 2" xmlns="http://www.w3.org/2000/svg" viewBox="0 0 106.19 44.91">
  <defs>
    <style>
      .cls-1 {
        fill: #e9f4f6;
      }

      .cls-1, .cls-2, .cls-3 {
        stroke-width: 0px;
      }

      .cls-2 {
        fill: #ceeaf0;
      }

      .cls-3 {
        fill: #fff;
      }
    </style>
  </defs>
  <g id="Layer_1-2" data-name="Layer 1">
    <g>
      <path class="cls-3" d="M34.46,10.62c4.78-1.37,9.4-.2,10.74.14,2.79.71,4.94,1.81,6.36,2.67.07-.75.8-7.77,7-11.48,4.81-2.88,9.77-1.89,11.76-1.31,6.25,1.81,9.15,7.01,9.85,8.28,5.2,9.35-.06,19.85-1.21,21.99-1.09,2.04-3.13,5.86-7.43,8.61-4.36,2.79-12.24,2.51-27.84,1.83-7.44-.32-11.14-.59-12.36-.73-1.88-.22-4.88-1.3-8.74-.73-.83.12-1.67.31-3.35.69-4.34.98-5.42,1.49-6.63,1.7-3.75.65-9.76-1.41-11.87-6.43-1.99-4.71.35-9.89,3.33-12.61,2.37-2.16,5.05-2.69,6.33-2.93,5.57-1.02,10,1.53,11.29,2.34.46-1.14,3.97-9.53,12.77-12.05Z"/>
      <path class="cls-3" d="M71.46,16.53c.73-.89,2.56-2.96,5.63-3.92,3.24-1.01,7.34-.3,9.71,2.16.45.47,1.58,1.7,1.93,3.66.26,1.49-.05,2.72-.26,3.35.47-.36,1.7-1.19,3.45-1.26,2.47-.1,4.11,1.4,4.51,1.77,2.1,1.98,2.09,4.64,2.08,5.08,2.47-.56,4.97.31,6.39,2.18,1.15,1.52,1.81,3.93.79,5.57-1.82,2.93-7.53,2.39-8.13,2.33-2.1-.2-2.56-.8-4.09-.43-1.4.34-1.56.97-4.52,2.48-1.95.99-2.67,1.12-3.26,1.13-1.13.02-1.93-.34-2.86-.75-2.11-.94-2.18-1.76-3.95-2.28-.48-.14-1.42-.43-2.64-.31-.25.02-.55.08-.92.18-2.23.63-3.35,2.17-4.11,2.11-2.25-.17-6.65-14.68.24-23.05Z"/>
      <path class="cls-1" d="M32.54,17.78c4.29-2.23,11.08-3.49,16.15-.05,1.58,1.07,2.61,2.35,3.26,3.29.52-1.46,2.4-6.19,7.44-9.12,1.24-.72,6.79-3.76,12.49-1.64,2.85,1.06,4.5,2.87,6.46,5.14,5.81,6.76,4.49,11.56,9.68,14.22,1.31.67,3.95,2.25,6.76,1.52,2.01-.52,2.64-1.82,4.9-1.9.5-.02,2.93-.1,4.16,1.65.66.94.96,2.4.35,3.55-.36.69-1.07,1.29-2.95,1.79-3.49.93-4.38-.25-7.15.23-3.54.62-4.27,2.28-6.33,3.08-.8.31-1.44.35-2.06.42-3.88.4-9.58-2.16-10.34-2.5-.73.55-1.85,1.35-3.3,2.19-10.16,5.9-21.2,4.95-30.52,4.03-3.49-.34-8.28-1.02-13.92-2.45-1.57.6-3.81,1.33-6.59,1.81-3.7.63-8.8,1.36-13.57-1.29C2.58,39.06.65,34.23,0,32.32c.58-1.28,2.55-5.16,6.87-6.99,5.3-2.25,11.98-.51,16.56,4.48.22-1.01,1.92-8.28,9.11-12.03Z"/>
      <path class="cls-2" d="M103.82,30.9c-1.64-1.66-3.81-1.67-4.16-1.65-2.26.08-2.89,1.38-4.9,1.9-2.81.74-5.45-.84-6.76-1.52-4.87-2.51-4-6.9-8.71-13.04-.61.51-1.25.97-1.93,1.4-1.36.86-3.45,2.22-5.73,2.4-2.09.16-3.63-.73-4.35-1.04-6.89-3-18.47,11.89-34.18,14.3-2.3.35-5.91.63-10.55-.25-.54.81-3.43,4.93-8.9,5.9-1.08.19-5.14.85-9.08-1.67C1.8,35.86.5,33.41,0,32.32c-.01,1.23.15,3.42,1.36,5.69,1.96,3.66,5.35,5.09,6.77,5.68,5.44,2.29,10.7.81,13.56,0,2.59-.73,4.6-1.72,5.91-2.45,5.64,1.44,10.43,2.11,13.92,2.45,9.32.92,20.36,1.87,30.52-4.03,1.45-.84,2.58-1.65,3.3-2.19,2.35,1.56,8.11,5.01,12.32,3.61.71-.24,2.73-1.06,4.83-2.07,1.48-.71,2.68-1.36,3.5-1.82.66.34,1.74.8,3.14.96.96.11,2.07.24,3.28-.26.33-.13,2.65-1.14,2.93-3.36.23-1.85-1.12-3.22-1.52-3.62Z"/>
      <path class="cls-3" d="M49.56,33.69c4.21.1,33.99.65,36.57-8.83.53-1.94.35-5.9-2.14-8.17-2.97-2.72-7.58-1.52-8.33-1.33-5.38,1.4-7.67,6.5-8.01,7.28-1.84-1.23-4.2-1.37-6.15-.36-2.82,1.46-3.19,4.54-3.21,4.77-3.21-1.31-6.48-.98-8.21.86-.22.24-1.95,2.08-1.42,4.18.19.74.59,1.27.9,1.59Z"/>
      <path class="cls-1" d="M67.95,25.67c3.51,1.48,5.94,1.25,7.47.81,3.83-1.09,5.38-4.42,8.14-4.03,1.61.23,2.74,1.61,3.38,2.57.5-.26,1.28-.57,2.36-.66.02,0,.08,0,.13,0,2.07-.12,3.46,1.15,3.46,1.15,1.5,1.36,1.44,3.29,1.43,3.55.6-.16,2-.44,3.56.15.53.2,1.44.54,2.09,1.45.72,1,1.08,2.62.43,3.75-1.18,2.07-5.29,1.77-6.88,1.66-.05,0-.09,0-.11,0-1.81-.14-2.2-.57-3.52-.31-1.2.24-1.34.69-3.89,1.75-1.68.7-2.3.79-2.81.8-.97.02-1.67-.24-2.46-.53-1.82-.67-1.88-1.24-3.39-1.62-.41-.1-1.23-.3-2.27-.22-1.33.11-1.49.56-2.49.61-1.57.07-1.76-.99-3.23-.95-1.2.03-1.34.72-3.43,1.18-.52.11-1.15.25-1.97.22-1.68-.06-1.89-.76-3.47-.9-.24-.02-.42-.02-.59-.02-1.26.06-2.2.26-2.36.3-1.9.47-8.18-1.76-7.98-2.68.14-.63,3.03.4,5.84-1.27,1.65-.98,2.63-2.51,3.22-3.83.25.2,2.39,1.8,5.14,1.09,3.12-.81,4.12-3.84,4.18-4.02Z"/>
    </g>
  </g>
</svg>