<?xml version="1.0" encoding="UTF-8"?>
<svg id="Layer_2" data-name="Layer 2" xmlns="http://www.w3.org/2000/svg" viewBox="0 0 111.52 60.16">
  <defs>
    <style>
      .cls-1 {
        fill: #e9f4f6;
      }

      .cls-1, .cls-2, .cls-3 {
        stroke-width: 0px;
      }

      .cls-2 {
        fill: #ceeaf0;
      }

      .cls-3 {
        fill: #fff;
      }
    </style>
  </defs>
  <g id="Layer_1-2" data-name="Layer 1">
    <g>
      <path class="cls-3" d="M71.39,56.74c-1.31-.02-2.49-.32-2.88-.45-.88-.27-1.71-.65-2.61-1.05-1.98-.89-3.04-1.7-3.98-2.41-1.02-.78-1.91-1.46-3.67-1.99-.99-.3-2.76-.84-5.02-.65-1.51.13-2.31.49-3.08.85-.7.32-1.36.62-2.47.67-1.84.07-2.86-.66-3.85-1.36-.94-.67-1.84-1.3-3.4-1.29-1.28.01-1.98.44-2.95,1.03-1,.61-2.24,1.37-4.62,1.95-1.15.28-2.57.63-4.41.51-1.99-.12-3.1-.71-4.17-1.28-.96-.51-1.96-1.04-3.62-1.23-1.4-.17-2.16.03-3.04.25-.85.22-1.8.46-3.52.4-.88-.03-3.99-.24-6.79-1.66C3.74,47.2-.39,42.74.03,37.1c.04-.52.47-5.25,4.58-8.34.84-.63,4.24-3.19,8.78-2.59,1.7.23,3.01.82,3.84,1.28.19-1.41,1.05-6.49,5.44-10.06,2.88-2.34,5.84-2.87,6.43-2.97,4.22-.7,7.51.85,8.63,1.44.47-2,1.54-5.36,4.22-8.52C47.21,1.13,56.23-1.43,64.09.78c1.71.48,9.09,2.8,12.65,10.02,1.34,2.71,1.71,5.25,1.81,6.92.48-.69,1.27-1.62,2.47-2.31,3.93-2.25,9.37-.3,12.53,2.47,2.95,2.59,5.6,7.37,4.29,10.88-.56,1.51-1.8,2.61-1.32,3.46.45.81,1.95.53,3.69.66,3.07.24,6.14,1.72,7.87,3.49,2.57,2.63,3.71,7.4,1.7,10.61-3.21,5.1-12.8,4.48-15.66,4.16-1.61-.18-2.75-.47-3.66-.7-1.4-.36-2.42-.62-4.15-.24-1.4.31-2.14.78-3.36,1.56-.49.31-1.05.68-1.77,1.1-1.45.86-2.63,1.45-3.44,1.83-2.93,1.37-4.4,2.06-6.33,2.03Z"/>
      <path class="cls-1" d="M101.46,30.75c-2.07-.36-4.51.08-4.95.17-1.75.32-3.15.87-4.12,1.32.32-.38,2.37-2.9,1.81-6.43-.55-3.47-3.2-5.24-3.79-5.61-2.67-1.66-5.4-1.21-6.76-.99-3.94.65-6.4,3.16-7.25,4.12-.29-1.06-.82-2.51-1.88-3.96-4.89-6.74-16.03-6.57-22.22-5.11-11.54,2.72-17.23,12.61-18.35,14.66-.92-.47-4.01-1.92-7.78-1.01-5.93,1.43-8.01,7.38-8.15,7.79-.88-.33-2.12-.75-3.65-1.12-2.8-.67-4.21-1.03-5.94-.67-3.32.7-5.08,3.06-5.37,3.47-1.54,2.13-1.56,4.29-1.55,5.07.02,4.15,2.99,8.72,6.08,8.93,1,.07,2.19-.39,4.58-1.3,1.05-.4,1.98-.76,3.42-1.09.61-.14,1.33-.23,2.25-.22,7.97.08,11.47,7.39,17.63,5.92.73-.17,1.98-.58,3.29-1.32,3.12-1.74,3.67-3.69,6.38-4.23.57-.11,1.49-.3,2.52.03,2.08.67,1.95,2.58,4.06,4.66.38.38,3.28,3.16,6.83,2.75.43-.05,2.3-.27,3.73-1.58,1.06-.97.97-1.71,1.89-2.11,1.24-.53,2.24.45,4.03.64.76.08,1.75.02,5.39-1.75,4.88-2.36,5.12-3.39,7.44-3.89,2.53-.55,3.3.43,6.8.82,0,0,.08,0,.22.02.11.01,21.4-2.68,21.57-10.18.08-3.47-4.38-7.16-8.17-7.82Z"/>
      <path class="cls-2" d="M83.05,43.27c-4.87-2.73-7.07-7.43-7.96-9.75-.18.21-1.48,1.71-3.24,1.54-1.17-.11-1.97-.89-2.63-1.53-.82-.8-1.28-1.64-1.53-2.2-5.92,6.69-16.52,10.61-22.54,4.5-5.34,6.98-12.84,10.26-18.69,8.28-1.27-.43-3.2-1.36-5.12-3.58-.41.69-1.06,1.64-2.05,2.56-2.82,2.65-7.15,3.87-11.43,3.07-1.26-.24-4.23-1.04-7.17-4.61,1.41,5.79,4.07,8.69,5.75,10.11,8,6.78,23.17,5.21,29.04,3.34.85-.27,3.29-1.11,6.42-.75,2.85.33,4.76,1.47,6.03,2.15,4.72,2.51,10.93,4.02,16.08,3.74,3.65-.2,8.51-1.41,12.56-3.69,1.09-.62,2.98-1.67,5.81-2.68,1.53-.54,3.18-.87,5.74-1.1,9.34-.81,11.75,1.79,16.64-.1,1.08-.42,4.87-1.9,6.26-5.66,1.68-4.53-1.4-8.94-1.78-9.48-7.9,7.91-18.69,10.06-26.19,5.86Z"/>
    </g>
  </g>
</svg>