<?xml version="1.0" encoding="UTF-8"?>
<svg id="Layer_2" data-name="Layer 2" xmlns="http://www.w3.org/2000/svg" viewBox="0 0 79.87 50.84">
  <defs>
    <style>
      .cls-1 {
        fill: #e9f4f6;
      }

      .cls-1, .cls-2, .cls-3 {
        stroke-width: 0px;
      }

      .cls-2 {
        fill: #ceeaf0;
      }

      .cls-3 {
        fill: #fff;
      }
    </style>
  </defs>
  <g id="Layer_1-2" data-name="Layer 1">
    <g>
      <path class="cls-3" d="M7.94,46.05c3.3-1.65,6.7-3.26,10.22-4.82,18.31-8.15,35.97-13.45,52.16-16.86.76-1.87,2.49-6.84.93-12.75-.48-1.81-1.46-5.56-4.77-8.36-4.81-4.07-12.15-4.09-17.52-1.38-7.3,3.69-9.02,11.45-9.24,12.54-.82-.85-2.48-2.35-5-3.03-4.5-1.23-9.4.78-12.12,4.26-1.86,2.38-2.3,4.94-2.42,6.27-1.08-.63-2.89-1.5-5.27-1.79-.67-.08-6.56-.71-10.9,3.36-4.88,4.57-5.11,12.54-1.78,17.69,1.79,2.76,4.27,4.19,5.7,4.87Z"/>
      <path class="cls-1" d="M23.17,27.59c-.93-.79-2.53-1.93-4.75-2.61-.58-.18-8.2-2.35-13.14,2.94-3.42,3.66-3.78,9.02-2.18,12.85,2.88,6.9,11.83,8.16,13.49,8.4,8.8,1.24,11.14-4.01,22.11-3.83,4.26.07,5.22.88,8.15,1.63,1.96.49,3.38.68,5.65.88,9.44.84,19.07,1.7,24.17-3.94,3.42-3.78,3.21-8.72,3.19-9.17-.06-1.03-.3-5.44-3.93-8.26-2.22-1.72-4.58-2.03-5.6-2.1.33-1.35.71-3.77-.02-6.54-.25-.93-2.17-7.76-8.16-8.82-3.55-.63-7.28.99-9.77,4.04-1.02-.26-3.09-.62-5.47.13-4.39,1.39-6.15,5.43-6.42,6.08-.89-.58-3.02-1.8-5.89-1.73-3.59.08-5.97,2.12-7.07,3.05-3.09,2.61-4.06,5.85-4.35,7.02Z"/>
      <path class="cls-2" d="M26.97,39.09c-1.37-1.05-3.54-2.36-5.86-1.95-3.09.54-3.89,3.67-7.3,5.6-1.75.99-4.64,1.92-9.38,1,4.64,4.98,8.84,6.5,11.86,6.95,6.19.92,7.99-2.53,19.18-3.35,5.01-.37,9.9-.01,11.84.15,4.23.37,4.78.76,9.13,1.11,6.15.5,9.23.75,12.73-.38,2.22-.72,7.92-2.55,9.12-7.43.65-2.66-.09-6.01-2.35-7.95-3.18-2.73-9.04-2.35-13.16,1.82-4.6-4.43-10.94-5.39-15.24-2.74-3.32,2.04-4.39,5.6-4.7,6.79-.87-.46-2.13-.92-3.38-.54-2.61.79-2.61,4.5-4.69,5.34-1.31.53-3.59-.02-7.82-4.43Z"/>
      <path class="cls-3" d="M68.75,26.32c1.94-.51,2.65-5.42,1.89-8.95-.18-.85-.46-2.09-1.41-3.31-2.2-2.84-5.93-2.97-6.56-2.99-3.86-.13-7.62,2.35-9.87,6.27-.53-.23-2.05-.81-3.93-.38-.57.13-2.23.51-3.35,2.08-1.42,1.98-.82,4.26-.73,4.59-.56-.31-2.78-1.45-5.43-.73-.28.08-3.96,1.14-4.64,4.3-.04.2-.52,2.57,1.01,4.13,1.2,1.23,3.16,1.45,3.34,1.11.11-.2-.48-.45-.78-1.23-.5-1.29.3-2.69.44-2.93.77-1.33,2.07-1.86,2.53-2.04,3.38-1.32,6.12,1.08,7.39-.25.69-.73,0-1.59.89-3.12.65-1.11,1.61-1.66,2.2-2,2.01-1.15,5.54-1.91,9.01-.68,5.18,1.85,6.01,6.65,8.02,6.12Z"/>
    </g>
  </g>
</svg>