<?xml version="1.0" encoding="UTF-8"?>
<svg id="Layer_2" data-name="Layer 2" xmlns="http://www.w3.org/2000/svg" viewBox="0 0 113.12 51.46">
  <defs>
    <style>
      .cls-1 {
        fill: #ceeaf0;
      }

      .cls-1, .cls-2, .cls-3 {
        stroke-width: 0px;
      }

      .cls-2 {
        fill: #f2f7f8;
      }

      .cls-3 {
        fill: #fff;
      }
    </style>
  </defs>
  <g id="Layer_1-2" data-name="Layer 1">
    <g>
      <path class="cls-3" d="M100.59,21.56c-.41-1.02-2.71-6.48-8.84-9-7.28-2.99-13.77.73-14.5,1.16-.28-.64-5.45-11.94-17.16-13.54-9.77-1.33-19.81,4.68-23.88,14.85,6.23,7.9,20.12,22.87,41.32,26.42,11.92,2,31.52,1.28,34.96-7.13.96-2.35.89-5.84-.84-8.48-3.24-4.94-10.64-4.31-11.06-4.27Z"/>
      <path class="cls-2" d="M96.75,25.02c-.44-.93-3.38-6.92-10.37-8.93-5.71-1.65-10.43.43-11.64,1-.3-1.71-1.06-4.65-3.28-7.42-4.83-6-12.5-6.14-14.37-6.18-8.08-.15-13.65,4.5-15.6,6.12-2.12,1.77-3.58,3.56-4.52,4.85-1.21-.83-3.34-2.01-6.12-2.18-5.33-.34-11.33,3.09-12.62,8.27-.54,2.18-.11,4.13.25,5.27-.89-.9-3.11-2.88-6.34-3.24C6.46,21.95.39,26.68.02,31.95c-.16,2.23.68,4.79,2.4,6.51,1.72,1.73,3.83,2.19,4.49,2.33,8.18,1.82,100.14,9.1,101.65-6.53.17-1.74-.66-5.12-3.06-7.22-2.88-2.53-6.93-2.27-8.75-2.03Z"/>
      <path class="cls-1" d="M96.83,36.75c-3.48-2.2-4.73-5.56-5.08-6.63-1.2,1.64-3.16,3.75-5.88,4.14-4.54.65-6.25-4.2-11.38-5.44-7.35-1.78-11.21,6.41-20.91,7.33-3.65.34-8.96-.26-15.76-4.87-.39.26-.83.44-1.32.49-1.58.19-2.15-1.07-3.67-1.62-5.39-1.96-13.8,8.21-20.95,10.01-1.89.48-3.28.51-4.38.35-3.04-.42-4.99-2.17-5.09-2.03-.14.2,3.21,3.77,8.06,6.76,1.52.94,17.02,10.16,33.94,4.28,3.3-1.15,5.82-2.57,7.4-3.57,1.4,1.39,2.77,2.21,3.72,2.69,1.08.54,3.42,1.69,6.41,1.47.98-.07,2.31-.18,3.58-1.05.87-.59.7-.84,1.35-1.1.9-.35,1.47.02,4.31.06.17,0,.26,0,.35,0,.71-.02,1.84-.21,4.82-1.19.99-.33,1.97-.71,2.95-1.06,0,0,2.16-.78,4.22-1.47,4.29-1.45,9.84,1.18,15.49.31,7.3-1.12,12.23-7.67,12.08-7.91-.12-.18-1.01.5-2.79,1.11,0,0-1.17.38-2.31.59-5.08.94-9.15-1.65-9.15-1.65Z"/>
      <path class="cls-1" d="M69.93,30.87c-1.57-1.63,0-3.57-1.6-5.55-1.2-1.49-3.64-2.07-5.47-1.93-1.09.09-1.93.4-2.6.65-.74.28-1.23.46-1.59.16-.31-.26-.27-.69-.22-1.33.04-.49.09-1.1.01-1.87-.17-1.63-1.17-3.46-1.53-3.98-2.42-3.4-6.93-3.58-7.12-3.59-4.77-.13-7.91,3.63-8.25,4.05-1.45,1.79-1.09,2.65-2.46,3.47-2.11,1.27-3.81-.26-6.45,1.21-.59.33-1.84,1.17-2.26,2.45-.31.95-.11,1.76.05,2.41.15.6.27,1.08-.03,1.47-.36.48-1.05.41-1.99.32-.54-.05-1.16-.11-1.85-.08-1.7.07-5.8.84-7.09,4.05-.63,1.58-.5,3.5.37,5.02,1.1,1.92,3.17,2.62,4.61,3.02,7.8,2.17,16.98.72,17.48.64,13.2-2.18,13.11-4.29,18.12-3.5,4.8.76,6.88,3.51,11.76,2.54,1.1-.22,3.19-.66,4.02-2.33.86-1.74.07-4.22-1.42-5.5-1.65-1.43-3.17-.44-4.5-1.82Z"/>
      <path class="cls-3" d="M69.93,30.87c.13-.48.82-3.18-.79-5.83-1.86-3.06-5.23-3.44-5.65-3.48-2.57-.25-4.46.93-5.02,1.31.07-.79.21-3.41-1.52-5.84-2.4-3.38-6.41-3.57-7.12-3.59-4.22-.11-7.06,2.82-8.25,4.05-1.24,1.28-2.01,2.57-2.46,3.47-.33-.14-3.17-1.26-5.8.31-2.33,1.39-3.54,4.32-2.89,7.24-.98-.26-3.11-.7-5.57.05-1.19.36-4.2,1.28-5.35,4.23-.78,2.01-.63,4.72,1.03,6.55,2.44,2.7,6.48,1.72,7.22,1.55,5.14-1.24,7.02-6.83,7.17-7.3.89.56,5.02,3.04,10.47,1.99,5.27-1.01,8.15-4.6,8.82-5.47.86,3.21,3.48,5.58,6.6,5.99,3.83.5,6.47-2.22,6.74-2.51.1.24,1.24,2.97,3.92,3.43.28.05,2.72.43,3.78-1.15.92-1.37.28-3.47-1.03-4.55-1.15-.95-2.82-1.13-4.28-.46Z"/>
    </g>
  </g>
</svg>