<?xml version="1.0" encoding="UTF-8"?>
<svg id="Layer_2" data-name="Layer 2" xmlns="http://www.w3.org/2000/svg" viewBox="0 0 720.99 202.97">
  <defs>
    <style>
      .cls-1 {
        fill: #f4dfb1;
        stroke-width: 0px;
      }
    </style>
  </defs>
  <g id="Layer_1-2" data-name="Layer 1">
    <path class="cls-1" d="M450.82.47c69.99-6,80.82,47.61,86.23,49.35,5.16,1.67,54.96-7.36,65.61,58.06,37.37-38.15,123.52-19.98,118.09,29.03-26.39-28.23-86.31-33.82-112.47-2.9-13.09-21.79-7.08-46.77-35.62-63.87-20.7-12.41-43.03-7.66-44.99-8.71-.93-.5-1.87-11.15-6.56-16.69-29.03-34.32-114.66-29.85-130.28,19.6-28.94-30.97-104.15-29.49-118.09,11.61-42.41-20.19-96.91,1.15-86.23,42.1-60.16-14.47-106.39,21.55-86.23,68.23-45.17-17.57-66.8-8.88-100.29,16.69,16.95-26.67,41.9-42.45,81.54-32.66-2.86-81.55,78.46-65.07,84.35-68.23,2.5-1.34.47-26.78,29.99-39.19,33.62-14.14,58.95.5,63.73-2.9,1.7-1.21,4.38-18.83,24.37-29.03,54.8-27.97,93.91,20,99.35,18.87,4.72-.98,13.36-44.71,67.48-49.35Z"/>
  </g>
</svg>